<svg xmlns="http://www.w3.org/2000/svg" id="Layer_3" viewBox="0 0 98.4 98.1"><style><![CDATA[
	.st0{fill-rule:evenodd;clip-rule:evenodd;fill:#FFFFFF;}
]]></style><path d="M49 98C22 98 .3 76.4 0 49.3 0 22 21.8 0 49.2 0c26.8 0 49 22 49.2 48.4C98.4 76 76.6 98 49 98zM4.8 49.5C4.8 74 25.2 94 49.4 93.7 74 93.3 93.8 73.4 93.7 49c0-24.8-20.5-45-45-44.6-24.5.4-44.2 20.5-44 45z" class="st0"/><path d="M49.2 7c23.4 0 42.4 19 42.2 42.3-.4 23.4-19.2 42-42.8 41.7C25.6 91 6.8 72 7 48.8 7.2 25.8 26 7 49.2 7zm-22 26c-.3.3-.4.6-.6 1L49 52.4 72.8 33H27zM55 50.2c-4 6.7-8 5-11.8.4L26 65h46.6L55 50zm19.5-15.4c-6.2 5-11.7 9.6-17.4 14.4l17.6 14V35zm-33.3 14c-6-4.7-11.3-9-17.3-14V63l17-14z" class="st0"/></svg>