<svg xmlns="http://www.w3.org/2000/svg" id="Layer_2" width="156.885" height="85" viewBox="199.057 202.5 156.885 85"><style><![CDATA[
	.st0{fill:#EFE8DE;}
]]></style><path d="M229.598 277.003L241.3 214.5h4.902v70H243v-24.902c0-9.898.2-31.2.403-40.295L231.1 284.5H228l-12.3-65.198c.2 9.297.398 30.502.398 40.295V284.5H212.9v-70h4.902l11.696 62.503h.1zm28.3 4.393H273.2v3.104h-18.6v-70h18.6v3.1h-15.3v30.098H271v3h-13.102v30.698zm21.704-66.896h9.5c9.6 0 12.2 4.902 12.2 12.1v45.8c0 7.202-2.4 12.1-12 12.1h-9.7v-70zm3.298 66.896h6.302c7 0 8.797-3.597 8.797-8.997v-45.8c0-5.4-1.9-9-9-9h-6.1v63.794zm26.3-66.896h3.3v70h-3.3v-70zm32.9 70h-3.502l-2.495-17.603h-12.7L320.9 284.5h-3.5l10.503-70h3.797l10.4 70zm-18.402-20.604h12.006L329.8 221l-6.102 42.896z" class="st0"/></svg>