<svg xmlns="http://www.w3.org/2000/svg" id="Layer_4" width="380.5" height="58" xmlns:xlink="http://www.w3.org/1999/xlink" viewBox="0 0 380.5 58"><style><![CDATA[
	.st0{fill:#E2C196;}
	.st1{fill-rule:evenodd;clip-rule:evenodd;fill-opacity:0.3;}
	.st2{fill:#EFE8DE;}
	.st3{fill-rule:evenodd;clip-rule:evenodd;}
	.st4{opacity:0.3;}
	
		.st5{clip-path:url(#SVGID_2_);fill-rule:evenodd;clip-rule:evenodd;fill:none;stroke:#000000;stroke-width:4;stroke-miterlimit:10;}
]]></style><path d="M370.133 16.974c.18-.413.295-.62.36-.84.14-.454.62-.99.105-1.368-.428-.313-1.002.003-1.4.304-.838.63-1.624 1.326-2.44 1.987-1.01.82-2.062 1.12-3.33.486-2.923-1.46-6.126-1.872-9.3-1.812-7.02.14-13.82-1.18-20.65-2.5-3.19-.61-6.424-1.35-9.71-.86-4.39.65-8.726 1.55-12.645 3.77-2.765 1.57-5.067 3.6-6.154 6.72-.3.85-.81 1.45-1.75 1.69-.62.16-1.11.6-.87 1.4.52 1.71.23 2.49-1.33 3.43-.5.3-1.03.54-1.46.96-.4.4-.64.85-.28 1.34.34.48.85.67 1.44.39.98-.45 1.54-1.28 1.95-2.22.31-.71.53-1.45 1.13-2 .74-.67-.15-1.35-.06-2.1.77.14 1.15.49 1.16 1.3.07 3.89.8 7.64 2.68 11.1.47.87.19 1.67-.33 2.4-.32.44-.69.84-1.08 1.22-1.17 1.16-1.5 2.5-.97 4.05.54 1.59.59 3.15.11 4.8-.22.76-.75 2.02.89 2.21.21.02.13.34.21.49.24.44-.1 1.21.6 1.36 1.13.24 2.23.74 3.43.45.46-.11.3-.45.24-.75-.19-.84-.57-1.61-.98-2.35-1.98-3.61.02-7.24 2.63-8.89.51-.33.68-.31 1.1.27 1.52 2.1 2.57 4.41 3.41 6.84.21.62.54 1.02 1.12.32.42-.51.73-.29 1 .12.16.26.28.55.38.84.64 1.78 2.67 2.68 4.4 1.96.63-.26.18-.54.01-.77-1.01-1.33-2.03-2.66-3.05-3.98-.72-.93-1.35-1.9-1.62-3.06-.29-1.27-.19-2.51.7-3.52.61-.69 1.01-1.42 1.24-2.32.3-1.2 1.09-1.62 2.08-.95 2.53 1.71 5.38 1.63 8.2 1.65 3.49.03 6.97.2 10.45-.42 2.44-.43 3.55.57 3.88 3 .3 2.23-.19 4.41-.41 6.61-.08.73-.11 1.47-.14 2.21-.02.35.04.9.34.93 1.1.11 1.09 1.09 1.53 1.73.55.82 2.55 1.26 3.42.77.66-.37.37-.85.09-1.28-.75-1.15-1.32-2.38-1.55-3.74-.27-1.52-.2-3 1.08-4.28.69 1.17.49 2.4.66 3.56.13.87-.29 2.15 1.41 1.86.32-.05.26.32.33.52.61 1.86 1.77 2.58 3.64 2.34.83-.11 1.02-.54.62-1.19-.39-.62-.84-1.22-1.37-1.73-1.43-1.38-1.88-3.11-1.75-5 .1-1.5.38-3 .59-4.5.04-.3.02-.64.44-.72 2.82-.53 5.41-1.95 8.28-2.28 1.12-.13 2.25-.19 3.38-.19 3.18.01 6.03-.93 8.59-2.81 1.2-.88 2.48-1.6 3.97-1.88 1.11-.21 1.7-.84 1.62-2.02-.05-.62-.03-1.24-.09-1.86-.14-1.52-.3-1.58-1.78-1.6-2.72-.03-4.81-1.36-6.46-3.42-.58-.71-.57-1.53.07-2.23 1.32-1.45 1.68-3.39 2.62-5.04.45-.78-.01-1.35-1.03-1.44-1.22-.11-2.37.21-3.7.65zm-1.832 10.64c-1.04.055-1.28-.66-.8-1.292.59-.774-.41-.774.08-.662.74.166 1.74.272 1.91 1.104.15.733-.69.793-1.18.85z" class="st1"/><path d="M311.135 32.065h-1.41V19.397h1.41v5.61h1.7v-5.61h1.413v12.668h-1.412V26.31h-1.7v5.755zm5.075-12.668h1.41v12.668h-1.41V19.397zm5.532 5.61h2.225v5.013c0 1.303-.488 2.226-2.225 2.226-1.738 0-2.227-.923-2.227-2.226v-8.578c0-1.303.488-2.226 2.227-2.226 1.682 0 2.19.923 2.19 2.226v1.394h-1.378v-1.394c0-.543-.18-.96-.813-.96s-.81.417-.81.96v8.578c0 .543.18.96.82.96.64 0 .82-.417.82-.96v-3.71h-.81v-1.303zm6.268 0h2.227v5.013c0 1.303-.488 2.226-2.227 2.226-1.736 0-2.227-.923-2.227-2.226v-8.578c0-1.303.49-2.226 2.227-2.226 1.684 0 2.19.923 2.19 2.226v1.394h-1.376v-1.394c0-.543-.182-.96-.814-.96s-.814.417-.814.96v8.578c0 .543.182.96.814.96s.814-.417.814-.96v-3.71h-.814v-1.303zm4.088-5.61h1.41v11.31h1.848v1.358h-3.258V19.397zm6.252 11.31h2.3v1.358h-3.71V19.397h3.71v1.357h-2.3v4.253h1.992v1.303h-1.992v4.398zm4.062-11.31h2.28c1.737 0 2.208.887 2.208 2.19v8.288c0 1.303-.434 2.19-2.172 2.19h-2.316v-12.67zm2.262 11.31c.635 0 .814-.288.814-.83v-8.29c0-.543-.18-.832-.814-.832h-.85v9.953h.85zm5.303 1.358v-5.12l-1.684-7.548h1.484l.904 5.466.93-5.466h1.48l-1.7 7.547v5.12h-1.41zm-40.252 3.165h2.28c1.737 0 2.17.886 2.17 2.188v2.896c0 1.303-.47 2.154-2.206 2.154h-.84v5.428h-1.41V35.23zm2.224 5.935c.63 0 .81-.307.81-.85V37.42c0-.544-.18-.833-.82-.833h-.82v4.578h.81zm3.95-5.935h1.41v12.667h-1.41V35.23zm5.53 5.61h2.22v5.013c0 1.303-.49 2.227-2.23 2.227s-2.23-.924-2.23-2.227v-8.578c0-1.303.48-2.225 2.22-2.225 1.68 0 2.19.922 2.19 2.225v1.395h-1.38v-1.395c0-.543-.18-.96-.81-.96-.64 0-.82.417-.82.96v8.578c0 .543.18.96.81.96s.81-.417.81-.96v-3.71h-.82V40.84zm6.26 0h2.22v5.013c0 1.303-.49 2.227-2.23 2.227s-2.23-.924-2.23-2.227v-8.578c0-1.303.49-2.225 2.22-2.225 1.68 0 2.19.922 2.19 2.225v1.395h-1.37v-1.395c0-.543-.19-.96-.82-.96s-.82.417-.82.96v8.578c0 .543.18.96.81.96s.81-.417.81-.96v-3.71h-.81V40.84zm4.08-5.61h1.41v11.31h1.84v1.357h-3.26V35.23zm6.25 11.31h2.3v1.357h-3.71V35.23h3.71v1.356h-2.3v4.254h1.99v1.303h-1.99v4.397zm4.06-11.31h2.28c1.73 0 2.21.886 2.21 2.188v8.29c0 1.302-.44 2.188-2.18 2.188h-2.31V35.23zm2.26 11.31c.63 0 .81-.29.81-.832v-8.29c0-.542-.18-.83-.81-.83h-.85v9.952h.85zm5.3 1.357v-5.12l-1.69-7.548h1.48l.9 5.46.92-5.47h1.48l-1.7 7.54v5.12h-1.41z" class="st2"/><path d="M286.834 47.226c-.04.232-.078.475-.117.72-.04.25-.1.476-.186.685-.08.21-.2.39-.35.52-.15.14-.35.22-.61.23-.22-.08-.44-.13-.66-.17-.22-.04-.46-.04-.72-.02-.14 0-.32.01-.53.03s-.44.04-.68.07c-.24.03-.47.05-.7.07-.22.02-.41.03-.55.03-.53 0-1.08-.14-1.66-.42-.4-.62-.68-1.23-.85-1.81-.16-.58-.24-1.22-.24-1.91-.05-.1-.18-.46-.38-1.08-.2-.62-.5-1.52-.89-2.7-.31-1.28-.58-2.31-.8-3.08-.22-.77-.38-1.25-.49-1.44.12.04.28.05.49.02.95 0 1.58-.3 1.88-.89-.06-.07-.13-.12-.21-.15-.08-.03-.19-.05-.33-.05h-.76c-.08.24-.2.35-.37.35-.05 0-.12-.01-.19-.05-.08-.03-.16-.06-.24-.1-.08-.03-.16-.07-.24-.1-.08-.03-.14-.05-.19-.05-.19 0-.35.13-.47.39l-.25-.21c-.44.18-.72.62-.84 1.31-.07.66-.3 1.1-.66 1.31.29.21.43.45.43.72 0 .15-.03.35-.1.6-.06.25-.1.45-.1.6s.04.28.1.4.18.24.33.36v.6c0 .63.01 1.7.02 3.24-.04.74-.06 1.41-.08 2.01-.01.6-.07 1.16-.17 1.68-.24.19-.56.32-.93.4-.38.09-.8.14-1.27.15-1.05-.04-1.81-.05-2.27-.04-.46.02-.65 0-.56-.03-.87-.31-1.3-.95-1.3-1.91 0-.34.07-.64.23-.91l-.36-.3c.07-1.45.12-2.75.15-3.88.04-1.13.06-2.12.07-2.96l.04-2.08c.02-.56.04-.98.06-1.26 0-.43.09-.73.28-.9-.12-.83-.19-1.71-.23-2.64-.04-.93-.02-1.95.05-3.05l-.06-5.03.19-.29-.41-5.36c.38-.85.87-1.27 1.48-1.24.17 0 .33.04.47.12-.03.03.15.04.53.04s.98-.01 1.8-.02c.37 0 .72-.01 1.02-.04.3-.03.59-.07.85-.14.43.28.82.67 1.19 1.16.36.49.65 1.09.86 1.8.11.61.26 1.21.44 1.78.17.58.36 1.17.55 1.77.18.49.34.96.49 1.38.14.43.26.85.37 1.25-.33-.32-.56-.48-.69-.48h-.06c-.02 0-.07.01-.14.04l-.45.45c.11.15.25.28.42.4.18.13.4.26.66.4.4.21.69.59.88 1.15.08.24.24.41.48.51.24.11.55.16.93.18h.61l.43-.43c.14-.14.21-.29.21-.45-.09-.17-.24-.25-.45-.25h-.19l-.21.29c.07-.41.12-.85.15-1.29.03-.45.05-.92.05-1.41.04-.64 0-1.6-.12-2.89-.05-.62-.1-1.17-.15-1.65-.05-.48-.06-.89-.05-1.23-.01-.33 0-.64.03-.92s.06-.51.09-.7c.01-.13.06-.24.15-.33.09-.09.2-.17.32-.23.13-.07.26-.12.4-.18.15-.05.28-.1.41-.14.37.16.81.24 1.33.24.11 0 .25-.01.43-.02l.57-.04.57-.04c.18-.01.33-.02.43-.02.55-.01.96.12 1.23.4s.44.69.49 1.24c-.16.04-.23.12-.23.24 0 .04.01.09.03.14.02.05.04.11.05.17.01.06.01.12-.02.19-.02.06-.08.12-.16.17-.04 2.96-.06 5.51-.08 7.67-.01 2.16-.02 3.94-.02 5.35 0 1.39 0 2.43.01 3.1.01.67.02.99.03.96-.08.05-.09.92-.02 2.59.06 1.67.2 4.15.41 7.44l-.03.02zM269.236 26.52h-.313v.33h.313v-.33zm.762 16.327h-.645l.645.234v-.23zm.566-22.363c-.26 0-.45.085-.566.254l.234.234h.488c.183 0 .313-.078.39-.234-.116-.17-.297-.254-.546-.254zm.762 13.398l-.45.45h.196c.248 0 .41-.08.488-.235l-.234-.215zm-.215 2.597c.12.56.43.84.92.84.17 0 .31-.06.41-.16l-1.33-.69zm.53-5.04c-.13 0-.23.08-.31.25l.24.19.04.04c.07 0 .2-.08.39-.24-.07-.17-.19-.26-.35-.26zm0 9.2c-.13 0-.23.08-.31.25l.24.19.04.04c.07 0 .2-.08.39-.24-.09-.17-.2-.26-.35-.26zm.69-12.31c-.24 0-.5.17-.76.51.08-.16.19-.24.32-.24.08 0 .19.04.32.11s.25.11.32.11c.12 0 .24-.08.36-.24-.18-.19-.36-.28-.55-.28zm-.11 4.88l-.45.43.24.23.45-.43-.23-.24zm0-9.42v.2l.24-.2h-.23zm.55 5.68c-.17 0-.27.08-.31.23l.2.21h.08c.03 0 .07-.02.13-.06l.25-.16c-.04-.16-.15-.24-.33-.24zm1.47 4.79c-.01-.06-.03-.12-.06-.19-.04.35-.29.62-.76.8-.52.19-.84.43-.96.7l.41.43c.16-.08.32-.16.48-.23.17-.07.32-.17.45-.28s.25-.26.33-.42c.09-.16.13-.37.13-.62 0-.08 0-.15-.02-.21zm1.06-2.39c-.06-.03-.12-.04-.17-.04h-.17c-.17 0-.35.01-.54.05s-.4.08-.63.14c-.3.08-.54.13-.74.17l-.39.08.38.1.5.13.5.12c.17.04.3.06.4.06.37 0 .66-.14.88-.41v-.43zm-2.19-4.81h-.21l.22.19v-.2zm.08 6.75h-.11l-.17.04.41.45.24-.23c-.07-.17-.19-.25-.35-.25zm.14-9.77c-.04-.05-.07-.07-.1-.07h-.11l.2.45.23-.2c-.1-.08-.17-.14-.21-.19zm.1 6.61h-.31V31h.32v-.33zm1.7-1.87h-.06c-.1 0-.22.01-.34.03-.12.02-.26.06-.42.12-.22.1-.39.18-.52.22-.12.05-.2.08-.24.11l.2.19c.03 0 .11-.01.26-.03.15-.02.36-.06.63-.13.34-.04.57-.2.68-.49-.07-.03-.13-.04-.17-.04zm-.25-1.08c-.08 0-.17.02-.27.06l-.3.14-.3.14s-.19.07-.26.07c-.02.04.22.06.72.06.4 0 .68-.09.84-.26-.11-.16-.25-.24-.42-.24zm-.45-1.08c-.03-.03-.06-.04-.1-.04-.02 0-.06-.02-.1-.04-.32 0-.49.14-.49.43 0 .14.09.23.26.27.08-.08.17-.16.28-.24.11-.1.16-.21.16-.31v-.08zm-.24 10.72c-.18-.17-.28-.26-.31-.26l-.13.04.45.45v-.23zm.43-12.54c-.21 0-.35.1-.43.29l.24.19h.16c.24 0 .4-.07.49-.2-.07-.2-.22-.29-.44-.29zm1.53 4.41c-.28 0-.43.11-.43.35 0 .18.08.29.24.33-.1.06-.2.11-.3.15s-.21.05-.34.05c-.22 0-.4.02-.55.06-.15.04-.26.1-.32.17.08.01.17.04.28.09l.33.14s.24.1.35.14.22.07.3.07c.19 0 .35-.09.51-.26l-.43-.39 1.07-.45c-.35-.31-.57-.47-.68-.47zm-1.38-5.69h-.14l.26.43.19-.2c-.19-.16-.3-.24-.31-.24zm.43-2.29h-.31v.33h.31v-.33zm.57 4.73c-.12-.16-.23-.24-.33-.24s-.29.21-.55.62c.08.17.2.25.35.25h.3c.16-.08.24-.23.24-.45V26zm1.76 5.72c-.18 0-.38.05-.59.14-.21.09-.44.23-.7.41-.37.3-.65.53-.84.69-.18.16-.28.24-.31.24.08.15.24.23.49.23h.2c.22-.31.63-.57 1.23-.76.34-.11.62-.2.86-.29s.4-.19.51-.28c-.26-.26-.54-.39-.84-.39zm-2.21 2.15l-.23.21c.2.16.32.23.36.23h.1l.04-.08c0-.01-.08-.14-.25-.37zm.65-6.6l-.19.25c.2.15.3.23.31.23l.12-.04v-.08c0-.03-.07-.15-.23-.37zm.12 8.12c-.17 0-.27.06-.31.19l.2.25h.07c.04 0 .16-.08.37-.25-.04-.13-.15-.2-.33-.2zm1-4.85l-1.12.88.24.25c.04-.09.11-.17.22-.23s.22-.12.34-.18.23-.1.33-.14c.1-.04.18-.09.21-.14v-.04c0-.05-.07-.19-.22-.41zm-.88-5v.21l.21-.22h-.21zm.88 2.85l-.43.43.43.45.41-.45-.41-.43zm.45 5.68c-.25 0-.48.14-.69.43.04.16.16.23.37.23.37 0 .54-.01.51-.04.16-.15.23-.26.23-.31 0-.21-.14-.31-.43-.31zm.4 4.07c-.09-.06-.17-.13-.25-.2-.08-.07-.15-.14-.22-.2s-.13-.09-.16-.09c-.1 0-.18.04-.21.11l.84.68.26-.24c-.08 0-.16-.03-.24-.09zm1.2-5.37c-.08 0-.16.05-.25.16-.08.1-.17.22-.25.34l-.24.36s-.15.19-.21.22l.2.22 1.11-1.08c-.13-.13-.24-.2-.35-.2zm-.41 6.95c-.26 0-.39.16-.39.49v.09c0 .03.01.06.04.1l.68-.43c-.08-.17-.19-.25-.33-.25zm.04-5c-.26 0-.39.12-.39.37v.04c.19.15.31.23.35.23h.08c.17-.18.25-.29.25-.31 0-.22-.1-.33-.29-.33zm.17-4.4c-.18 0-.29.07-.33.2l.19.25h.1c.05 0 .17-.08.35-.25-.04-.13-.15-.2-.32-.2zm1.04 6.37c-.61 0-1 .29-1.17.88.08-.09.21-.17.37-.24.17-.07.35-.12.52-.17.18-.05.35-.09.52-.14.17-.05.3-.1.37-.15-.23-.13-.43-.2-.6-.2zm.69 1.65c-.21-.06-.42-.09-.64-.09-.45 0-.86.13-1.21.39.2.3.43.45.69.45.1 0 .22-.02.37-.07.16-.05.32-.1.49-.16.17-.06.33-.11.49-.16.16-.05.29-.07.41-.07-.18-.15-.37-.25-.58-.31zm-1.17 3.13h-.08c-.03 0-.14.08-.35.25l.2.19c.15-.19.23-.3.23-.31v-.13zm0-12.04l-.23.24.24.21.2-.21-.2-.23zm.08 1.64h-.32v.32h.31v-.31zm.84 4.2c0-.04-.02-.09-.04-.15-.16-.15-.27-.23-.35-.23-.04 0-.09.05-.14.14-.05.09-.11.19-.19.3-.07.11-.14.21-.21.31-.07.1-.14.15-.22.17l.23.19c.03-.02.09-.06.19-.1l.32-.13c.11-.05.21-.1.29-.17.09-.07.13-.14.13-.22v-.12zm1.48-4.31c-.17.42-.54.68-1.11.8-.3.06-.54.14-.72.22-.18.08-.3.18-.37.28.07.03.13.04.19.05s.12.01.18.01c.19 0 .38-.03.58-.09.2-.06.43-.14.69-.24l1.21-.61-.64-.43zm-1.52-.19l-.43.43h.2c.15-.2.23-.3.23-.31v-.12zm.08 9.82c-.13 0-.24.08-.31.25l.23.19.04.04c.08 0 .22-.08.41-.24-.09-.17-.21-.25-.37-.25zm1.01-7.43c-.13-.17-.34-.25-.64-.25s-.45.14-.45.41c0 .18.11.27.34.27h.55c.07-.1.12-.17.16-.21s.06-.07.06-.1v-.12zm-.56 1h-.31v.31h.31v-.31zm0 7.87h-.31v.33h.31V42zm.24-12.71h-.31v.35h.31v-.35zm.2-5.04H281v.35h.32v-.35zM281 36.42v.257l.24-.252H281zm.45-10.7c-.14.22-.245.39-.31.5-.06.11-.098.15-.098.128 0 .17.078.25.23.25.098 0 .23-.08.41-.25v-.2c.008-.21-.07-.35-.23-.43zm.705 9.12c-.67 0-.99.21-.95.627l.04.08c.233.197.56.295.976.295.2 0 .38-.02.54-.07.17-.044.32-.12.46-.224-.04-.462-.39-.7-1.05-.7zm-.27 2.91l-.43.45.23.236h.04c.08 0 .2-.076.35-.23l.04-.098c0-.04-.07-.157-.23-.35zm.196-3.923l-.39.45h.16c.25 0 .41-.08.49-.233l-.25-.217zm.03-3.884c-.04-.04-.08-.06-.1-.06h-.11l.2.43.25-.19c-.1-.08-.18-.14-.23-.177zm-.03 15.49l-.19.196.2.25.26-.26-.25-.2zm.88-6.346c-.08-.09-.15-.186-.23-.29-.1-.105-.19-.157-.27-.157-.25 0-.37.108-.37.316 0 .18.08.29.25.33l.2.04c.25 0 .39-.08.43-.24zm-.62 2.19l-.25.194c.21.17.33.26.37.26h.08l.04-.08c0-.05-.08-.17-.23-.37zm.63 1.757l-.23-.032c-.18 0-.32.082-.39.25.19.155.3.233.31.233l.12-.04c.15-.15.23-.26.23-.33l-.04-.08zm.25-16.23c-.22 0-.37.08-.45.24l.45.45.43-.45c-.08-.155-.22-.233-.43-.233zm.2 3.718c-.21 0-.35.08-.45.25.02 0 .05.02.09.067.05.04.1.09.16.14s.12.1.19.15c.07.04.13.06.18.06h.08c.17-.21.25-.33.25-.35 0-.22-.16-.33-.49-.33zm.12 6.13c-.17 0-.27.08-.31.232l.2.23h.08c.04 0 .16-.08.35-.236-.04-.16-.14-.24-.31-.24zm.76 2.635h-.07c-.25 0-.37.12-.37.354v.08h.25c.16-.15.24-.26.24-.31l-.04-.11zm.88-7.634l.24.195.22-.192h-.45zm.45 1.952l-.21.45h.04c.05 0 .11-.02.17-.06s.14-.09.25-.16l-.23-.234zm10.83-16.57h1.7c1.62 0 3.31.68 5.09 2.05 1.61 1.634 2.41 2.93 2.41 3.884.19.62.28 1.52.28 2.68V41.5c0 3.71-1.86 6.21-5.58 7.49-1.02.28-1.87.423-2.54.423h-1.13c-2.1 0-4.1-.76-6.01-2.27-1.6-1.34-2.4-3.347-2.4-6.007v-16.1c0-3.62 1.88-6.14 5.66-7.567 1.04-.29 1.88-.43 2.54-.43zM289 27.25v.14h.213v-.14H289zm0 2.19l.143.144.07-.07v-.21h-.07l-.143.14zm.07 4.384v.07h.143v-.07h-.142zm.07-8.62v.21h.213l-.21-.21zm0 7.703v.21h.213v-.07l-.14-.14h-.07zm.07-8.56v.28h.07l.144-.15v-.07l-.213-.07zm.143 5.87l-.14.49.21.14v-.21h.143v.07l-.07.21.07.07h.21v-.36c0-.25-.07-.39-.21-.427h-.214zm-.14 3.75v.14h.07v-.14h-.07zm.07-6.22v.14h.14v-.14h-.14zm3.605-4.88l-.14.21v.07l.07-.07h.28l-.07.42.07.21-.07.07h-.07l-.283-.07v.21h.353c0 .26-.114.44-.35.56l-.07-.07h-.07l-.215.07c-.09-.287-.28-.428-.56-.428h-.07v.42c.14 0 .21.04.21.14-.318 0-.53.09-.636.28-.426.09-.637.31-.637.64h.28l-.14.56.424.35.07-.07h.286v.21l-.213.07h-.14l-.213-.07v.21l-.283.07.07.35-.28.21-.14-.14v-.43l.14-.14-.07-.36v-.7c-.14 0-.21-.05-.21-.14h.07l.07.07h.07l.15-.21c0-.11-.12-.18-.35-.22l.07.07v.14h-.14c0-.24-.05-.36-.14-.36-.21.18-.38.28-.49.28v.28c.28 0 .43.05.43.14v.07c-.28 0-.42.05-.42.14v.14c.27 0 .46.19.56.57v.07h-.14c-.1 0-.15-.07-.15-.21h-.28l-.14.14v.07l.64.63v.49h-.14c0-.14-.04-.21-.14-.21h-.07l-.07.35v.35h.29l.07-.07h.07c0 .23.12.35.36.35v-.71l.14-.14.08.07v.64h.14l.07-.07h.07l.21.49-.14.14v.49h.07l.28-.21h.07v.07l-.14.21v.07l.42.28V30l-.14.14-.42-.43h-.22V30c.38 0 .57.14.57.42l.49-.07.07.07v.07l-.35.15.07.07c0 .13.17.222.5.28v.424h.21v-.14h.21l.07.07h.07l.07-.07.07.07v.14l-.28.426h-.07v-.21h-.35c0 .18-.07.28-.21.28h-.49v-.07l.07-.21h-.07c-.28.04-.42.113-.42.21 0 .09.1.14.29.14v.21h.42c.1 0 .14.12.14.35l.07.07h.22c.24-.14.36-.305.36-.49.43.07.64.21.64.423l-.21.35v.493h-.21v.28h.07c.1 0 .14-.07.14-.21h.14l.14.492c.38-.12.56-.33.56-.64.19 0 .29-.05.29-.14v-.07l-.21-.07c-.33.116-.5.257-.5.42h-.14l-.07-.42.28-.21v-.71l.42.14.07-.354v-.07h-.14v-.07l.08-.07v-.07l-.07-.28v-.07h.21V31c0-.09.07-.14.21-.14v-.21l-.07-.35-.35.07-.07-.07.07-.496-.07-.28.28-.42-.29-.35v-.07l.22-.21.07.07h.07l.14-.496h-.07c-.09 0-.14-.07-.14-.214l-.35.07v-.07l-.22-.282c.43-.153.64-.27.64-.354 0-.09-.07-.14-.21-.14V27l.14-.21v-.35l-.07.07h-.07c-.1-.01-.24-.247-.43-.707-.14 0-.21-.19-.21-.562l-.22-.14h-.1v.07l.07.21-.07.07h-.07c-.12 0-.19-.09-.22-.28l.43-.56c.13.47.25.71.35.71h.08c.14-.05.21-.19.21-.43-.14 0-.21-.07-.21-.21s.09-.21.28-.21l.07-.07.07.07c.11.29.27.43.49.43l.07-.07v-.07c-.12-.23-.28-.35-.49-.35v-.14l.07-.07v-.07l-.22-.15-.07.07h-.07c-.28-.23-.42-.4-.42-.49l.14-.28c-.09-.28-.28-.42-.55-.42zm-3.535 4.24v.21h.143v-.21h-.144zm0 1.63v.14c.143.23.283.35.425.35v.14l-.07.07v.07c.33.01.495.15.495.42l.075.07h.353v-.14l-.21-.29.07-.427c-.07-.238-.21-.357-.42-.357v.07l-.14.14-.07-.07v-.42h-.28l-.21.21zm0 .49v.21h.213v-.21h-.214zm0 3.18v.07l.213.42h.28l-.14-.5h-.354zm.07-1.13v.21h.213l-.07-.21h-.143zm.073 5.51l.07.07h.07l.14-.14.143.14.14-.14v-.14c-.35 0-.53.07-.57.21zm.14-14.35v.21h.14v-.07l-.14-.14zm.07.71v.21c.142 0 .213.05.213.14v.07l-.15.21v.2h.07l.35-.14v.07c0 .1-.19.2-.57.28l.07.352v.21h.07c.22-.28.41-.42.56-.42l.07-.43c-.19 0-.28-.24-.28-.71l-.36-.07h-.07zm-.07 6.78v.14l.14.14.143-.28v-.21h-.08l-.21.21zm0 3.81v.14l.14.145.07-.07v-.214h-.21zm0 .708v.07l.353.354.14-.21-.14-.21.07-.07v-.07l-.07-.07h-.15l-.22.21zm0 1.84v.21l.14-.14v-.07h-.14zm0 1.693v.08h.14v-.215l-.14.14zm.07-14.49v.15h.07v-.15h-.07zm0 3.89v.148h.142v-.15h-.14zm.283 3.4l.07.28-.36.07v.07c.25.22.41.43.5.63h-.07l-.22-.14-.14.424.07.21c.15 0 .32-.07.49-.21h.07l.07.07h.07l.14-.28c-.33-.425-.5-.71-.5-.85l.21-.14h.07c0 .13.19.343.56.64h.21l.28-.284v-.14h-.36l-.42-.495h-.14l-.07.07h-.07v-.07c0-.118.09-.188.28-.21-.07-.188-.14-.28-.21-.28l-.28.422c-.19.02-.28.09-.28.21zm-.22 7.49l-.07.283v.22l.14.14h.14v-.49l.07-.07v-.07h-.14l-.08-.07-.07.07zm0-16.044v.07l.07.07v.07c.18-.07.28-.14.28-.21l-.15-.14h-.07l-.14.145zm.07.565V23l.49.14.07-.07v-.14l-.14-.14h-.43zm0 16.4l.14.14.49-.07v-.29h-.43l-.22.21zm.07-1.98v.21h.07l.14-.14v-.08h-.22zm.21-3.68v.07l.14.49h.14v-.07l-.07-.5h-.21zm.14 1.34l-.07.35.21.07c0-.13.12-.2.35-.21v-.15h-.07l-.07.07h-.07l-.14-.14h-.14zm.14-11.45l-.07.21h.21v-.21h-.14zm0 9.68v.14h.14l.14-.14v-.21l-.29.21zm.07.99l-.07.21.07.07.28-.07-.07-.21h-.22zm-.07 1.84v.14l.14.14h.14v-.28h-.29zm0 1.41l.07.35.14-.14v-.28l-.22.07zm.21-15.76v.28l-.15.49c.38-.08.57-.25.57-.5l-.36-.28h-.07zm.56 1.76l-.36-.07c-.05.4-.17.68-.36.85v.99h.07l.21-.21v-.5h.14c0 .15.09.26.28.36h.07v-.21l-.21-.29c.01-.16.22-.42.64-.78h.07l.07.07h.07c0-.09.14-.16.42-.22l-.07-.07v-.07l.07-.07v-.08c-.06-.24-.13-.35-.22-.35h-.57c-.09 0-.14.19-.14.56l-.21.07zm-.71-.21v.21h.07l.14-.14-.07-.07h-.15zm0 12.23v.07l.14.14h.07l.07-.21h-.29zm.14-5.94v.21h.07l.14-.14-.07-.07h-.14zm.07-7v.21l.07.07-.07.07v.14l.21.21h.14v-.07l-.07-.21h.14v-.21c-.14 0-.21-.07-.21-.22h-.22zm0 6.36V29h.14v-.21h-.14zm0 3.6v.14h.14v-.14h-.14zm0 7.07v.07l.14.14.21-.43h-.07c-.19.07-.29.14-.29.21zm.07-3.11v.07l.07.35h.21v-.07l-.07-.36h-.22zm.07-6.15v.14l.28.35.21-.07v-.07c-.14-.24-.31-.36-.5-.36zm0 2.47v.21h.35l-.07-.22h-.29zm.21-11.59l-.07.21h.21l-.07-.21h-.07zm-.07 2.4h.07v.14h-.07v-.14zm.42 4.31l.07.07v.07l-.14.21v.07l.07.07v.07l-.07.07h-.07l-.29-.5.42-.14zm-.43 9.19l.14.14V37h-.14zm0 3.32v.21l.14-.14-.07-.07h-.07zm.07-18.8v.21l.14-.14v-.07h-.14zm0 4.17h.21v.07l-.14.14-.07-.07v-.14zm.07 7.56v.07l.35-.07v-.14h-.21l-.15.14zm0 1.41l.07.21h.21l.07-.35h-.21l-.14.14zm0 .92v.21h.07l.14-.14v-.07h-.21zm.27-10.6h.07l.14.14-.21.21h-.07l-.15-.14.21-.21zm-.15-4.31v.14h.07l.14-.14v-.14h-.07l-.14.14zm0 13.36l.07.21h.07l.35-.07v-.07l-.14-.14-.35.07zm0 2.89v.1h.07l.14-.15v-.14l-.21.21zm0 .35v.21l.21-.07-.14-.14h-.07zm0 1.98v.28h.21l.14-.15-.14-.14h-.21zm.14-1.49l-.07.07v.21l.14.14.14-.21-.22-.21zm.14-16.33v.35l.21.28v.07h-.36v.07l.28.28c0-.28.23-.43.7-.43h.21v-.21l-.57-.07-.07.07-.35-.43h-.07zm-.14 7.56h.14l-.14.14V29zm.07-7.99v.14h.07V21h-.07zm0 14.91v.22h.28v-.07l-.15-.14h-.14zm.07-4.52v.07l.14.35h.21v-.49l-.36.07zm0 8.76v.15h.07l.14-.14V40h-.07l-.15.14zm.07-19.86v.07l.14.14c.14-.18.21-.34.21-.5h-.07l-.28.28zm0 7.78h.14v.14h-.14v-.16zm.28.92l.14.14v.35l-.22.21h-.14l-.07-.43c.09 0 .14-.07.14-.21l.07-.07h.07zm-.28 3.53v.14h.14v-.14h-.15zm.07-11.88v.21l.14-.14v-.07h-.14zm.07 17.39v.28h.21v-.42h-.07l-.14.14zm.07-3.82v.28l.14.14.07-.07v-.21l-.14-.15h-.07zm.07 1.84l-.07.21h.07l.14-.14v-.07h-.15zm-.07 3.39v.14l.28.28c.19-.07.28-.14.28-.21v-.07l-.14-.15h-.43zm.14-6.5l-.07.07v.07c.05.28.12.42.21.42l.14-.14c-.09-.28-.19-.42-.28-.42zm-.07 10.74v.07l.49.07h.14l.14-.14-.07-.07h-.21l-.5.07zm.07-6.79V37l.14-.14h-.14zm.07-16.19v.07h.14v-.07H292zm1.2 9.19h.14c-.04.43-.11.64-.21.64v-.14h-.43v.14l.07.35.35-.35c0 .14.09.28.28.42V31l-.07-.07h-.22l-.21.14-.07-.07h-.07l-.28.07-.07-.35.14-.14v-.07c0-.1-.12-.15-.36-.15 0-.14-.07-.21-.22-.21v-.07l.14-.14h.07l.42.36c.37 0 .56-.14.56-.43zm-1.17 8.7h.14l.35-.21v-.21h-.22l-.28.42zm.07-4.45v.14h.14v-.14h-.14zm0 3.32v.07h.14l.14-.14v-.07h-.15l-.14.14zm.07-1.42v.28h.07l.14-.14V36h-.22zm.07-16.26l.07.21.14-.14-.07-.07h-.15zm.07 1.34l.28-.21v-.14c-.24.04-.36.16-.36.35h.07zm-.07 15.48v.07h.28v-.07h-.29zm0 .35V37l.14.14c.23-.06.35-.13.35-.21l-.14-.14h-.21l-.15.15zm.14-14.56l.07.21h-.15v.21l.14.14h.07l.14-.14-.07-.21h.07l.07.07h.07l.07-.07v-.07l-.29-.28-.21.14zm-.07 6.64h.14l.07.21-.07.07h-.07l-.07-.07V29zm0 3.89l.07.07v.07l.56-.21-.21-.21v-.07c-.19.06-.33.17-.43.35zm.07.49l.07.21.21-.218-.14-.14-.14.14zm0 .99v.07l.14.14h.14v-.21l-.14-.15-.14.15zm.14-11.17v.07l.07.35.21-.07v-.14l-.21-.21h-.07zm0 .85v.21h.07l.14-.14v-.07h-.21zm0 16.18v.21h.07l.21-.07v-.14l-.14-.14-.14.14zm.07-19.65l.35-.14v-.28h-.14c-.14.05-.21.19-.21.43zm.28.28c-.14.18-.21.35-.21.5l.07.07h.21l.07-.355v-.07l-.14-.14zm.49 8.34l.07.07v.22l-.43.28c-.04.234-.11.352-.21.352l-.14-.14.71-.78zm-.64-9.61v.14l.21.22h.14v-.14l-.21-.21h-.14zm.07 15.34v.21h.07c.14-.05.21-.19.21-.42H293l-.21.21zm0 .92l.21.56.21-.14c-.11-.29-.2-.43-.29-.43h-.14zm.07 2.12v.14l.14.14.14-.14V38h-.29zm.21-10.39l.14.21-.15.14-.14-.21.14-.14zm-.07 11.87l-.07.28h.07l.14-.14v-.13H293zm-.07.64v.07l.21.07.28-.36v-.15h-.14l-.36.35zm.28-14l.07.07v.07l-.07.28h-.07l-.15-.15v-.07l.21-.21zm.14 2.54h.07v.14l-.21.21h-.07l-.12-.12.35-.22zm-.35 6.64v.28h.14v-.29H293zm.21-8.55l.14.14v.07h-.28v-.07l.14-.14zm-.14 13.99v.14h.07v-.14h-.07zm.07-21.56v.14h.21v-.14h-.21zm0 1.69v.07c.08.19.25.28.5.28V21l-.5-.14zm0 .64l.07.07h.07l.07-.21h-.07l-.14.14zm.14 6.57l.14.14v.07l-.14.14-.15-.14v-.07l.14-.14zm-.14 3.81h.07l.21.21v.07h-.07l-.21-.21v-.07zm.42 2.12l-.21.43-.07-.07h-.14v.07c.09 0 .14.09.14.28l.07.07h.28l.07-.5V34h-.14zm-.42 5.3h.14v-.14l-.14.14zm.35-17.45l-.21-.14-.07.07v.07l.35.42.49-.21-.14-.78h-.07c-.08 0-.17.19-.29.56h-.07zm-.14 9.26h.07l.14.14c-.1 0-.14.09-.14.28h-.14v-.07l.07-.36zm-.07 4.38v.28l.21-.22-.07-.07h-.14zm0 2.97v.14h.14v-.14h-.14zm0 .91l.28.42c.23-.08.35-.23.35-.43h-.64zm.07-2.83v.14h.07v-.14h-.07zm.07-16.26v.14h.21v-.14h-.21zm0 .35v.07l.14.14h.14v-.07l-.14-.14h-.14zm.14 22.83l-.14.22 1.06.14v-.07c0-.15-.31-.25-.92-.29zM293.46 20v.14h.07l.21-.21v-.14h-.07l-.21.21zm.07 2.4v.07l.07.56-.14.42v.07l.14.14h.14c.03-.19.1-.28.22-.28.09 0 .14.14.14.42.14 0 .28-.33.42-.99l-.07-.07h-.21c0 .23-.05.35-.15.35l-.07-.07v-.14l.14-.21v-.14l-.36.07-.28-.21zm0-2.97v.14h.14v-.14h-.14zm0 17.46v.21h.28v-.21h-.29zm.21-2.12l-.14.21v.07l.28.14h.14V35c0-.07-.1-.14-.29-.21zm-.14 3.81v.28l.22-.21-.08-.07h-.14zm.07-2.75v.21l.15.14.21-.22-.14-.14h-.22zm0 1.62v.21l.15-.15v-.07h-.15zm.07-17.81l.15.21.28-.07v-.16l-.14-.14h-.14l-.15.14zm0 6.08v.14l.5-.14-.07-.29h-.14l-.29.28zm.15-.78v.21l.14.14.21-.21V25h-.36zm0 4.59l.07.21.14-.14-.07-.07h-.14zm0 5.86v.14h.14v-.14h-.14zm0 4.52v.14l.14.14h.14l-.07-.29h-.21zm.07-19.1v.07c0 .13.11.24.35.35l.21-.07v-.14l-.21-.22H294zm.07 5.02l.07.21.14-.14-.07-.07h-.14zm.21-7.64l-.07.07v.14l.14.14.07-.07h.07c-.07-.19-.14-.29-.21-.29zm.14 3.18c0 .19-.07.28-.22.28v.14l.14.35h.07l.14-.15-.14-.14v-.21l.28-.07-.07-.21h-.22zm-.14 8.13v.21l.14-.14-.07-.07h-.07zm.07-9.97v.21l.07.07v.07l.21-.07-.08-.28h-.21zm.35.99v.14h.07l.14-.15v-.14h-.07l-.14.14zm.07.99v.28l.21-.22v-.07h-.21zm0 .42v.21h.07l.14-.15h-.21zm.07-.78v.07h.14v-.21l-.14.14zm.07 1.2l.14.14h.07l.14-.14v-.21c-.24.05-.35.13-.35.21zm.07-3.33l.07.22.14-.15v-.07h-.22zm0 7.28v14c0 1.69.49 2.75 1.48 3.18l.57.15h.14c.72 0 1.31-.54 1.77-1.63l.14-1.2V26.1c0-1.95-.59-3.08-1.77-3.4l-.35-.07c-1.23.45-1.84 1.18-1.84 2.19-.07 0-.12.52-.14 1.557zm.07-7.77v.14c.23-.06.35-.13.35-.21l-.08-.07v-.07c-.19.07-.28.14-.28.21zm0 1.91v.14l.14.14h.07l.14-.14v-.07l-.22-.21-.14.14zm.28-1.63l-.07.07v.14l.28.28.14-.147V19l-.36-.07zm-.07 2.54c.15 0 .39-.09.71-.28h.07V21l-.14-.14c-.43 0-.64.19-.64.57zm.21.14v.15h.14v-.28l-.14.14zm.14-1.69c.09.214.19.33.28.36h.07l.21-.21c-.19-.096-.29-.21-.29-.356h-.14c-.1 0-.15.07-.15.21zm.5.85v.213l.21-.21h-.21zm.28-1.27v.14h.21v-.14h-.22zm0 1.06l.14.28h.14c0-.14.09-.28.28-.42v-.07l-.21-.28h-.07c-.19.07-.29.23-.29.49zm0 .565v.14l.42.07.07-.07v-.07l-.15-.15-.36.07zm.28-2.41l-.07.07v.3h.07l.14-.14v-.07l-.14-.14zm.07.56l-.07.07v.07l.42.42h.14v-.28c0-.13-.17-.22-.5-.28zm.21-.43V19c.19-.07.28-.14.28-.215v-.07h-.07l-.21.07zm.07 2.9v.14l.21.22.07-.07v-.286H297zm.14-3.18v.14h.07v-.14h-.07zm.14 3.11l.35.21c.14-.04.21-.18.21-.42v-.14h-.14l-.42.35zm.07-.71v.1h.21v-.21h-.07l-.14.15zm.07-.92v.14l.14-.14v-.15l-.14.15zm.07-1.27v.14l.28.28h.07l.21-.21v-.14l-.5-.07h-.07zm.21 1.7v.07h.21v-.21h-.07l-.14.14zm.28.638v.07l.14.14.14-.14V21l-.15-.14-.14.14zm.07-.85v.21h.07l.14-.14-.07-.21-.15.14zm.28 1.2c-.05.19-.14.284-.28.284l.21.21c.19-.19.35-.28.49-.28v-.07l-.07-.07v-.07l-.07.07h-.14l-.07-.07h-.08zm-.14-.916v.07l.14.14h.21l-.21-.21h-.15zm.14-.78v.07l.14.14h.07v-.21h-.21zm.28-1.69c0 .18-.05.28-.14.28l.07.21c.09 0 .16-.14.21-.43l-.07-.07h-.07zm-.14 3.04v.07l.21.21.42-.14.21.07V21l-.35-.07-.49.14zm.28-1.56v.21c.23-.06.35-.13.35-.21v-.21c-.24.06-.35.13-.35.21zm.14 2.33V22l.14-.14-.07-.07h-.07zm.14-3.32v.14l.14.14.14-.14-.21-.14h-.07zm0 3.96v.28h.07l.14-.14v-.14h-.21zm.42-2.48v.21h.14l-.07-.21h-.07zm.14.28v.14h.14v-.14h-.14zm0 1.06v.07l.14.14h.14v-.07l-.15-.14h-.14zm.07-2.54V19h.14l-.15-.144zm0 4.17v.28h.14l.21-.2-.07-.07h-.29zm.07 1.41v.07h.14v-.07h-.15zm0 8.13v.14l.14.14.14-.14-.21-.14h-.08zm.07-12.44v.07l.21.21.07-.07v-.07l-.21-.14h-.07zm0 11.73l.16.16h.07l-.14-.14h-.07zm.07-10.04v.14h.07v-.14h-.07zm.42 4.31l.07.07v.07c-.29 0-.43.05-.43.14l.21.354v.07c-.19.01-.28.06-.28.14l.14.43v.22h.07l.21-.07v-.77c.14 0 .21-.05.21-.14v-.28h-.14l.07-.07v-.14h-.14zm-.36 6.3l.14.14h.07v-.14h-.2zm0 6.22v.14h.21v-.14h-.2zm.08-18.01v.21l.14.14h.07v-.22l-.15-.14H300zm0 .99v.14h.14v-.14H300zm0 10.53l.14.14h.07l.14-.14V32l-.14-.14-.22.21zm.14.57l-.15.35.14.14h.07c.09 0 .16-.17.21-.5h-.28zm-.07-13.78v.28l.28-.07-.07-.36h-.07l-.15.14zm0 11.31v.21c.19-.07.28-.14.28-.21l-.15-.15-.14.14zm0 4.17h.14v-.15l-.15.14zm.07-5.66l.07.35h.07c.1 0 .17-.28.21-.85h-.07c-.19.07-.28.24-.28.5zm0 5.86v.14l.35.07c-.06-.24-.13-.36-.21-.36l-.14.14zm0 2.26v.2h.14v-.14h-.14zm.07-17.53v.14h.21v-.28h-.07l-.14.14zm0 8.55v.2h.21l-.14-.143h-.07zm0 3.25v.14h.14v-.14h-.14zm.07-7.57v.07l.07.21.14-.14v-.14h-.21zm0 1.56v.07l.21.21h.07v-.14l-.14-.145h-.14zm0 5.37v.14h.14v-.14h-.14zm0 .92v.28l.14-.14v-.14h-.14zm0 2.19v.07h.21v-.21h-.07l-.14.14zm.07-9.6c.03.13.15.25.35.35h.14v-.35h-.5zm.07 13.43v.21h.07l.07-.21h-.14zm.07-4.88v.14h.35v-.14l-.14-.14h-.07l-.15.145zm.14-3.674l-.07.42.35.35.14-.14v-.22c-.19 0-.29-.14-.29-.42h-.14zm-.07 4.31v.21c.19 0 .28.07.28.21h.07l.14-.14v-.21c-.12 0-.23-.07-.35-.21l-.14.15zm0 4.88v.07h.14v-.07h-.14zm.71-12.87v-.35c-.12 0-.33.24-.64.71l.14.14.42-.14c.24.06.35.13.35.21l-.07.07v.07l.07.22h.15l.14-.14v-.14c0-.09-.07-.14-.21-.14v-.35c.14-.18.21-.34.21-.5l-.14-.14-.29.49h-.14zm-.64 4.66v.28l.28-.07v-.21l-.15-.14-.14.14zm0 4.38v.21h.14v-.07l-.14-.14zm0 .64v.07h.21l-.07-.21-.14.14zm0 .28v.21h.21v-.21h-.21zm0 2.05v.21l.21-.07v-.14h-.21zm0 5.09v.07l.14.14h.22l.21-.21h-.56zm.07-22.55v.14l.28.28.21-.43v-.21l-.14-.14c-.08 0-.15.12-.22.35h-.14zm0 1.98v.07l.14.14.14-.14v-.07l-.14-.14-.14.14zm.07-.64v.07l.14.14h.14V21h-.28zm0 7.14v.28l.21.21h.14v-.49h-.35zm0 3.67v.14h.14v-.14h-.14zm0 6.36l.07.22.28-.15v-.07l-.14-.14-.21.14zm.07-19.22v.284h.21l.07-.28h-.28zm0 16.9v.21h.07l.14-.14v-.07h-.21zm0 2.83v.14l.14-.14h-.14zm.07-5.02v.07l.21.35h.14v-.28l-.15-.14h-.21zm.07-9.55v.21h.21l.07-.21H301zm0 12.94l.21.21.28-.07-.07-.28h-.29l-.14.14zm0 .28v.422l.14.14v-.14h.07l-.14-.42H301zm.49-15.2l-.36.28-.07.36h.14l.43-.5-.15-.14zm-.43 12.65v.36h.21V35l-.14-.14h-.07zm0 1.7v.14h.14v-.14h-.14zm.07-14.84v.14h.21v-.14h-.21zm0 5.02v.07l.28-.21h-.14l-.14.14zm0 8.91v.145l.14-.14h-.14zm.07-8.69v.214h.21v-.21h-.21zm0 .99V28l.14.148h.07v-.29h-.21zm0 1.56v.07l.07.35h.21c0-.25-.07-.39-.21-.42h-.08zm.14 2.26v.14h.21v-.14h-.21zm0 1.27v.21h.07l.14-.14V33h-.21zm0 5.37v.21h.21v-.21h-.21zm.07-6.01l.07.35h.21l-.07-.07v-.28l.07-.07v-.07h-.14l-.14.14zm0 5.51v.1l.28-.21h-.14l-.14.14zm.07-14.91v.21h.14V23h-.14zm0 4.38v.146h.14v-.15h-.14zm0 7l.14.21c.19-.04.28-.14.28-.28l-.14-.21c-.15.05-.24.14-.28.286zm.07-5.37v.14h.14V29h-.14zm.07-6.43c0 .09.12.14.36.14l-.07.356c.21-.1.33-.19.35-.29v-.07l-.14-.14-.14.14c0-.19-.05-.28-.14-.28h-.07l-.14.14zm0 4.52v.07h.07l.36-.07v-.28h-.14l-.28.28zm0 4.1v.28l.28.71c.09 0 .16-.14.22-.42-.17-.38-.28-.56-.36-.56h-.14zm.07 5.59l.07.21h.36v-.22l-.14-.14h-.14l-.14.14zm.07-16.68v.21h.15v-.07l-.14-.14zm.07.493v.28l.36-.07v-.21h-.35zm.07 5.16l.15.14h.14l-.14-.14h-.14zm.08 3.11v.07h.14v-.21l-.15.14zm.07-4.52v.07l.14.14.07-.07v-.36l-.21.21zm.07 8.97l-.07.286h.07l.14-.145-.14-.14zm0-5.58l.07.353h.28c0-.24-.05-.36-.14-.36l-.21.07zm0 7.42v.284h.14v-.28h-.14zm0 6.433v.21h.07c.19-.09.28-.23.28-.42h-.14l-.21.21zm.07-17.96v.28h.21v-.14l-.14-.14h-.07zm0 12.79v.22l.14.14h.14l-.07-.35h-.21zm.07.99l-.07.07v.29l.28-.21v-.07l-.21-.07zm.07-2.75l-.07.07v.14h.21v-.07l-.14-.14zm.07-9.89v.3h.21l.14-.14v-.14h-.36zm0 16.47h.07c.46-.11.86-.39 1.2-.85v-.14h-.07c-.8.43-1.2.76-1.2.99zm.21-11.52l-.07.21h.21v-.07l-.15-.14zm-.07 4.03v.14h.14v-.14h-.14zm.21-12.66l-.15.5v.07l.07.35.43-.15v-.07c-.14-.18-.21-.34-.21-.5V21h-.14zm-.15 3.25v.07h.14v-.07h-.15zm0 12.16v.21h.14v-.21h-.15zm.07-11.17v.07l.07.07v.07l.21-.07v-.28h-.14l-.14.14zm0 .5v.07l.14.14h.21l-.21-.21h-.15zm.07 9.76v.21l.14.14h.15v-.14l-.21-.21h-.07zm.07-10.81v.07h.14v-.07h-.14zm0 7.42v.21h.07l.36-.07V32H303l-.14.14zm.07-9.69l.07.21.15-.14v-.07h-.21zm0 5.8v.07l.15.14.07-.07v-.07l-.07-.07h-.14zm0 3.39v.21l.36-.07v-.14l-.14-.14H303l-.14.15zm0 1.06v.07h.15l.14-.14v-.07H303l-.14.14zm.07-5.65v.07l.15.14h.07v-.21h-.2zm0 2.9l.07.21.29-.28v-.07l-.14-.14c-.12 0-.19.1-.21.28zm0 7.56v.29h.15v-.14l-.14-.15zm.07-6.57v.36h.08l.14-.15V31H303zm.08-9.04v.14c0 .14.12.21.35.21v.07l-.35.78h.14l.14-.14-.07-.21h.07c.19 0 .31-.12.35-.35 0-.22-.21-.39-.63-.49zm0 1.34v.22l.21-.07v-.15h-.21zm0 4.24v.22h.21l-.07-.22h-.14zm0 .43v.15h.14v-.14h-.14zm0 8.49v.07l.35.36.07-.07v-.07c-.07-.19-.15-.29-.22-.29h-.21zm.07-.56l.07.21h.07l.14-.14-.07-.07h-.21zm.07-8.84v.07l.14.15.07-.07V27h-.21zm0 2.41v.14h.14v-.14h-.14zm0 1.06v.14l.14.14h.14v-.35h-.07l-.21.07zm.14-6.79l-.07.49h.21l.07-.28-.07-.21h-.15zm.14 3.18v.21l.14-.14v-.07h-.14zm0 8.55v.28h.21l.15-.14v-.07l-.36-.07zm.07-7.14v.14h.07v-.14h-.07zm0 5.16v.14h.14v.07l.29-.07v-.28h-.28l-.14.14zm.07-8.41v.28h.07c.19-.07.29-.14.29-.21V25l-.14-.14h-.08l-.14.15zm0 1.48v.14h.07v-.14h-.07zm.07-2.4v.21h.07l.15-.14-.07-.07h-.15zm0 12.02v.14l.15.14.14-.14-.22-.14h-.07zm.07-13.01v.07l.08.07v.07l.28-.21-.14-.15-.15.14zm0 1.34v.14h.15v-.15h-.14zm.08 1.41V26l.35.707.21-.072-.07-.494.14-.14v-.07h-.14v-.07l-.07.07h-.43zm0 8.55v.14h.14v-.14h-.14zm0 .28v.21h.21v-.21h-.21zm.07-9.19v.21h.21l-.07-.22h-.1zm0 9.75v.284h.14l.21-.21-.07-.07h-.2zm.07-4.95l.07.36h.07l.14-.14v-.07l-.15-.14H304zm0 3.535V34h.14v-.15H304zm.07-2.12v.07h.14l.14-.14v-.07h-.14l-.15.14zm0 1.06V33h.14v-.21h-.15zm.07-4.24v.146l.21.21h.14v-.14l-.21-.21h-.15zm0 .78l.21.147.07-.21-.07-.07h-.07l-.15.14zm.07-2.33v.21h.14v-.21h-.14zm.07.497l-.07.07v.217l.49.14.07-.07v-.28l-.5-.07zm-.07 4.81l.07.07h.21l-.07-.21h-.07l-.14.145zm.07-2.4v.28l.28-.07-.07-.43-.21.21zm.07-1.77v.28l.21-.07v-.07l-.14-.14h-.07zm0 2.61v.2h.07l.14-.15v-.14l-.21.08zm.07 1.9v.21h.07l.14-.14-.07-.07h-.14zm0 1.13v.2l.14.14v-.28h-.14zm.21-4.03v.15h.14v-.15h-.14zm.07-.99v.14h.14v-.14h-.14zm0 4.6v.22h.07l.14-.14v-.07h-.21z" class="st0"/><g class="st4"><defs><path id="SVGID_1_" d="M202.968 27.87c0-16.297 29.442-30.896 26.507-17.75-.032 2.243.43 4.31 1.41 6.266.154.31.095.734.097 1.107l3.685 5.58c1.01-.227 1.446.09 1.72.974.13.417.34.807.582 1.367l11.43-1.857c-.44.776 3.21-6.807 3.56-5.97.77 1.853 4.51 12.065 4.54 14.156l-2.86 16.034-9.45 11.032-16.89 2.17-22.05-7.62-2.3-25.5z"/></defs><clipPath id="SVGID_2_"><use xlink:href="#SVGID_1_" overflow="visible"/></clipPath><circle cx="229.591" cy="32.804" r="22.029" class="st5"/><path d="M229.354 9.746c-.032 2.243.43 4.312 1.41 6.266.154.31.095.734.098 1.107.008 1.9.003 3.81.003 5.9 1.286-.1 2.518-.07 3.682-.33 1.01-.23 1.445.09 1.72.97.13.41.34.8.58 1.36l-5.923.66v5.67h18.57c-.03-2.09-.514-4.03-1.282-5.89-.35-.84-.37-1.53.072-2.3.386-.68.676-1.41 1.016-2.14 4.165 6 5.09 16.86-1.02 25.25-6.514 8.94-18.287 11.98-28.513 7.33-9.71-4.42-15.135-15.63-12.606-26.16 2.67-11.13 12.49-17.71 22.2-17.72zM237 51.264c2.91-1.026 5.294-2.807 7.538-5.204-1.448-.7-2.76-1.33-3.94-1.9-1.294 2.48-2.48 4.757-3.666 7.033-.018.064-.035.13-.052.197l.12-.126zm-14.79 0l.12.126-.053-.197-3.676-7.052-3.92 1.93c2.23 2.4 4.62 4.18 7.53 5.2zm-.073-37.006c-2.857 1.096-5.29 2.788-7.454 5.208l3.916 1.906 3.66-6.97.13-.144h-.26zm-9.063 29.737l4.92-2.433-1.023-7.45h-7.29c.24 3.693 1.39 6.965 3.4 9.883zm33.067-.002c2.01-2.957 3.18-6.222 3.39-9.89h-7.28l-1.03 7.456 4.94 2.43zm-29.17-12.598c.36-2.543.7-4.995 1.04-7.434l-4.94-2.43c-1.96 2.96-3.18 6.19-3.36 9.87h7.27zm11.38 2.698h-8.76l.94 6.648c2.58-.27 4.91-.52 7.24-.8.22-.02.56-.32.57-.5.05-1.76.03-3.52.03-5.33zm11.29.006h-8.65c-.05.12-.09.18-.09.24-.01 1.15-.02 2.31-.02 3.47 0 2.01 0 2.01 2.05 2.19.21.02.41.05.61.08 1.67.23 3.34.46 5.18.73.31-2.25.62-4.43.94-6.73zm-11.32-8.36l-7.81-1.03-.89 6.64h8.7v-5.61zm-.02-12.87c-2.69-.07-6.12 6.26-6.83 9.37 2.26.29 4.51.57 6.84.87V12.87zm-6.94 30.51c1.11 2.93 2.32 5.63 4.37 7.84.68.72 1.45 1.42 2.6 1.42V42.48c-1.4.13-2.75.224-4.1.39-.9.108-1.79.318-2.86.515zm9.58 9.22c2.65.23 6.31-6.5 6.82-9.35l-6.81-.85v10.2z" class="st3"/><path d="M242.18 29.452l-3.08-6.702c-.213-.463-.44-.92-.626-1.396-.597-1.538-1.488-2.77-2.82-3.854-3.224-2.63-4.108-7.37-2.358-11.265C234.97 2.508 239.06.085 242.95.52c4.487.5 8.024 3.568 8.8 7.727.79 4.237-.634 7.618-4.088 10.18-.357.265-.674.664-.864 1.068-1.372 2.928-2.707 5.873-4.056 8.812-.154.33-.322.655-.56 1.145zm.044-22.682c-1.828-.01-3.23 1.39-3.242 3.23-.01 1.793 1.35 3.19 3.137 3.218 1.85.028 3.28-1.343 3.31-3.16.02-1.802-1.42-3.28-3.21-3.288z" class="st3"/></g><path d="M174.23 31.267V22.69c0-1.304.487-2.227 2.224-2.227 1.738 0 2.227.923 2.227 2.226v8.57c0 1.3-.48 2.22-2.22 2.22-1.73 0-2.22-.93-2.22-2.23zm1.41 0c0 .543.18.96.813.96s.814-.417.814-.96V22.69c0-.544-.182-.96-.814-.96s-.814.416-.814.96v8.577zm7.862 2.045h-1.666l-1.7-12.668h1.448l1.086 10.08 1.086-10.08h1.447l-1.7 12.668zm4.748-1.357h2.3v1.357h-3.71V20.644h3.71V22h-2.3v4.254h1.992v1.303h-1.992v4.398zm4.063-11.31h2.316c1.73 0 2.13.886 2.13 2.19v2.894c0 1.05-.29 1.81-1.31 2.06l1.99 5.52h-1.58l-1.76-5.43h-.4v5.43h-1.41V20.64zm2.224 5.935c.635 0 .814-.308.814-.85v-2.897c0-.543-.18-.832-.81-.832h-.81v4.58h.82zm7.14 3.15c0-3.603-3.003-2.154-3.003-5.92v-1.12c0-1.304.47-2.227 2.21-2.227 1.735 0 2.206.923 2.206 2.226v1.39h-1.412v-1.39c0-.55-.162-.96-.795-.96-.635 0-.797.41-.797.96v1.06c0 3.06 3.004 1.63 3.004 5.91v1.59c0 1.3-.47 2.22-2.207 2.22-1.738 0-2.21-.93-2.21-2.23v-1.57h1.413v1.57c0 .54.162.96.797.96.633 0 .795-.42.795-.96v-1.53zm4.64 2.225h2.3v1.357h-3.71V20.644h3.71V22h-2.3v4.254h1.99v1.303h-1.99v4.398zm8.816 1.357h-1.43l-.29-2.75h-1.628l-.29 2.75h-1.43l1.647-12.668h1.773l1.648 12.668zm-3.223-4.054h1.357l-.668-6.533-.69 6.533zm7.637.472c0-3.603-3.004-2.154-3.004-5.92v-1.12c0-1.304.47-2.227 2.207-2.227 1.738 0 2.21.923 2.21 2.226v1.39h-1.413v-1.39c0-.55-.164-.96-.797-.96s-.797.41-.797.96v1.06c0 3.06 3.006 1.63 3.006 5.91v1.59c0 1.3-.48 2.22-2.21 2.22s-2.21-.93-2.21-2.23v-1.57h1.41v1.57c0 .54.16.96.79.96s.79-.42.79-.96v-1.53zm-45.14 6.748h2.28c1.738 0 2.21.887 2.21 2.19v8.288c0 1.303-.435 2.19-2.173 2.19h-2.316v-12.67zm2.263 11.31c.635 0 .814-.29.814-.832v-8.29c0-.542-.18-.83-.814-.83h-.85v9.952h.85zm5.553 0h2.3v1.357h-3.712V36.478h3.72v1.357h-2.3v4.252h1.99v1.303h-1.99v4.398zm7.11 1.358h-1.663l-1.7-12.668h1.446l1.086 10.08 1.086-10.08h1.447l-1.7 12.668zm4.75-1.358h2.3v1.357h-3.71V36.478h3.71v1.357h-2.3v4.252h1.99v1.303h-1.99v4.398zm4.063-11.31h1.41v11.31h1.846v1.358h-3.256V36.478zM202.89 47.1v-8.577c0-1.303.487-2.227 2.224-2.227 1.738 0 2.227.924 2.227 2.227V47.1c0 1.304-.48 2.226-2.22 2.226-1.73 0-2.22-.923-2.22-2.225zm1.41 0c0 .544.18.96.813.96s.814-.416.814-.96v-8.577c0-.543-.182-.96-.814-.96s-.814.417-.814.96V47.1zm4.91-10.622h2.278c1.738 0 2.172.887 2.172 2.19v2.894c0 1.305-.47 2.154-2.207 2.154h-.834v5.43h-1.41V36.478zm2.224 5.935c.635 0 .814-.31.814-.852v-2.89c0-.54-.18-.83-.814-.83h-.814v4.58h.814zm5.71-5.935l1.59 10.242 1.61-10.242h1.758v12.668H220.8V44.82c0-1.41.07-4.162.106-5.41l-1.502 9.736h-1.32l-1.502-9.754c-.02 1.502.107 3.727.107 5.428v4.326h-1.31V36.478h1.75zm8.344 11.31h2.3v1.357h-3.712V36.478h3.71v1.357h-2.298v4.252h1.99v1.303h-1.99v4.398zm7.844-2.172c-.09-1.756-.145-3.24-.145-4.994v-4.145h1.357v12.668h-1.357l-2.426-9.14c.08 1.72.15 3.185.15 4.995v4.145h-1.35V36.478h1.36l2.43 9.138zm5.684 3.53h-1.412v-11.31h-1.465v-1.358h4.34v1.357h-1.47v11.31z" class="st2"/><path d="M149.88 48.433c-.04.238-.08.482-.12.734-.04.252-.103.482-.188.695-.087.21-.206.387-.358.525s-.36.215-.625.23c-.23-.08-.46-.14-.68-.18-.23-.04-.47-.046-.74-.02-.15 0-.33.012-.55.03s-.45.044-.7.07c-.25.026-.49.05-.72.07s-.42.028-.57.028c-.55 0-1.11-.145-1.69-.438-.41-.635-.7-1.25-.87-1.846-.17-.59-.25-1.24-.25-1.94-.06-.1-.18-.47-.39-1.1l-.91-2.75c-.32-1.31-.59-2.35-.82-3.14-.23-.78-.39-1.27-.5-1.47.12.04.28.05.49.02.96 0 1.6-.3 1.91-.91-.07-.06-.14-.11-.22-.15s-.2-.05-.34-.05h-.78c-.08.24-.21.36-.38.36-.06 0-.12-.02-.2-.05-.08-.03-.16-.07-.25-.11-.08-.04-.17-.07-.25-.11s-.15-.05-.2-.05c-.2 0-.36.14-.48.4l-.26-.22c-.45.19-.74.63-.86 1.33-.08.68-.3 1.12-.67 1.33.29.21.44.46.44.74 0 .15-.03.35-.1.61s-.1.46-.1.61c0 .15.03.28.1.41.07.13.18.25.34.37v.65c0 .64.01 1.73.02 3.3-.04.76-.07 1.44-.08 2.05-.01.61-.07 1.18-.18 1.71-.25.19-.57.32-.96.41s-.82.14-1.29.15c-1.08-.04-1.85-.05-2.32-.04-.47.02-.66 0-.56-.04-.89-.31-1.34-.96-1.34-1.94 0-.34.08-.65.24-.93l-.36-.3c.07-1.48.12-2.8.15-3.95.03-1.15.06-2.16.07-3.01.01-.86.02-1.56.04-2.12s.03-.99.06-1.28c0-.44.09-.74.28-.91-.12-.85-.2-1.74-.23-2.69s-.02-1.98.05-3.11l-.06-5.12.2-.3-.42-5.46c.38-.87.89-1.3 1.51-1.27.17 0 .33.04.48.12-.03.03.15.04.53.04s.99 0 1.83-.02c.38 0 .73-.01 1.04-.04.31-.02.6-.07.86-.14.44.29.84.69 1.21 1.18s.66 1.11.87 1.84c.12.63.26 1.23.44 1.82.18.59.37 1.19.57 1.8.19.5.36.97.5 1.41s.27.86.38 1.27c-.33-.33-.56-.5-.69-.5h-.06c-.03 0-.07.01-.14.04l-.46.46c.1.15.25.28.42.41s.4.26.67.41c.39.21.69.6.89 1.17.08.24.24.41.48.52.24.11.56.17.94.18h.62l.44-.44c.15-.14.22-.29.22-.45-.09-.17-.25-.26-.46-.26h-.2l-.22.3c.07-.43.12-.87.15-1.32.03-.46.05-.94.05-1.44.04-.65 0-1.63-.12-2.94-.05-.64-.1-1.2-.15-1.69-.04-.49-.06-.91-.05-1.25-.02-.35-.01-.66.03-.94.03-.28.06-.52.09-.7.01-.13.06-.24.15-.34.09-.09.2-.17.33-.23.12-.07.26-.13.41-.18.14-.06.28-.1.42-.14.37.16.82.24 1.35.24.1 0 .25-.01.44-.02.18-.02.37-.03.57-.04.19-.02.39-.03.57-.04.18-.02.33-.02.44-.02.56-.02.97.12 1.25.4.28.29.44.71.5 1.26-.16.04-.24.12-.24.24 0 .04.01.09.03.14s.03.11.05.17c.01.06 0 .12-.02.19s-.08.13-.16.18c-.04 3.01-.07 5.61-.08 7.8-.02 2.2-.02 4.01-.02 5.44 0 1.42 0 2.47.01 3.15 0 .68.01 1.01.03.98-.08.05-.09.93-.02 2.63.06 1.7.2 4.23.41 7.57l-.04.03zm-17.91-21.076h-.32v.338h.32v-.338zm.773 16.62h-.655l.655.24v-.24zm.577-22.763c-.266 0-.457.086-.577.26l.24.237h.495c.186 0 .318-.07.398-.23-.118-.17-.305-.26-.556-.26zm.776 13.64l-.457.456h.19c.25 0 .41-.08.49-.238l-.24-.22zm-.22 2.64c.12.57.43.856.935.856.18 0 .32-.053.42-.158l-1.35-.697zm.537-5.127c-.132 0-.238.087-.317.26l.238.197.04.04c.065 0 .198-.08.397-.238-.08-.172-.19-.26-.35-.26zm0 9.362c-.132 0-.238.08-.317.26l.238.19.04.04c.065 0 .198-.08.397-.24-.09-.18-.21-.26-.35-.26zm.696-12.53c-.26 0-.52.17-.78.52.08-.16.18-.24.32-.24.08 0 .19.04.33.12.14.08.24.12.32.12.12 0 .24-.08.36-.24-.19-.19-.37-.28-.56-.28zm-.12 4.97l-.46.43.24.24.45-.44-.24-.24zm0-9.58v.2l.23-.2h-.24zm.55 5.78c-.18 0-.28.08-.32.24l.2.22h.08c.02 0 .07-.02.13-.06.06-.04.14-.1.25-.16-.04-.16-.16-.24-.34-.24zm1.49 4.88l-.06-.19c-.04.35-.3.63-.78.81-.53.2-.86.44-.98.71l.42.43c.16-.08.32-.16.48-.23.16-.07.32-.17.45-.29s.25-.26.33-.43.13-.38.13-.63c0-.08-.01-.15-.02-.21zm1.07-2.44c-.07-.03-.13-.04-.18-.04h-.18c-.17 0-.36.02-.56.05s-.41.08-.64.15c-.31.08-.56.14-.76.18l-.4.08.39.11.5.14c.17.04.34.09.51.13.16.04.3.06.41.06.37 0 .66-.14.89-.42v-.44zm-2.23-4.89h-.22l.22.2v-.2zm.08 6.88h-.12l-.18.04.42.46.24-.24c-.08-.18-.2-.26-.36-.26zm.14-9.95c-.04-.05-.08-.07-.1-.07h-.12l.2.46.24-.2c-.11-.08-.18-.15-.22-.19zm.1 6.73h-.32v.33h.32v-.34zm1.73-1.91h-.06c-.11 0-.23.01-.35.03-.13.02-.27.06-.43.13-.23.1-.41.18-.53.23-.13.04-.21.08-.25.11l.2.19c.02 0 .11-.01.26-.03.14-.02.35-.06.63-.13.34-.04.57-.21.69-.5-.08-.03-.14-.04-.18-.04zm-.26-1.1c-.08 0-.17.02-.27.07-.1.04-.2.09-.31.14-.11.05-.21.1-.31.15s-.19.07-.27.07c-.03.04.22.06.73.06.4 0 .68-.09.85-.26-.12-.16-.27-.24-.44-.24zm-.46-1.1c-.03-.03-.06-.04-.1-.04-.03 0-.06-.02-.1-.04-.34 0-.5.14-.5.44 0 .14.08.23.26.27.07-.08.17-.16.27-.24.11-.11.16-.22.16-.32v-.08zm-.24 10.91c-.19-.18-.29-.26-.32-.26l-.14.04.46.45v-.24zm.43-12.77c-.21 0-.36.1-.44.29l.24.2h.15c.24 0 .4-.07.5-.2-.08-.2-.23-.3-.46-.3zm1.55 4.49c-.29 0-.44.12-.44.35 0 .19.08.3.24.34-.11.07-.21.12-.31.15s-.22.05-.35.05c-.23 0-.42.02-.57.06-.16.04-.27.1-.33.18.08.01.17.04.28.09l.33.15.36.15s.22.07.29.07c.18 0 .35-.09.52-.26l-.44-.4 1.09-.46c-.36-.32-.59-.48-.7-.48zm-1.41-5.79h-.14l.26.44.2-.2c-.2-.16-.31-.24-.32-.24zm.44-2.33h-.32v.34h.32V22zm.57 4.81c-.12-.16-.24-.24-.34-.24-.11 0-.29.21-.56.64.08.17.19.26.35.26h.3c.15-.08.23-.24.23-.46v-.2zm1.79 5.82c-.19 0-.39.04-.6.14s-.45.23-.72.41c-.39.3-.67.54-.86.7-.19.16-.29.25-.32.25.08.16.25.24.5.24h.2c.22-.32.64-.58 1.25-.78.34-.1.63-.2.87-.3.24-.09.41-.18.51-.28-.27-.26-.55-.4-.86-.4zm-2.25 2.19l-.24.22c.2.15.31.23.35.23h.1l.04-.08c0-.01-.09-.14-.26-.38zm.66-6.72l-.2.25c.2.16.3.24.32.24l.11-.04v-.08c0-.03-.08-.15-.24-.38zm.12 8.27c-.18 0-.28.06-.32.19l.2.26h.07c.04 0 .16-.09.38-.26-.04-.13-.16-.2-.34-.2zm1.01-4.93l-1.14.89.23.26c.04-.09.11-.17.22-.24.1-.07.22-.13.34-.18.12-.05.23-.1.34-.14.1-.04.18-.09.22-.14v-.04c0-.05-.08-.19-.22-.42zm-.9-5.09v.22l.22-.22h-.2zm.89 2.9l-.44.43.44.45.41-.46-.42-.44zm.46 5.78c-.25 0-.49.15-.7.44.04.16.16.24.37.24.37 0 .54-.01.52-.04.16-.16.24-.26.24-.32 0-.21-.15-.31-.44-.31zm.41 4.15c-.09-.06-.17-.13-.25-.2l-.23-.2c-.08-.06-.13-.09-.17-.09-.11 0-.18.04-.22.12l.85.69.26-.24c-.08 0-.16-.03-.25-.09zm1.22-5.46c-.08 0-.17.05-.25.16-.09.1-.17.22-.26.34l-.25.37c-.08.12-.15.19-.22.22l.2.22 1.13-1.12c-.13-.14-.25-.2-.36-.2zm-.42 7.08c-.27 0-.4.16-.4.5v.1c0 .02.01.06.04.1l.7-.44c-.08-.17-.2-.26-.34-.26zm.04-5.09c-.27 0-.4.12-.4.37v.04c.2.16.32.24.36.24h.08c.17-.19.26-.3.26-.32 0-.23-.1-.34-.3-.34zm.18-4.48c-.19 0-.3.06-.34.19l.2.26h.1c.05 0 .17-.09.36-.26-.04-.13-.15-.2-.32-.2zm1.05 6.48c-.62 0-1.02.29-1.19.89.08-.1.2-.17.38-.24.17-.07.34-.12.52-.17s.35-.09.52-.14c.17-.05.3-.1.38-.15-.24-.13-.45-.2-.62-.2zm.7 1.68c-.22-.06-.43-.09-.66-.09-.47 0-.88.13-1.23.39.2.31.43.46.69.46.09 0 .22-.02.37-.07.16-.04.32-.1.5-.16.17-.06.34-.12.5-.16s.3-.07.42-.07c-.19-.15-.39-.25-.6-.31zm-1.2 3.19h-.08c-.03 0-.15.08-.36.26l.2.19c.16-.19.24-.3.24-.31v-.14zm0-12.25l-.24.24.24.21.2-.22-.2-.24zm.08 1.67h-.32v.31h.32V32zm.85 4.27c0-.04-.02-.1-.04-.16-.16-.16-.28-.24-.36-.24-.04 0-.09.05-.14.14-.05.09-.11.2-.19.31-.07.11-.14.22-.22.32-.08.1-.15.15-.23.17l.24.19c.02-.03.09-.06.19-.1l.32-.13c.11-.05.21-.1.3-.17s.13-.14.13-.22v-.12zm1.51-4.4c-.17.42-.55.69-1.13.81-.31.06-.55.14-.74.23s-.31.18-.38.28c.07.02.13.04.19.05.06 0 .13.01.19.01.19 0 .38-.03.59-.09s.44-.14.7-.25l1.23-.62-.66-.44zm-1.55-.2l-.44.44h.2c.16-.2.24-.31.24-.32v-.12zm.08 10c-.14 0-.24.08-.32.26l.24.19.04.04c.08 0 .22-.08.42-.24-.1-.17-.22-.26-.38-.26zm1.03-7.56c-.14-.18-.35-.26-.66-.26s-.46.14-.46.42c0 .18.11.27.34.27h.56c.06-.1.12-.18.16-.22.04-.04.06-.08.06-.1v-.12zm-.58 1.01h-.32v.32h.31v-.32zm0 8.01h-.32v.34h.31v-.33zm.24-12.95h-.32v.35h.32v-.36zm.19-5.13h-.32v.35h.31v-.35zm-.32 12.36v.26l.24-.26h-.24zm.46-10.89c-.15.22-.25.39-.32.5s-.1.16-.1.13c0 .17.08.26.24.26.09 0 .23-.09.42-.26V27c0-.21-.08-.36-.24-.432zm.71 9.28c-.69 0-1.02.21-.98.63l.04.08c.24.2.57.3.99.3.19 0 .38-.03.54-.07.16-.05.32-.12.47-.23-.04-.48-.4-.72-1.08-.72zm-.28 2.96l-.44.46.24.24h.04c.08 0 .2-.08.36-.24l.04-.1c0-.04-.08-.16-.24-.36zm.2-4l-.4.46h.16c.26 0 .42-.08.5-.24l-.26-.22zm.03-3.96c-.05-.04-.09-.06-.11-.06h-.12l.2.44.26-.2-.23-.18zm-.03 15.77l-.2.19.2.26.26-.26-.26-.2zm.89-6.46l-.24-.3c-.11-.11-.2-.16-.28-.16-.25 0-.38.1-.38.32 0 .18.09.29.26.33l.2.04c.25 0 .39-.08.43-.24zm-.64 2.22l-.26.2c.21.17.34.26.38.26h.08l.04-.08c0-.06-.08-.18-.24-.38zm.63 1.79l-.24-.04c-.19 0-.32.08-.4.26.2.15.31.23.32.23l.12-.04c.16-.16.24-.27.24-.34l-.04-.07zm.26-16.52c-.23 0-.38.08-.46.24l.45.45.44-.46c-.08-.16-.22-.24-.43-.24zm.19 3.77c-.21 0-.37.09-.46.26.01 0 .04.02.09.07l.16.15c.06.05.12.1.19.14.07.05.13.07.18.07h.08c.17-.21.26-.33.26-.36 0-.23-.16-.34-.49-.34zm.12 6.24c-.18 0-.28.08-.32.23l.19.24h.08c.04 0 .16-.08.36-.24-.04-.16-.14-.24-.31-.24zm.77 2.68h-.08c-.25 0-.38.12-.38.36v.08h.26c.16-.16.24-.27.24-.32l-.04-.12zm.9-7.77l.24.2.22-.2h-.46zm.46 1.99l-.22.46h.04c.05 0 .11-.02.17-.06.06-.04.14-.09.25-.16l-.24-.24zm22.14 5.99c0 .1.04.27.12.48.08.21.11.38.11.48 0 .04 0 .09-.01.15s0 .13.03.21c-.25 1.49-.58 2.76-.99 3.82-.4 1.06-.86 1.92-1.36 2.57-.74.89-1.63 1.52-2.65 1.89s-2.28.53-3.77.48c-1.29.05-2.43-.07-3.42-.35-1-.29-1.84-.65-2.55-1.08-.43-.35-.84-.77-1.25-1.29-.41-.51-.76-1.08-1.06-1.72-.32-.64-.58-1.26-.77-1.88-.2-.62-.33-1.18-.41-1.7-.15-2.97-.23-5.19-.24-6.66s-.06-2.25-.14-2.34c.04.01.08-.6.12-1.82s.15-3.13.34-5.72c.06-.88.21-1.62.44-2.22.23-.6.58-1.15 1.04-1.64.23-.74.57-1.38 1.05-1.91.47-.53 1.14-.97 2.03-1.32 1.32-.61 2.85-.91 4.57-.91 1.57 0 2.95.23 4.15.69s2.21 1.21 3.03 2.23l-.06.16s-.02.09-.02.16c0 .09.04.2.13.33s.18.25.28.39c.1.13.21.26.32.38.11.12.18.22.2.3.11.34.21.75.3 1.22.1.47.18 1.01.26 1.62.12 1.44.23 2.83.32 4.15.09 1.32.17 2.61.22 3.85l-.02 6.54c-.25.12-.38.27-.38.44zm-16.7-.36h-.32v.31h.32v-.32zm.34-1.44c-.23 0-.38.08-.46.24l.26.22h.15c.23 0 .38-.07.43-.22-.04-.16-.17-.24-.4-.24zm.08-3.88l-.08.04.19.42.2-.2c-.17-.17-.28-.26-.32-.26zm1.43-4.47c-.17.04-.26.15-.26.33 0 .14.08.24.26.32l.2-.24v-.04c0-.02-.07-.15-.2-.38zm.12 6.76h-.34v.31h.34v-.32zm.5-9.31c-.05-.04-.09-.06-.11-.06l-.12.04.24.41.22-.21c-.11-.08-.19-.14-.23-.18zm.01 12.44h-.24l.24.2v-.2zm.85-11.61c-.25.04-.53.22-.85.54v.12c.03-.07.1-.12.19-.16.1-.04.19-.08.29-.11s.19-.07.26-.12c.08-.05.11-.11.11-.19v-.08zm.42 15.03c-.12-.16-.32-.24-.61-.24s-.44.13-.44.4c0 .18.11.28.32.28h.53c.16-.2.24-.32.24-.36l-.04-.08zm-.42-5.17h-.08c-.24 0-.36.12-.36.36v.1h.23c.13-.23.19-.35.19-.36v-.08zM158.4 22c-.15-.16-.327-.24-.54-.24-.227 0-.406.08-.54.24.08.17.22.26.416.26.46 0 .68-.02.65-.06V22zm.12 16.66h-.34V39h.34v-.32zm-.12-3.54v.198l.2-.194h-.2zm6.51-2.11c-.05-.04-.106-.06-.17-.06-.08 0-.18.03-.3.08-.12.06-.226.08-.32.08-.236 0-.355-.14-.355-.44 0-.01.063-.14.2-.37-.137-.22-.19-.45-.18-.673 0-.12.02-.27.06-.45s.083-.355.14-.535c.05-.18.1-.35.15-.514.04-.17.064-.3.064-.39l.22.22.19-.22-.2-.2-.22.2c-.29-.29-.45-.63-.46-1.013l.06-.38.08-.5c.03-.17.05-.34.08-.5l.06-.357c-.01-.29-.09-.58-.24-.87-.14-.28-.33-.54-.57-.76-.23-.22-.49-.41-.77-.55-.28-.147-.56-.22-.84-.22-.66.026-1.15.44-1.45 1.23-.12.16-.28.827-.48 2.007v.04c0 .106.03.26.1.47.06.2.1.36.1.464 0 .24-.13.41-.4.53.27.22.4.51.4.85 0 .14-.03.35-.08.61-.05.27-.08.48-.08.64 0 .27.05.48.16.66-.16.08-.24.17-.24.27 0 .06.05.15.14.26.09.1.14.2.14.28 0 .1-.08.2-.24.27.17.32.24.74.2 1.27-.04.62-.04 1.05 0 1.29-.16.14-.24.31-.24.49 0 .14.04.33.12.56.08.22.12.39.12.49 0 .26-.13.47-.4.62-.19-.16-.33-.28-.44-.37-.1-.09-.19-.13-.26-.13h-.1c-.03 0-.06.01-.1.04v.22c.22.14.44.28.65.4.12 0 .2-.06.23-.16l.4.42v.23c0 .17-.07.3-.2.4.13.17.2.45.2.85v.85c-.16.22-.24.41-.24.55 0 .09.04.21.11.35.07.14.15.28.24.44.09.16.17.31.24.46.07.15.11.28.11.4l.02.18c.26.5.58.89.95 1.14.37.26.83.39 1.39.39h.2c.06 0 .13-.02.2-.04-.13-.23-.19-.42-.19-.58.01-.12.07-.27.18-.44l.35-.57c.13-.21.24-.43.36-.67.11-.24.18-.48.2-.71-.05-1.04-.08-1.84-.09-2.42-.01-.58-.06-1-.15-1.26.16-.12.24-.25.24-.4 0-.1-.03-.24-.1-.41-.07-.17-.1-.29-.1-.37 0-.16.05-.27.15-.34l-.2-.24V36c0-.27.07-.42.2-.46l-.2-.24c-.02-.08-.04-.16-.04-.24v-.3c.01-.557.11-.96.28-1.22.17-.26.43-.398.77-.41h.12c.05 0 .11.012.18.04-.07-.078-.12-.137-.17-.177zm-6.31-7.55v.22l.24-.22h-.24zm.66 16.08c-.07.04-.21-.023-.42-.2l-.24.46c.223.13.342.2.355.2h.08c.17-.183.26-.31.26-.374l-.04-.08zm-.34 3.54h-.32v.34h.32v-.335zm.254-12.642h-.34v.316h.335v-.31zm.314-7.615l-.235.2c.2.156.302.236.315.236l.12-.04v-.04c0-.07-.06-.19-.2-.36zm.86 20.395c-.08.04-.23-.03-.46-.22l.46.42v-.2zm.32-22.246h-.314v.34h.316V23zm1.076 23.62h-.34v.4h.34v-.34zm.2-25.96h-.34V21h.34v-.31zm.32 2.067c-.215.13-.434.27-.66.42.04.1.125.16.26.16-.01 0 .19-.14.6-.42-.04-.11-.11-.16-.2-.16zm.12 22.92c-.23 0-.4.08-.52.24l.2.22h.494c.2 0 .32-.07.36-.22-.114-.16-.294-.24-.532-.24zm.97 2.17h-.44l.44.23v-.23zm.63-22.95l-.2-.22.2.41v-.2zm.34 20.25H164v.34h.338v-.33zm.12-1.37l-.22.44 1.275-.44h-1.05zm1.05-20.39c-.04-.16-.12-.24-.24-.24-.05 0-.11.02-.18.07-.06.05-.13.1-.19.15l-.152.15s-.077.07-.09.07h.854v-.2zm0 4.51c-.104.02-.214-.02-.33-.12-.11-.11-.22-.21-.323-.32l-.2.2c.32.32.55.48.7.48h.08c.03 0 .06-.02.08-.04v-.2zm-.32 7.17h-.333v.31h.34V35zm1.1 5.6h-.32v.3h.32v-.3zm-.12 5.01l-.2.24.19.22.2-.22-.2-.24zm.65-20.16c-.07-.16-.18-.24-.34-.24-.17 0-.28.08-.32.24.093.14.212.22.36.22h.295v-.22zm-.22 1.71l-.24.22.233.2.22-.2-.22-.22zm0 12.26h-.24l.233.2v-.2zm.34 2.88h-.34v.34h.34v-.34zm.08-18.35l-.2.2c.2.16.3.24.32.24l.08-.04.04-.08c0-.06-.08-.16-.24-.32zm.32 5.25h-.32v.32h.32v-.32zm.77 5.05h-.24l.24.2v-.2zm.73-7.42h-.32v.32h.32v-.32zm.12 5.45l-.24.26c.106.06.18.11.22.14.04.03.07.05.1.05h.12v-.08c0-.01-.07-.14-.2-.38zm.415 3.87h-.66c.08.21.34.32.77.32.16 0 .27-.03.32-.08-.08-.16-.23-.24-.44-.24zm.32 3.34h-.32v.32h.32v-.32z" class="st0"/><g id="layer1_2_" class="st4"><path id="path3027_2_" d="M60 53.985c4.21-.088 4.682-.152 5.49-.75.584-.432.764-.973.768-2.283.002-1.83.37-2.83 1.62-4.393l.76-.95v-1.39c0-1.57.294-2.58 1.054-3.63 1.326-1.83 3.78-2.14 5.834-.74.96.65 1.04.67 1.31.35.17-.2.267-.16.8.36 1.61 1.57 4.354 1.99 8.346 1.28 2.645-.48 5.824-1.82 7.09-3.01 1.035-.97 1.463-1.86 1.64-3.43.237-2.06.743-2.91 2.15-3.57.624-.29.98-.35 2.2-.35 1.426 0 1.46-.01 1.6-.38.082-.21.148-1.44.15-2.72.006-2.66.11-3.28.74-4.35.246-.42.447-.93.447-1.13v-.37l5.9-.04 5.9-.04.64-2.24c.63-2.2.64-2.27.65-4.57.01-2.11-.03-2.46-.37-3.5-.21-.64-.46-1.21-.56-1.27-.49-.31-2.22.02-3.28.63-.4.23-9.05.39-9.05.17 0-.12-.35-.18-1.01-.18-.56 0-1.38-.1-1.83-.22-.71-.19-2.09-.2-10.27-.07-5.2.08-10.4.2-11.54.26l-2.09.1-.55 1.04-.82 1.56c-.47.89-1.31.87-2.18-.05-.81-.85-2.93-1.46-3.14-.9-.16.41-.1.69.11.61.11-.04.26-.02.34.04.07.07.39.2.7.3.6.2 2.31 1.82 2.72 2.59.25.47.23.51-.68 1.48-.29.3-.61.56-.72.56-.35 0-1.67.73-2.24 1.24-.63.55-1.76.91-3.39 1.06-1.93.18-3.3.66-3.51 1.22-.12.3-.24.34-.95.34-1.23 0-1.48.29-2.01 2.31-.87 3.3-1.65 5-4.02 8.72-2.69 4.21-3.83 7.72-3.98 12.19-.07 1.93-.02 2.61.24 4.15.35 2.01.64 2.76 1.34 3.34.72.6 1.61.66 7.6.54zM79.8 40.64c-1.5-.687-2.45-1.994-2.62-3.61-.12-1.16.135-2.16.873-3.4.814-1.375.918-1.44 1.447-.946.264.245.877.532 1.57.734l1.14.332-.1.8c-.077.624-.028 1.03.226 1.812.53 1.642 1.42 2.647 2.877 3.254.633.264 2.207.254 2.295-.013.03-.09-.365-.318-.877-.505-1.27-.463-1.78-.83-2.37-1.69-.48-.708-.5-.786-.49-2.092.02-1.13.1-1.606.52-2.846l.51-1.49 1.86.04c3.49.073 4.99.5 6.03 1.71 1.27 1.476 1.16 3.906-.23 5.297-.66.66-1.5 1.14-2.93 1.658-2.66.974-4.71 1.342-7.19 1.297-1.51-.028-1.98-.09-2.54-.342zm.305-16.337c0-1.148.037-2.05.082-2.005.043.042.14.976.213 2.072.074 1.097.182 2.127.242 2.29.107.294.105.294-.213.014-.31-.266-.33-.416-.33-2.37zm15.46.086l.046-2.28h.37c.36 0 .37.02.4 1.41.07 3.17.1 2.96-.4 3.06-.24.04-.44.08-.44.07l.05-2.28zM79.97 15.67c-.027-1.825-.004-2.05.217-2.05.164 0 .217.08.158.236-.05.13-.096 1.185-.1 2.347-.015 2.66-.234 2.23-.275-.534z"/></g><path d="M43.392 31.273h-1.684V18.605h1.684v5.483h1.356v-5.483h1.684v12.668h-1.684v-5.628h-1.356v5.628zm4.818-12.668h1.685v12.668H48.21V18.605zm3.455 0H54.2c1.736 0 2.134.87 2.134 2.172V23.8c0 1.067-.235 1.772-1.158 2.044.615 1.81 1.213 3.62 1.81 5.43H55.16c-.508-1.774-1.05-3.566-1.558-5.357h-.253v5.356h-1.69V18.605zm2.407 5.773c.452 0 .597-.217.597-.633V20.85c0-.436-.17-.634-.62-.634h-.71v4.162h.72zm5.964 5.302h2.17v1.593h-3.853V18.605h3.854v1.61h-2.17v3.874h1.88v1.55h-1.88v4.03zm3.8-11.075h2.46c1.793 0 2.245.85 2.245 2.226v8.22c0 1.41-.43 2.23-2.2 2.23h-2.5V18.61zM66.26 29.68c.454 0 .6-.217.6-.615V20.85c0-.436-.164-.634-.616-.634h-.724v9.464h.74zm-22.4 10.24h2.354v5.105c0 1.303-.524 2.263-2.353 2.263-1.82 0-2.33-.96-2.33-2.263V36.54c0-1.323.51-2.282 2.34-2.282 1.81 0 2.34.96 2.34 2.28v1.52h-1.67V36.52c0-.434-.18-.74-.67-.74-.48 0-.65.307-.65.74v8.488c0 .47.17.777.65.777.49 0 .67-.307.67-.777v-3.53h-.67V39.92zm5.675 5.104c0 .47.18.76.67.76.488 0 .65-.29.65-.76V34.438h1.684v10.604c0 1.267-.58 2.244-2.34 2.244-1.83 0-2.36-.94-2.36-2.244V34.438h1.68v10.586zm8.473-1.828c-.11-1.52-.146-3.22-.146-4.74v-4.018h1.52v12.668H57.79l-2.135-8.74c.09 1.482.145 3.148.145 4.74v4h-1.52V34.438h1.61l2.118 8.758zm5.997.417c0-3.493-2.986-2.172-2.986-5.99V36.52c0-1.304.56-2.263 2.33-2.263s2.33.96 2.33 2.262v1.53H64v-1.54c0-.44-.144-.74-.65-.74-.49 0-.65.31-.65.74v1.05c0 3 2.985 1.66 2.985 6v1.46c0 1.3-.56 2.24-2.334 2.24s-2.33-.94-2.33-2.24V43.3h1.68v1.72c0 .435.17.76.65.76.51 0 .66-.325.66-.76v-1.41z" class="st2"/><path d="M1.767 16.637h3.605c1.225 0 2.19 1.084 2.898 3.25.235.378.565 1.18.99 2.404l1.06 2.48c.188.33.354.5.495.5l.07-.07h.072l.283.07c.235-.2.353-.39.353-.56v-5.38c0-1.17.165-1.9.495-2.19.34-.33.813-.49 1.414-.49h2.12c1.132.12 1.697.64 1.697 1.56v2.62l.07.29-.07.29v.57l.07.21-.07.21.07 5.23v1.84l-.07.07.07.07v.4l-.07.57.07.78v2.26l-.07.43.07.36h-.07l.07.07v7.71l-.07 5.23c-.29.9-.85 1.35-1.7 1.35h-2.4c-1.34 0-2.23-1.2-2.69-3.6l-2.55-7.92L7.7 37h-.35c-.282 0-.423.095-.423.283l-.07 10.037c0 .742-.542 1.213-1.626 1.414H1.7C.568 48.6 0 48.06 0 47.104v-28.77c0-.8.377-1.343 1.13-1.626l.637-.07zM.99 26.957c.07.19.14.283.212.283l.07-.283-.07-.212h-.07c-.095 0-.142.07-.142.212zm0 3.534v.36h.212l.14-.14v-.07l-.14-.14H.99zm0 1.42v.14c.14-.03.235-.13.283-.28H1.13l-.14.14zm0 1.2v.07h.14v-.07H.99zm.07-14.28l.142 1.63h.14l.213-.21-.142-.42v-.07C1.79 19 2.685 18.62 4.1 18.62c.99-.2 1.48-.39 1.48-.565v-.07c0-.185-.57-.28-1.7-.28l-.85.07-.212-.07-.07.07h-.07l-.636-.07c-.66 0-.99.376-.99 1.13zm.142 15.77l-.07.29.353.14v-.21l-.212-.21h-.07zm-.07 4.24v.22l.21-.21h-.21zm.07.43l-.07.5c.187.03.282.1.282.21l.212-.07c0-.36-.094-.57-.283-.63h-.14zm0-13.99l.283.22h.212l-.14-.42h-.143l-.212.22zm.07-.63v.21l.212-.07v-.14h-.212zm.142 11.31l-.14.5v.14c.246 0 .388-.21.423-.63h-.283zM1.344 26v.14h.14V26h-.14zm.14 12l-.142.21v.213l.07-.07h.072l.424.493.07-.07v-.07c-.034-.47-.2-.705-.494-.705zm2.97-19.933l.07.073v.07l-.424.14H2.97c-.13 0-.626.26-1.485.777l-.07-.07v-.07c.86-.565 1.377-.848 1.554-.848h.77l.7-.07zm-3.04 9.615v.212l.142.14.353-.07v-.425l-.5.14zm0 2.26V30h.142v-.07h-.142zm0 10.39v.07c.224 0 .39.05.495.144h.07v-.07l-.29-.28h-.14l-.14.14zm.07-11.8v.28c.14-.035.235-.13.283-.283h-.283zm0 5.23v.21h.212v-.07l-.14-.14h-.072zm.07-.638l.354.352.142-.14-.07-.493h-.142l-.283.28zm0 4.17l.07.21h.072l.142-.14-.07-.356-.213.283zm.07-4.808v.356l.284-.282v-.07l-.14-.14-.143.143zm.072-5.44v.283h.07l.142-.14-.14-.15h-.072zm0 4.24v.21h.142v-.07l-.142-.14zm0 .566v.07l.142.284h.212v-.07l-.07-.355-.284.07zm0 10.18v.14h.07v-.14h-.07zM2.19 24c0 .33-.14.496-.422.496v.14l.07.07v.07c.19 0 .284-.116.284-.352.19 0 .284-.047.284-.14v-.143L2.264 24h-.07zm-.422 17.6v.283l.565-.14h.354c.094 0 .14.07.14.21h.214v-.14c-.26-.33-.49-.494-.7-.494h-.07c-.21.18-.38.28-.49.28zm.07-6.29v.07l.142.14.353-.07v-.14l-.14-.142H1.98l-.143.144zm.142-.85v.214h.07l.142-.14v-.07H1.98zm.07 6.435v.14l.142.144h.07l.142-.14-.142-.14H2.05zm.07-13.642v.14l.142.15.142-.14-.142-.143h-.14zm0 2.12v.15h.072l.212-.212v-.14h-.07l-.213.21zm0 6.65v.07l.072.497h.212l.212-.21v-.28l-.495-.07zm.566-9.752l-.354.5.07.07h.072c.14 0 .212-.14.212-.42h.14l-.14-.14zm-.283-1.06v.14c.14 0 .212.15.212.43l.283-.21-.354-.28v-.07h-.14zm0 6.36v.29h.07l.142-.14v-.14h-.212zm0 1.7v.14l.212.43.142-.14c-.106-.28-.2-.42-.283-.42h-.07zm.07-2.76v.29h.142l.142-.14v-.15h-.283zm0 8.84h.07l.284-.28-.14-.14c-.143.05-.213.19-.213.43zm.07-15.48v.36h.143l.07-.35v-.07l-.212.07zm0 5.8v.07l.072.64h.212v-.07l-.07-.29.07-.21-.283-.14zm0 1.42v.22h.143l.14-.14V31h-.07l-.212.07zm.072-2.75l.142.14h.283v-.07l-.212-.21h-.07l-.143.14zm.07-.42v.14h.072l.212-.07-.08-.21h-.07l-.14.14zm.142 6.65l-.14.21c.022.1.14.19.353.29l.07-.07v-.21c0-.07-.094-.14-.283-.21zm-.14 3.68v.14h.14v-.15h-.14zm0 2.19v.07c.282-.1.423-.19.423-.28h-.14c-.19.07-.284.14-.284.21zm.07-3.75v.07l.14.14.072-.07v-.14h-.22zm0 .5v.28h.283v-.14l-.142-.14h-.14zm0 2.55l.14.36.213-.07v-.14l-.14-.14h-.213zm0 2.4v.14l.14.29c.213-.09.33-.18.355-.28V42h-.07l-.425.14zm.14-14.91v.21l.143-.14-.07-.07h-.072zm.143 8.41v.14h.07v-.15h-.07zm0 1.98v.14l.212.22.07-.07v-.15l-.14-.14H3.04zm0 3.32h.14v-.14l-.14.14zm.07-18.81v.29l.142-.14v-.14H3.11zm.07 9.33l-.07.71h.07c.213-.09.33-.19.355-.28v-.07l-.072-.35H3.18zm0-2.61h.072l.283-.07v-.36h-.142c-.095 0-.165.14-.212.42zm0 .57v.36h.284l-.07-.35H3.18zm0 8.98v.28h.355v-.07l-.07-.21H3.18zm.07-15.69v.14l.284.28h.212v-.21l-.212-.21H3.25zm0 2.12v.14l.142.14.142-.14-.142-.14h-.14zm.143-3.18l-.07.07v.14h.07l.142-.14-.07-.07h-.072zm0 3.54v.14h-.07l.07.21h.07l.213-.28-.07-.07h-.213zm-.07 8.98v.21l.21-.07v-.15h-.21zm.07 1.77l-.07.07v.43h.07l.212-.07V36l-.212-.07zM3.888 43c0 .286-.095.427-.283.427l-.212.28v.21h.07c.19-.29.4-.43.637-.43l.07-.426-.07-.07h-.212zm-.425-19.7v.14h.212v-.14h-.212zm.07 3.25v.144l.072.07v.07l-.142.14v.285c.236-.06.354-.13.354-.21v-.14l-.07-.08v-.07c.235 0 .423-.12.564-.36v-.14c-.51.08-.77.18-.77.28zm0 4.67v.21l.142-.14-.07-.07h-.07zm0 11.66v.07h.142v-.21l-.14.14zm.072-12.017c.094.212.188.33.283.354h.07v-.142l-.212-.212h-.14zm0 3.747l.07.07h.142v-.21h-.07l-.142.14zm0 6.08v.21l.14-.14v-.07h-.14zm.14-12.865v.352h.284l.14-.14-.21-.212h-.22zm0 8.2l.143.14h.07l.142-.14-.212-.145-.142.143zm.072 1.06v.14l.14.14h.072v-.284h-.22zm0 .563v.07L4.1 38h.142v-.14l-.213-.21h-.22zm.07-7.777V30l.142.142h.14v-.283l-.15-.14-.14.14zm0 8.63l.142.43.21-.07v-.21c0-.1-.12-.18-.36-.21v.07zm.07-15.62L4.1 23h.07l.14-.14-.14-.142H4.1l-.142.14zm.072 1.91v.14l.14.15.21-.21-.07-.07h-.29zM4.1 40.6l-.07.353.07.07h.142v-.14l-.072-.072.07-.07v-.14H4.1zm0-18.308c.07.19.142.283.212.283l.354-.424v-.07h-.142l-.424.14v.08zm.14 9.825l-.07.282.212.07.142-.22-.142-.14h-.14zm.072.92l-.142.423c.188.094.283.235.283.424l-.142.14.08.214h.07l.14-.142v-.777l-.28-.29zm.14 4.523l-.07-.07H4.17l.283.28h.14l.213-.21v-.07l-.07-.354c-.083 0-.177.14-.283.424zm-.21-8.34v.21h.14v-.21h-.14zm.07-3.677v.142c0 .07.094.14.283.212v.142h.212c0-.15.094-.29.283-.43l-.283-.21c-.107.09-.272.14-.495.14zm0 13.218v.22l.142.14c.424-.02.636-.11.636-.28l-.778-.07zm.07-6.15v.29c.188-.07.283-.14.283-.21l-.07-.07H4.38zm.354 2.9v.22l.354.5v.07c-.142 0-.212.1-.212.29-.294 0-.46.1-.495.29l.495.07.212-.07-.07-.35c.14 0 .21-.07.21-.21h.213v-.07c-.247-.25-.39-.48-.424-.71h-.29zm-.283-4.45v.21h.07l.142-.14-.07-.07h-.142zm.07.71l-.07.29.212-.21v-.07h-.14zm-.07 7.57v.21h.07l.142-.14v-.07h-.212zm.07 3.68l-.07.43.07-.07h.425l.283.5h.15v.07c.19-.07.29-.14.29-.21v-.28c0-.19-.38-.33-1.13-.42zm0-14.06v.21l.213-.07v-.14h-.212zm0 5.8v.29l.354-.07v-.21l-.14-.14h-.072l-.14.14zm.07-7.06v.14l.143-.14h-.142zm0 12.02v.21h.213v-.07l-.14-.14h-.072zm.072-8.41v.28h.142l.14-.14-.14-.14h-.142zm0 9.89l.212.07.07-.07c0 .2.095.34.284.42h.08l.14-.14v-.07l-.14-.21v-.07l.29-.35-.21-.21H5.3c-.082 0-.176.14-.282.42-.235 0-.353.07-.353.21zm0 2.4v.29l.142.14h.07l.142-.14c-.05-.19-.17-.28-.36-.28zm.07-13.43l.072.07c.235-.06.353-.13.353-.21v-.07l-.212-.21c-.14.05-.212.19-.212.43zm.072-7.98v.07h.14l.143-.14v-.14h-.07l-.213.22zm.07-3.6l.07.21c.19-.07.284-.14.284-.21h-.35zm0 9.12v.14l.142.14.07-.07v-.22h-.22zm0 13.92l.142.15v-.14h-.15zm.07-11.16l.143.14.14-.14-.14-.14-.142.14zm.073-8.13v.21h.21v-.15l.07-.07-.07-.07-.21.07zm0 7.14l.07.21h.07l.14-.14v-.21h-.14l-.14.14zm.28 2.62c0 .24-.05.36-.14.36h-.14v.07l.21.22h.07c.09 0 .14-.07.14-.21h.28l.07.07h.072l-.07.07v.29h.282v-.14c0-.47-.26-.71-.78-.71zm-.28 2.97v.14l.14.15h.07v-.28h-.21zm.07-6.93v.22l.21-.21h-.21zm0 5.8v.28l.21.07.35-.49h-.07l-.497.14zm.14 8.62l-.14.28c.18.05.28.14.28.29h.07l.14-.15-.14-.21.07-.21h-.28zm-.07-15.48v.07l.21-.07v-.14H5.3l-.14.14zm0 6.01v.35h.35v-.22l-.14-.14h-.21zm.28-1.77c0 .14-.07.21-.21.21v.14l.07.07v.07l.42-.14v-.35h-.28zm-.21 6.57v.28c.28 0 .42-.14.42-.42l-.07-.07h-.14l-.214.21zM5.3 27.7v.355l.21-.07v-.28H5.3zm0 10.886v.495h.07c.14-.03.21-.22.21-.56v-.07h-.14l-.14.14zm1.41-17.05l.142.145-.778.28-.286-.21c-.282.11-.423.27-.423.5h.07l.284-.07.63.14c.28 0 .56-.21.85-.64l-.07-.35v-.22c-.33 0-.5.15-.5.43h.07zm-1.273-.07l-.07.356.283-.28-.07-.07h-.14zm0 13.997l-.07.07v.147l.14.14h.143l.14-.14c0-.084-.117-.155-.353-.214zm-.07 10.04v.14l.14-.14h-.14zm.07-20.99v.14l.07.36.213-.07v-.22c0-.07-.094-.14-.283-.21zm0 2.265v.143h.07v-.14h-.07zm0 2.05v.21h.495l.212-.28H6l-.566.07zm0 1.98l.142.14.07-.07v-.21h-.07l-.15.14zm0 4.24v.214l.495-.07h.283v-.426l-.356-.21h-.14l-.29.49zm.283-16.98l-.14.497h.21l.213-.21v-.07l-.212-.213h-.07zm-.14 16.11v.14h.14v-.14h-.14zm0 4.807l.21.15v-.28h-.07l-.14.14zm0 1.42v.07l.14.15v-.21h-.14zm0 1.98l.07.21h.14l.072-.28H5.72l-.07.07h-.07zm.07-16.96v.14l.14-.14h-.14zm0 2.12v.15l.14.14.072-.07v-.07l-.142-.14h-.07zm0 2.41v.36l.283.14h.07l.283-.28c-.187 0-.35-.07-.493-.21h-.14zm.07 7.35v.07c.07.19.142.29.212.29l.14-.21v-.14H5.72zm0 2.62v.22h.212v-.07l-.142-.15h-.07zm.142-20.14v.21l.14-.14-.07-.07h-.07zm.14 4.88v.14h.213l-.144-.143H6zm.072 3.46v.285h.14l.14-.14v-.15h-.28zm.704 2.83v.14h.14v.143c-.15 0-.34.14-.563.424-.187 0-.282.047-.282.14v.2h.14l.283-.213.283.21h.07v-.07l-.07-.07v-.08c.37-.4.56-.71.56-.92l-.07-.07h-.35l-.14.14zm-.706 3.322l.14.14.355-.07-.07-.21h-.28l-.14.14zm0 1.27v.21l.21-.213h-.21zm.07-8.34v.07l.282.35.07-.07v-.14c0-.104-.118-.175-.354-.21zm.07 5.3c0 .28.188.423.565.423l.21.21h.284l-.14-.564-.35.07-.21-.28h-.21l-.14.14zm0 .635v.21h.212v-.21h-.21zm0 1.555h.14v-.14l-.14.14zm.07-3.89v.427l.142.14h.07v-.57h-.21zm.566 2.9l-.07-.07v-.07l-.494.07v.07c0 .098.26.168.777.215l.43-.07v-.22l-.14-.14h-.21l-.28.21zm-.493-3.18l.142.144h.21v-.28H6.5l-.142.14zm0 4.95l.07.21.284-.21v-.07H6.5l-.07.07h-.07zm.07-14.56v.28l.284-.07v-.07l-.14-.14h-.14zm.07 7.28l-.07.353.284-.21v-.145H6.5zm.073-4.524v.14h.14v-.14h-.14zm0 2.474l.07.21.212-.07v-.14h-.28zm.07 8.27l.354.494.07-.07h.566l.07-.5h-.07l-.353.07c0-.23-.07-.35-.213-.35-.082 0-.224.12-.424.35zm.07-9.825v.284l.213-.07v-.214h-.21zm0 4.666v.14l.143.143h.07c.15-.04.22-.23.22-.57v-.29h-.08c-.23.12-.35.3-.35.56zm.072 6.008v.144l.212.21.142-.14-.213-.214h-.14zm.07-8.34l.14.21.213-.07v-.28H6.99l-.14.143zm0 .78l.07.355c.188-.07.283-.15.283-.22v-.14l-.142-.14h-.07l-.14.14zm.07 2.404v.21h.213v-.21H6.92zm.142-6.86l-.07.07v.08c.034.164.176.305.423.423h.142v-.14c0-.084-.167-.225-.497-.426zm-.07 2.48V26h.212v-.21l-.213-.07zm.07-1.485v.21h.14v-.07l-.14-.14zm0 2.12v.14h.14v-.14h-.14zm.14 3.74c0 .14.072.21.213.21l.07.07v.07c.19-.07.284-.14.284-.21v-.15c-.14 0-.21-.07-.21-.21-.24.055-.36.125-.36.21zm1.133.21v.35c-.07.23-.235.35-.494.35l-.07.07v.424c.24 0 .36.05.36.14v.07c-.56.23-.87.39-.92.5v.14c0 .09.07.14.21.14v.14h-.14v.07l.07.36.43-.14v-.07h.15l-.07.49.14.14c0 .19-.11.28-.35.28v.28l.36.07v-.07l.14-.14h.15l.14.14v.07c-.16.33-.35.5-.56.5v.35c.13 0 .32.14.57.42l.36-.07.43.14.14-.43v-.07c-.11-.13-.18-.36-.21-.71h-.29v.42c-.02.14-.21.21-.56.21v-.22c.12 0 .26-.14.42-.42v-.07l-.14-.22.07-.07h.14c.38.13.57.3.57.5h.35c.02-.18.1-.28.21-.28v.36c-.33 0-.49.14-.49.42l.21.21-.07.07v.07l.21.28h.2l.14-.14v-.21c-.14 0-.21-.05-.21-.14v-.5H10l.43.35.14-.15v-.07h-.14v-.14c.1 0 .15-.07.15-.22h.14c.35.06.54.15.56.28l-.07.5.21.07c.27 0 .434-.23.493-.71l.07.07h.283v-.23l-.14-.21v-.43l-.357-.07h-.07c0 .19-.05.28-.14.28l-.07-.07v-.07l.35-.42c.28.19.49.28.63.28h.14l.07-.28-.35-.35.14-.14v-.14c0-.09-.09-.14-.28-.14v-.07c0-.28.16-.42.49-.42l.07-.71v-.07c-.33 0-.5.07-.5.21h-.07c-.12-.13-.43-.22-.92-.28l-.07-.07h-.36v-.07l.07-.07-.07-.28h-.28v.14l.14.14-.07.07v.07l.14.36h-.07l-.29-.28v-.64h-.21c-.1 0-.14.12-.14.36H9.9v-.14h-.355l-.212-.15H9.12l-.07.43c-.14-.04-.212-.23-.212-.57l-.283-.21h-.21zm-1.055-9v.14h.142l.14-.14v-.14h-.14l-.142.14zm.354 3.11c0 .12-.094.28-.283.49h.29l.21-.14.5.422h.14v-.14c0-.39-.16-.603-.49-.638l-.07-.07-.28.07zm-.284 2.76v.14l.142.14.142-.146v-.14H7.35zm.072 1.62v.07l.424-.14.354.07.07-.07v-.215c0-.09-.14-.16-.423-.21-.284.07-.425.24-.425.5zm.14-6.646v.21l.213.21.142-.14-.283-.29h-.07zm0 4.38v.07l.072.28-.07.21h.07l.424-.57h-.495zm0 2.89v.22h.213v-.21h-.212zm.072-4.02v.21h.14l.284-.28h-.07l-.354.07zm.07 9.76v.29l.354.07h.07v-.07c-.07-.19-.14-.29-.21-.29h-.213zm.142-3.11h.142v.15l-.142.14h-.07v-.07l.07-.22zm0-2.05v.07l.354.07v-.42l-.142-.14c-.14.05-.212.19-.212.42zm.07 5.73v.21h.213l-.22-.21zm.07-8.55l.07.07h.072l.212-.07v-.14l-.07-.07v-.07c-.153.05-.248.14-.283.28zm.072 1.76v.14h.07v-.14h-.07zm.07-6.93v.14h.142v-.14h-.142zm.07 1.69l.213.35.22-.21v-.07l-.35-.07H8.2zm.072 9.05h.07l.213.21-.07.07H8.27v-.28zm.07-7.35v.28h.284v-.07l-.07-.21H8.34zm.707 3.32c-.283.38-.52.56-.707.56v.14c.035.28.106.42.212.42.188 0 .283-.17.283-.5l.212-.14h.07l-.07.07v.07l.142.14h.14l.92-.63-.08-.07v-.08l-.36.07-.21-.07-.43.07-.07-.07h-.07zm-.707 6.78v.14l.142.21.283-.07v-.07l-.212-.21H8.34zm.425-8.84v.42c-.236 0-.354.05-.354.14v.07l.5-.07.21.21.36-.43-.14-.14-.35.07v-.29h-.21zm-.354.85v.14h.15v-.14h-.15zm.08.63v.28c.19-.07.29-.14.29-.21l-.07-.07h-.22zm0 8.55v.08h.29v-.21h-.14l-.14.14zm.07-5.3h.14v.07h-.14v-.07zm.07-6.57V25l.21.29.07-.07v-.07l-.28-.284zM8.7 30v.21l.353-.07V30H8.7zm.07-3.816v.283h.212l.14-.14v-.143H8.77zm.14 9.543v.14l.07.072v.07l.283-.07-.212-.22h-.14zm.21-8.058l-.07.07v.49l.14.21.214-.07-.07-.36.142-.14c0-.11-.118-.18-.354-.21zm-.07 2.61v.14h.28v-.14h-.28zm.07-4.95v.14h.07l.14-.14h-.21zM9.475 36l.07.212-.353.353v.14l.14.213-.14.143.14.29-.07.43v.07h.07l.426-.56v-.07c-.19 0-.283-.07-.283-.21v-.07c0-.19.356-.31 1.06-.35 0-.14-.256-.42-.774-.84h-.07c-.12 0-.19.09-.21.28zm0-8.765v.21h.07l.142-.14-.07-.07H9.47zm.14 11.1l-.07.35v.14h.07l.213-.07v-.28l-.14-.14h-.072zm.072-10.25v.07l.283.282h.14v-.14l-.07-.497h-.07l-.285.283zm.14 8.834l-.07.07.284.92.35-.21-.07-.64-.07.07h-.14l-.28-.21zm0-10.18h.213v-.22l-.214.21zM9.9 30.2v.285h.07l.14-.14V30.2h-.214zm.07-2.613v.07h.14c0-.128.07-.27.21-.423l-.07-.07c-.186.046-.28.187-.28.423zm.14 1.484l-.14.22.352.35.214-.14c.47.08.707.29.707.64l.353-.07c0-.26-.165-.45-.495-.56l.07-.35-.07-.07h-.35l-.42.07-.21-.07zm-.14 6.51v.21h.21v-.07l-.14-.14h-.074zm.21 2.83l-.214.78c.177.41.318.63.424.64l.144-.14v-.07l-.354-.35v-.07l.35-.28c0-.25-.118-.42-.354-.49zm0-11.8l-.07.29.35.07.144-.21-.283-.14h-.14zm0 7.42h.07l.21.22h-.07l-.21-.07v-.14zm0 1.28l.07.07h.14l.142-.14v-.07l-.142-.14-.21.29zm.28-2.12l.073.07v.29h-.07l-.142-.14v-.07l.14-.14zm-.14 7v.14l.213.22.283-.07v-.21h-.354l-.07-.07h-.07zm0 1.56v.07l.14.14.144-.21-.142-.14-.14.15zm.07-13.57v.21h.213v-.21h-.212zm.07 7.78v.14l.144.14.07-.07-.07-.21h-.142zm.073-3.32h.212v.08l-.14.14-.072-.07v-.14zm.424 3.89c0 .1-.142.14-.424.14v.15c0 .1.142.19.424.29l.424.42c0-.24.05-.35.15-.35l-.07-.21h-.07l-.07.07h-.07c-.1-.33-.2-.49-.28-.49zm-.424.64v.21h.142v-.21h-.142zm.353.21v.57l-.07.07-.213.07v.07c.07.19.188.33.354.43h.07l.142-.14v-.21h-.15v-.07l.14-.43-.07-.35h-.22zm-.282 2.12l.14.14.072-.07v-.07h-.212zm.14-12.23v.15l.143.14h.07l.496-.07v-.28H11.1l-.354.07zm0 8.34l.072.07h.07l.072-.07v-.14h-.07l-.145.14zm.07-7.63v.14c0 .25.095.41.284.5h.14c-.037-.47-.107-.7-.213-.7l-.213.07zm.426 2.48l-.07-.07h-.212l-.142.14.142.14h.07l.212-.14.28.15.212-.07-.283-.29-.21.14zm-.424 1.84h.142l.14.14v.07h-.07l-.212-.07v-.14zm.07 7.49v.14l.142.14.354-.07-.28-.28-.21.07zm.072 1.7v.07h.565v-.14l-.14-.14c-.283.05-.424.12-.424.21zm.14-10.74v.22h.213v-.21h-.21zm.072 8.34v.07l.14.36.21-.07v-.15c0-.1-.118-.17-.35-.21zm.28-7.56l.212.43v.15h-.212l-.21-.21v-.14l.21-.21zm-.21 7.28v.15h.14v-.14h-.14zm0 1.42v.35l.21-.21-.14-.14h-.07zm.07-2.26v.14h.14v-.14h-.14zm0 4.31v.21h.07l.21-.07v-.14l-.14-.14-.142.14zm.07-13.93c0 .25.093.41.282.5l.142-.42-.072-.07h-.353zm.14 4.45h.07l.07.29h-.28v-.14l.14-.14zm0-6l.424.07c0-.25-.07-.39-.212-.42h-.07c-.107 0-.178.12-.213.36h.07zm-.07.85v.15l.14.42h.143v-.5l-.07-.07v-.07l-.213.07zm0 8.06l.14.21.566-.14v-.21l-.14-.14h-.073c-.247 0-.412.09-.494.28zm0 .5v.07l.14.14.143-.21v-.14h-.142l-.14.14zm0 4.81v.14l.14.15c.178-.19.32-.28.425-.28l.212-.28v-.07l-.07-.07v-.07c-.226 0-.344.17-.355.5h-.353zm.07-11.8v.14l.14.22V30l.355.07V30c0-.41-.118-.67-.354-.78h-.14zm0 13.5v.07l.07.21.212-.07v-.22h-.282zm.142-5.23l-.07.28.14.21c.213-.09.33-.19.355-.28v-.21l-.425-.07v.07zm-.07 4.17v.28h.07l.142-.14-.142-.14h-.07zm.07-2.33v.22h.07l.142-.14-.07-.07h-.142zm.424-6.43v.07l-.143.15-.14-.14.07-.07h.212zm0 4.95l.07.36h-.354c.035.28.106.43.212.43l.212-.14-.07-.21h.07l.212.14h.07l.142-.14v-.14c-.188-.14-.283-.28-.283-.42l-.284.14zm-.213 7.5l-.07.07c.07.19.14.29.212.29h.07l.14-.14v-.07c0-.1-.12-.18-.354-.21v.07zm0-10.25v.07l.142.15h.07l.212-.21v-.21h-.213l-.213.21zm.282 8.49l-.14.21v.07c.233.01.352.08.352.21v.07h-.143l-.354-.1v.14l.213.21h.14l.355-.07-.07-.28.07-.28-.423-.22zm-.213-12.87v.43l.212-.21-.07-.21h-.143zm0 9.12v.07c.036.28.106.43.212.43h.14l.14-.14v-.21l-.423-.14h-.07zm.142-13v.2l.14-.14v-.07h-.14zm.07 15.48l-.07.07v.14l.14.14h.142l.07-.28-.283-.07zm-.07 4.52V47h.21v-.29l-.212.07zm.07-19.44v.21h.07l.142-.14v-.07h-.213zm.07-.99v.21h.212v-.07l-.14-.14h-.072zm2.403 3.96l-.14.42h.07l.494.63h.22v.14l-.49.28h-.07v-.14h-.35v.07l.29.57-.49.14c-.29 0-.57-.19-.84-.57l.07-.35h-.29c-.09 0-.14.15-.14.43l-.21.21c.06.47.3.71.71.71v.1c-.37 0-.56.19-.56.57-.17.14-.38.24-.64.28v.07c0 .1.24.19.71.29v.14h-.42v.29c.37.03.56.17.56.43.42.17.64.47.64.92l.15.14-.07.07h-.07c-.06-.23-.13-.35-.21-.35h-.15c0 .31-.28.47-.85.5v.07c.1.17.24.28.43.35.03-.18.1-.28.22-.28h.14c0 .24.17.36.5.36v.07l-.14.14v.22l.21.07.14-.14.07.21h.21l.21-.21-.21-.21.15-.14.28.28v.07c-.14.14-.21.31-.21.5l-.35-.07-.07.07v.07l.35.43c.19 0 .28-.16.28-.49l.36.07.21-.14-.07-.07v-.14l.43-.07c0 .15.05.22.14.22v.14l-.35-.07c-.23.21-.35.49-.35.85l.07.22-.07.07H15l-.07-.07v-.5h-.07c-.098 0-.145.12-.145.35l-.21.21.07.21.072-.07h.21V39c0 .34-.21.58-.635.71 0 .14-.093.21-.282.21l-.213-.07v.07c0 .1-.118.14-.354.14v.14c.094.24.283.36.565.36v-.07l-.14-.35h.07c.437.33.767.5.99.5h.283v-.21c-.23-.03-.35-.1-.35-.21v-.07h.14l.07.07h.07l.07-.42h.08l.07.07h.07l-.07.36.21.287v.07l-.28.78c.06.24.13.35.21.35.21-.09.33-.19.36-.28v-.15l-.07-.07v-.07l.29-.21v-.35c-.19 0-.33-.1-.42-.28l.07-.495-.07-.21h.07l.29.21.64-.07.07-.36c-.25 0-.44-.07-.57-.21H16l-.07.07h-.07v-.07l.07-.22h-.21V39h-.146c0-.19-.095-.283-.283-.283v-.07c.19-.244.28-.46.28-.633h.07l.07.07c.38-.163.57-.282.57-.353v-.14l-.14-.14c-.13 0-.29-.14-.49-.42v-.07l.07-.07.21-.07c0-.22.05-.39.14-.49v-.28c-.1-.1-.22-.43-.35-.99h-.14l-.07.07h-.07l-.07-.07v-.07l.07-.07h.42v.14h.07c.25 0 .39-.07.43-.21v-.14l-.71-.64h-.07l-.14.15v.07l.14.21-.07.08h-.07l-.44-.22v-.15c.13 0 .29-.12.5-.35.14 0 .21-.09.21-.28.33-.14.5-.35.5-.63v-.22c0-.26-.19-.47-.56-.64V32l.07-.286-.21-.283.07-.35V31c-.38-.178-.56-.414-.56-.708h-.35zm-2.33-1.84v.21l.07.07v.07l.282-.07v-.14l-.15-.15h-.21zm0 12.94v.29h.07l.14-.14-.14-.14h-.07zm0 4.24v.22l.14-.14-.07-.07h-.07zm.07-19.72v.15l.14-.15h-.14zm0 2.05l.07.36.07-.07h.07l.355.43.14-.14v-.14c0-.09-.14-.19-.424-.28l-.07-.21-.213.07zm0 3.04v.22h.07c.14-.1.33-.15.565-.15v-.21l-.143-.14c-.25 0-.42.09-.5.28zm.07-5.79v.14h.14v-.14h-.14zm0 1.84v.14h.14v-.14h-.14zm0 2.83V30l.07.21h.142l.14-.14-.14-.14h-.22zm0 5.02V35l.494.42-.07.426H13l.285-.283v-.22l-.637-.423h-.213zm0 .42v.36h.282l-.07-.35h-.22zm0 2.05v.07l.14-.14v-.07l-.14.14zm.07 5.73v.07c.142.24.283.36.424.36l.22-.07c-.03-.13-.15-.25-.35-.36h-.28zm0 3.96v.21l.283.07v-.14l-.14-.14h-.142zm.07-6.57v.28h.213v-.29h-.21zm.07-14.07v.15h.14v-.15h-.14zm0 11.95v.14l.14.14.144-.14v-.14h-.28zm0 7.77v.28l.213.29.213-.07v-.07c0-.25-.07-.39-.213-.42h-.212zm.07-16.61v.07l.285.57c.13 0 .27.07.423.21l.212-.21V30c-.33-.177-.495-.39-.495-.636h-.283l-.14.14zm0 14.56v.14h.143v-.14h-.14zm.07-23.32v.14h.073l.143-.14v-.15h-.07l-.144.14zm0 6.36v.35h.356v-.28l-.354-.07zm0 10.46v.07h.144v-.21l-.14.14zm0 3.89v.21h.073l.143-.14v-.07h-.214zm.073 4.17v.21h.213l.14-.14v-.07l-.14-.14h-.07l-.143.14zm.07-27.28v.21h.143c.27-.33.505-.49.706-.49.19 0 .28-.04.28-.14v-.07h-.85c-.19.07-.28.24-.28.5zm0 7.49v.21h.073l.14-.14v-.07h-.21zm0 15.34l.073.07h.282v-.07l-.072-.22h-.07l-.213.21zm0 .77v.15c.108.28.296.42.567.42l.07.36.283-.21v-.22c-.153 0-.39-.16-.707-.49h-.212zm.143-20.42l-.07.21c.034.28.08.42.14.42.19-.04.283-.18.283-.42v-.21h-.354zm.07 10.53l.142.21v.07h-.143l-.14-.14.14-.14zm-.14 6.64v.07l.352.36h.07l.142-.14v-.22l-.355-.07H13zm0 1.98l.07.22.21-.21h-.28zm0 6.86v.21c.187-.07.282-.14.282-.21v-.07h-.072L13 47.6zm.07-9.89v.14l.282.07v-.07l-.142-.14h-.142zm.07 1.56l-.07.07v.42h.07l.212-.21v-.22l-.213-.07zm0-10.96l.07.21h.425c.094 0 .142.1.142.29h.283c0-.22.047-.39.14-.49 0-.07-.234-.17-.706-.29l-.354.28zm0 2.62v.1h.142v-.14h-.143zm0 3.25h.283v.15h-.14l-.143-.15zm0 10.04v.43l.283-.21-.212-.21h-.07zm.07-20.57v.14h.07v-.14h-.07zm0 .99V25l.14.14c0-.19.144-.28.426-.28v-.23h-.14l-.07.07-.07-.07h-.29zm0 .99v.21c0 .1.07.14.213.14.188-.04.283-.16.283-.35h-.5zm.07 5.66v.07h.143v-.07h-.14zm0 2.26h.07l.144.14-.07.07h-.07l-.07-.07v-.14zm0 3.67l.143.14v-.14h-.14zm0 6.5v.07c0 .1.07.15.214.15l.212-.07v-.36c-.29.03-.43.1-.43.21zm.07-17.39v.14h.214v-.21l-.21.07zm0 20.36v.22l.214-.07v-.17h-.21zm.143-5.72v.14l.07.36h-.14v.14l.142.14h.07c0-.14.094-.21.283-.21v-.21c-.08-.18-.22-.3-.42-.35zm.283-9.19l-.21-.07-.07.07v.2l.14.21c.42 0 .63-.19.63-.56h-.21l-.29.14zm.42 7.35l-.36-.07h-.14l-.22.5.07.07h.21l.28-.21h.42V39h-.14l-.15.14zm-.43-5.94l.14.14-.28.21-.07-.07v-.07l.21-.21zm-.21 4.8v.43h.14l.42-.28-.14-.28-.43.15zm.21-16.82l-.14.22v.29c.61-.15.92-.27.92-.35v-.07l-.78-.07zm-.14 9.8l.14.15h.07v-.07l-.15-.14h-.07zm.21-4.73l-.14.29v.07l.42-.07v-.29h-.28zm-.14 3.18c.33.62.49 1.02.49 1.21h.07l.21-.21v-.07c0-.16-.1-.33-.29-.49.19-.07.28-.14.28-.21v-.07l-.78-.14zm.21 4.88l.14.14v.14l-.14.15h-.07l-.15-.14v-.07l.21-.22zm0 .78v.07l-.14.14-.07-.07v-.07l.07-.07h.14zm-.21 9.19v.14h.14v-.14h-.14zm.3-10.6h.07v.15l-.14.14-.07-.07v-.07l.14-.15zm-.07-11.66v.14h.14v-.14h-.14zM14 24.3l-.07.355.07.07h.07l.63-.353v-.07H14zm-.07 3.183v.07h.14v-.07h-.14zm.14 8.34l.14.142v.07h-.14l-.15-.142.07-.07h.07zM14 20.74v.212c.235-.084.353-.225.353-.425h-.072l-.28.212zm0 4.523v.22l.14.14h.14l-.07-.35H14zm.07 13.29l.14.14c0-.09.07-.14.213-.14v-.07l-.143-.14-.21.21zm0 8.34l.14.14.355-.07v-.21l-.21-.07-.284.21zm.07-18.23l.14.36.285-.07.496.14-.07.07v.14c0 .2.29.32.85.36l.07-.07v-.352c-.28-.04-.42-.12-.42-.21l.14-.21v-.22h-.28c0 .14-.05.22-.14.22h-.07l-.7-.35h-.07l-.21.21zm0 12.87v.21l.708.57h.07l.496-.14v.358l.495-.14v-.21l-.22-.21h-.15l-.21.15-.14-.14h-.07l-.22.15h-.07v-.07l.21-.28v-.21h-.07l-.36.07-.21-.21h-.15l-.14.14zm.213 2.97c0 .13-.072.27-.213.43V45h.353l-.07-.07v-.07l.14-.21v-.15h-.21zm-.072-13.43l-.07.07v.07l.14.14h.08l.14-.14v-.07l-.28-.07zm-.07 4.318h.14l.15.28h-.07l-.21-.21v-.07zm0 7.28v.28l.21-.07v-.21h-.21zm0 3.11v.14h.14v-.14h-.14zm.07-.42v.14l.15.15.14-.14v-.07l-.07-.07v-.07l-.21.07zm.14-21.56v.2h.15v-.21h-.14zm0 8.91h.15v.07h-.14v-.07zm0 7.21h.07v.15h-.07v-.15zm.08-18.31v.14l.14-.14h-.14zm0 19.3v.07l.5.29h.14c-.11-.3-.23-.47-.35-.49h-.14l-.14.14zm.07-12.86v.07l.15.14h.07v-.21h-.21zm0 1.63v.14l.07.21h.07l.07-.07h.07c-.03-.14-.13-.23-.28-.28zm.07 14.28v.15l.15-.14h-.14zm.07 1.98l-.07.07v.15l.64.36c0 .14.05.21.14.21l.22-.35c-.24-.28-.55-.43-.92-.43zm0-18.44v.14c.08.19.25.29.5.29h.29v-.21l-.56-.42-.21.22zm.14 5.59l.15.14v.07l-.14.14-.14-.21.14-.14zm0 2.4l.07.07v.15l-.14.14-.07-.07v-.15l.14-.14zm-.07-15.33v.07l.14.14h.07l-.07-.21h-.14zm.07 6.51v.28l.43.07.07-.07v-.15l-.14-.14h-.35zm.07 9.97l.36.07v.15l-.14.14-.28-.28.07-.07zm-.07 7.57v.07l.43.14v.42c.24-.06.36-.13.36-.21l-.14-.42.07-.5h-.07l-.63.49zm.07-23.11v.07l.21.22h.14v-.22l-.21-.21-.14.14zm.21 10.89v.14h-.14l.14-.14zm-.07 10.86l-.07.36v.21h.14l.29-.28v-.29h-.35zm0-18.59v.07l.14.14h.07v-.07l-.14-.14h-.07zm.43 11.17l.14.21-.21.21v.21l.07.36-.07.07h-.22l-.14-.14c0-.32.14-.63.42-.92zm-.35-7.35l.07.21h.07l.14-.14-.07-.07h-.21zm.64 1.77v.14h-.07l-.21-.07c0 .11-.12.18-.35.22v.21c.33 0 .5.14.5.42h.56v-.15l-.29-.36v-.07l.28-.14-.07-.21h-.36zm-.49 2.34l.14.21v.07h-.14l-.14-.14.14-.14zm-.16 13.05v.07l.14.15.14-.14v-.07h-.28zm.07-22.2v.07l.15.14h.07l.14-.14V23l-.14-.143h-.07L15.2 23zm0 .57v.07l.15.14.07-.21h-.22zm0 2.33v.14l.15.36h.07l.21-.21-.14-.14.07-.07v-.21h-.21l-.14.14zm.07 1.13v.21h.21v-.22h-.22zm.14 5.66l.22.71-.07.07h-.07l-.21-.29v-.36l.14-.14zm-.07-10.53v.07c.19 0 .29.12.29.36l.29-.21c0-.25-.07-.39-.21-.42-.23.06-.35.13-.35.22zm.21 5.09l-.07.21.21.14.14-.21-.14-.14h-.14zm0 18.52l.07.07h.07l.14-.14-.07-.07h-.07l-.14.14zm0 .99v.28c.33-.06.49-.13.49-.21l-.29-.14-.21.07zm.07-23.25V24l.14.425.21-.07v-.07l-.07-.357.21-.212v-.07l-.5-.14zm0 7.42c0 .26.12.47.35.64l.21-.07v-.07l-.29-.49h-.28zm0 12.44l.14.15.14-.15-.14-.14-.14.14zm.07-17.88v.14h.14v-.15h-.14zm0 .57v.07c.09.19.23.28.42.28l.07-.07v-.28h-.5zm0 2.33v.15l.14.14h.07l.21-.21v-.15h-.07l-.36.07zm0 15.84v.36l.21-.07v-.28h-.21zm.14-12.58l.07.28.21-.07v-.21h-.29zm0 2.26l.14.36h.14l.21-.21-.07-.07v-.42c-.29 0-.43.12-.43.36zm.07 7.35v.14l.14.15h.21l.14-.14v-.07h-.36l-.07-.07h-.07zm0 2.55v.14h.14v-.14h-.14zm.07-8.41v.07h.14v-.07h-.14zm.07 1.34V37l.21-.21h-.21zm0 1.77v.07l.07.07v.07l.21-.07v-.28h-.14l-.15.14zm0 4.03v.14h.07v-.14h-.07zm.28.28v.22h.14V43l-.15-.14zM29 16.22h.352c2.97 0 5.417 1.155 7.35 3.463 1.083 1.284 1.626 3.216 1.626 5.796v14.28c0 3.1-.85 5.3-2.545 6.57-1.612 1.6-3.78 2.4-6.5 2.4-2.04 0-3.996-.69-5.87-2.05-1.884-1.66-2.826-3.41-2.826-5.23V23.92c0-2.04 1.13-4.04 3.392-6.01 1.72-1.132 3.39-1.697 5.02-1.697zm-7.564 8.62v.21h.07l.213-.212v-.142h-.14l-.15.142zm.142 3.04v.21h.212v-.07l-.146-.142h-.07zm.07 1.2l-.07.07v.07h.212l-.146-.14zm0 3.253v.14h.07l.143-.14h-.21zm.142.636l.07.21.14-.14v-.07h-.21zm0 .84v.21l.21.21.07-.36v-.07h-.28zm.07 3.25v.21h.21v-.07l-.14-.15h-.07zM22 25.69v.14l.14.142.07-.07v-.21H22zm0 12.227l.07.282.21-.07v-.22H22zm0 3.18c0 .095.07.143.21.143l.212-.07c0 .15.188.34.565.56l.14-.215c0-.084-.21-.27-.636-.566v-.07h-.07c-.28.02-.42.09-.42.21zm.14-16.68l-.07.21.07.072h.282v-.14l-.142-.15h-.14zm-.07 6.714v.14h.14v-.14h-.14zm0 4.52v.22h.14v-.07l-.14-.14zm0 .78v.14l.21.22h.07l.073-.21-.21-.14h-.14zm.07-13.57v.07l.14.14h.07V23l-.14-.143h-.07zm0 3.61v.29l.07.07v.07l.21-.07v-.35h-.28zm0 3.54v.29h.14l.142-.14V30h-.283zm.352 12.09v.14l.142.22v.07c-.33.04-.5.13-.5.29v.07h.637l.07.07.29-.21v-.07c-.14 0-.21-.12-.21-.35l-.28-.21h-.14zm-.28-11.66v.07l.143.14h.07v-.07l-.14-.14h-.07zm0 .35v.14h.143v-.14h-.14zm0 6.36v.21h.07c.096 0 .214-.14.356-.42h-.07c-.238.06-.355.13-.355.21zm0 3.39v.14h.284v-.14l-.14-.14-.14.15zm.07 1.06v.15l.143.14h.07l.142-.14v-.07l-.143-.14-.21.07zm.07-11.94v.14h.073l.14-.14v-.14h-.07l-.14.14zm.143-8.56v.21h.142l.07-.21h-.21zm0 5.09v.21h.212v-.21h-.21zm0 .64l.283.36.14-.15-.282-.35-.14.14zm0 5.16v.21h.283v-.07l-.142-.14h-.14zm0 .85v.14h.212v-.14h-.21zm.07-10.32v.29h.143l.07-.28h-.212zm.072 5.37v.21l-.07.5h.21l.212-.21v-.29l-.22-.21h-.14zm-.07 1.35v.07l.14.14.07-.07v-.14h-.213zm.07-3.82v.21c0 .07.093.14.282.21l.07-.28c-.07-.18-.15-.28-.22-.28l-.14.14zm.14 7.56l.07.07v.07l-.212.29v.07h.143l.283-.36v-.21h-.14l-.07.07h-.07zm-.142 2.83v.07l.07.21.143-.14-.14-.14h-.07zm.07-15.13v.14h.143v-.14h-.14zm0 20.01v.21h.214v-.07l-.14-.14h-.08zm.073-16.47v.21H23l.07-.21h-.28zm.07 12.44v.07l.21.21h.143l.14-.35v-.07l-.14-.14h-.07l-.28.29zM23 22.29l-.07.354c.07.188.14.283.21.283l.213-.08-.07-.353v-.21H23zm-.07 6.36v.213h.212v-.07l-.142-.14h-.07zm0 1.202v.07l.424.355.14-.15-.353-.283h-.21zm0 .496v.07h.142v-.21l-.142.14zm0 12.794c0 .247.118.436.354.564l.212-.07-.07-.707c-.33.06-.496.14-.496.22zM23 23.28v.213h.283v-.07l-.142-.142H23zm.07 2.9v.282h.07l.213-.07v-.284h-.07l-.212.07zm0 5.16v.282l.213-.212-.07-.07h-.142zm0 2.968l.07.354h.072l.212-.212-.212-.142h-.14zm.072-9.684h.212v-.14h-.07l-.142.14zm0 16.398v.283h.07l.143-.142v-.142h-.213zm.07-19.084v.07l.142.142h.283v-.142c0-.094-.07-.14-.212-.14l-.213.07zm0 7.35v.072h.07l.142-.14v-.072h-.07l-.142.14zm0 10.32v.213h.212v-.21h-.212zm.07-18.588v.212h.142v-.07l-.14-.142zm0 20.92v.143h.142l-.14-.142zm.072-7.844h.14v-.142l-.14.142zm0 7.422l.424.07v-.142l-.14-.14h-.072l-.212.212zm.14-16.046v.142h.072l.14-.142v-.14h-.07l-.14.14zm0 9.26v.14h.072l.212-.21v-.07h-.14l-.143.14zm.425.636l-.22-.07-.21.282v.07c.56-.188.85-.424.85-.706h-.14l-.29.424zm-.36-14.56v.21l.14-.14v-.072h-.14zm0 5.937v.212h.21v-.212h-.21zm0 5.018c.04.283.12.424.21.424l.21-.07v-.143l-.22-.212h-.21zm.07 4.877l-.07.07v.143l.07.07v.07l.35-.07h.14l.28.213h.21c0-.178-.33-.342-.99-.496zm.07-9.33v.212h.14v-.212h-.14zm0 .778v.07h.07l.21-.07-.14-.142-.15.142zm0 4.948v.212h.07l.14-.142-.07-.07h-.14zm.14-12.865v.15h.21v-.14h-.21zm.07.99l-.07.5v.14h.14l.14-.14v-.49h-.21zm0 7.64l-.07.5c.14-.03.23-.13.28-.28l-.07-.21h-.14zm-.07 8.63v.21h.28v-.07l-.15-.14h-.14zm.56 2.83l-.5-.07c.04.32.11.48.21.5.14 0 .21-.09.21-.28.28-.02.42-.18.42-.49h-.14c-.13 0-.2.12-.21.36zm-.43-20.78v.14h.14v-.14h-.15zm0 3.75c0 .09.12.16.35.22l.07-.07v-.07l-.06-.3.14-.14v-.14h-.15l-.35.5zm.07 9.26l-.07.36v.07h.28v-.42h-.21zm-.07 9.69v.21h.07l.14-.14-.07-.07h-.15zm.14-16.11l-.07.07v.07c.07.24.23.36.49.36l.14-.14c-.12-.23-.31-.35-.57-.35zm-.07 5.66l.14.14h.07v-.14h-.21zm.71-7.49l.07.5c-.47.39-.71.65-.71.78.08 0 .15.14.21.42l.28.07.14-.49h-.08l-.28.07v-.07c0-.09.19-.23.56-.42l.07-.07v-.07l.07.07h.14c.28-.11.42-.33.42-.63h-.07l-.43.07c-.1 0-.14-.07-.14-.21h-.29zm-.64 16.68v.07l.14-.14v-.07l-.14.15zm.07-13.64l.21.5.28-.21-.14-.21.14-.35h-.14l-.35.28zm0 3.11v.29l.07.36c.13-.02.22-.14.28-.35-.07-.18-.14-.28-.21-.28h-.14zm.42-10.32l-.29.36v.07l.14.14c.21-.09.33-.18.35-.28v-.07l-.22-.21zm-.29 4.53v.21h.21v-.21h-.21zm.07 4.88v.14l.63-.49-.14-.21c-.33.09-.5.28-.5.57zm0 3.68v.21l.07.07v.07l.07-.07h.21c0 .21-.1.43-.29.64v.14l.21.21.21-.14H25l.07.07h.07l-.07-.49v-.43c-.237 0-.355-.05-.355-.14v-.14h-.35zm.07 8.27l.14.14.14-.14-.14-.14-.14.14zm.14-10.03l-.07.28.28-.21v-.07h-.21zm-.07 6.22l.14.14h.21v-.07l-.07-.21h-.15l-.14.14zm.07-5.73v.28h.21v-.28h-.21zm.14-8.7l.14.22h-.21v.14h.21v-.14h.07c.18.07.28.14.28.21v.36h.28c0-.14.12-.31.35-.49h-.22v-.14c.09-.19.21-.28.35-.28v-.21h-.49c0 .14-.05.21-.14.21h-.07c-.1 0-.15-.1-.15-.28l-.07-.07H25c-.19.07-.28.23-.28.49zm0 12.09l-.07.07v.21h.21v-.14l-.14-.14zm0-11.45v.2h.28v-.21h-.28zm0 12.65v.21h.21v-.21h-.22zm.56-9.75l.07.22-.14.14.14.5-.36.22v-.07l.07-.5h-.28v.57c.14 0 .21.1.21.29 0 .09.07.14.21.14l.21-.07.14.28.21-.07v-.5l-.14-.21.07-.42-.07-.21.28-.21.14.14.21-.28v-.14h-.07l-.36.15v-.14h-.42c-.09 0-.14.08-.14.22zM24.79 41v.07l.28.356.21-.07V41l-.14-.14h-.21l-.14.14zm.14-12.65l-.07.354.21.14.14-.283-.07-.21h-.21zm-.07 9.047H25l.14-.14H25l-.14.14zm.07-1.84c.07.19.14.29.21.29h.21v-.21c0-.236-.05-.355-.14-.355-.15.05-.25.14-.28.29zM25 20.64v.07l.14.14v-.22H25zm0 .78v.07l.14.147.21-.57h-.07l-.285.35zm.07-1.55v.36h.07l.21-.21-.214-.14h-.07zm.28 9.4l-.284.57.282.07.35-.14-.14-.495h-.21zm-.25 11.12v.14h.283l.14-.14v-.07l-.14-.14-.283.21zm.283-14.913v.354l-.14.21v.14l.633.07v-.14l-.425-.63h-.07zm-.14 7.846l.07.21h.07l.212-.21v-.14h-.21l-.14.14zm0 3.96v.07h.14l.14-.14v-.07h-.14l-.14.14zm0 2.26v.28l.14.14h.14c0-.23.143-.35.426-.35v-.14c-.19 0-.29-.05-.29-.146l.14-.142v-.07h-.07l-.5.427zm.07-17.107v.284l.21-.07v-.073l-.14-.14h-.07zm.07-1.91v.214l.14-.143v-.07h-.14zm0 10.393l.07.07v.07l-.07.28.07.21.423-.21v-.36l-.354-.07h-.14zm0 1.2v.14h.212v-.14h-.21zm.07.56v.14h.143v-.14h-.144zm0 8.41l.143.14.21-.07v-.08l-.14-.14h-.07l-.144.14zm.07-12.3v.14l.143.14.14-.14-.14-.15h-.143zm.353-6.79l-.28-.07c.07.29.232.5.492.63v.14l.21-.07v-.08l-.144-.21.07-.42v-.08h-.14l-.214.14zm-.28 11.66v.21l.21.21h.212c0-.25-.07-.39-.216-.43h-.21zm0 3.18v.07l.14.14h.14v-.21l-.14-.14-.14.14zm.07-18.17v.07l.14.14h.07v-.22h-.21zm0 6.64l.07.35c.282-.06.423-.13.423-.21v-.14l-.21-.21h-.07l-.21.21zm0 10.04v.28h.07l.212-.21v-.07h-.286zm.282-5.94c-.06.48-.13.77-.216.85v.14l.14.14.497-.64c-.14-.18-.21-.34-.21-.5h-.21zm-.216 3.25l.14.14h.144l.213-.21v-.21c-.25 0-.42.09-.5.28zm.07 7.56l-.07.21.07.21h.213v-.43h-.213zm.354-21.63l.07.35c-.28.06-.422.13-.422.21l.212.21h.07c.07 0 .14-.1.214-.29l.07.07h.07l.215-.22c-.143-.13-.213-.32-.213-.56h-.07l-.21.21zm-.21 1.49l-.142.21.07.21.353-.07v-.14l-.28-.22zm.14 7.91c0 .23-.093.35-.282.35.142.2.212.39.212.57l.355-.07v-.14l-.14-.21.08-.42-.07-.07h-.14zm-.282 4.95v.21h.142l.21-.22v-.07l-.352.07zm0 1.55v.21l.212.21v-.14c-.07-.19-.142-.29-.212-.29zm.07-7.21v.28h.212l.14-.14v-.36h-.07l-.282.21zm0 4.74v.14l.142.14.14-.14v-.28h-.14l-.142.14zm.142-7.78v.14l.355.07.07-.07v-.14l-.14-.14h-.14l-.14.14zm0 6.5v.28h.14v-.29h-.14zm0 3.53l.07.21h.07c.095 0 .19-.16.284-.49h-.21c-.116 0-.187.09-.21.28zm.07-8.62v.21h.14v-.07l-.14-.15zm0 10.39v.21h.14v-.22h-.14zm0 2.54l.07.21h.214v-.07l-.14-.14h-.14zm.07-17.53c.07.19.145.28.215.28h.21l.08-.29h-.49zm0 2.19v.07l.07.35h.215v-.14h.07c-.07-.19-.14-.28-.21-.28h-.14zm0 8.41v.14h.07l.215-.21v-.15h-.07l-.21.21zm0 3.88v.07l.07.21h.145v-.14l-.14-.15h-.07zm.144 3.6v.14l.21-.21V39h-.07l-.14.14zm.21-16.68l-.07.07v.14l.144.14h.073l.14-.14v-.14l-.283-.07zm.07-2.83v.21l.43.35.14-.21-.21-.29.21-.07v-.07l-.14-.14c-.282.05-.425.12-.425.21zm0 2.34v.21l.075.07v.07c.19-.07.28-.14.28-.21v-.21l-.35.07zm.357-1.49v.07l.142.14.14-.15v-.07h-.29zm.142-1.34v.14l.28.28c.28 0 .42-.12.42-.36h-.08l-.36.07-.14-.14h-.14zm.07-1.06v.21l.14-.14v-.07h-.14zm0 .35v.21h.28v-.14l-.29-.07zm0 2.47v.14h.14v-.14h-.14zm.07.49v.07l.21.43.21-.21v-.28l-.14-.14h-.15l-.14.14zm.14-3.96v.21l.14-.14v-.08h-.15zm.07 7.14v1.49l.07.28-.07.07-.07 3.32v1.84l.07 5.02.07.07-.07.36v3.39c0 1.25.61 2.07 1.83 2.47h.14c.87 0 1.53-.66 1.98-1.98l.07-3.89v-9.69c0-2.31-.12-3.68-.35-4.1-.53-.89-1.17-1.34-1.91-1.34-1.18.52-1.77 1.41-1.77 2.68zm0-4.38h.14v-.14l-.14.14zm.28-2.34V18h.14l-.15-.14zm.14 2.61v.14l.14-.14h-.14zm.07-1.48v.28h.21V19h-.21zm.07 2.05v.07l.07.07v.07l.28-.07-.07-.28h-.14l-.15.14zm.28-.71v.21h.28l.07-.22h-.35zm.14-1.98l.07.21.28-.14-.07-.22h-.14l-.14.14zm.07.56v.21h.14v-.07l-.15-.14zm.14.63v.07h.21v-.21h-.07l-.14.14zm.21-.92l.21.07.07-.07v-.14H29l-.145.14zm.07-.43v.14c.47-.17.71-.28.71-.35l-.43-.21c-.19.05-.28.19-.28.43zm.42 1.34v.21l.07.07v.07l.21-.07v-.42h-.14l-.14.14zm0 1.34h.07c.17 0 .29-.21.35-.64h-.14c-.19.06-.29.27-.29.64zm.14-2.12v.07h.14l.14-.14v-.14c-.19.07-.29.14-.29.21zm.21.28v.21h.21V19h-.21zm.28-1.42c0 .09.07.14.21.14l.21-.07-.22-.21h-.07l-.14.14zm.07 2.68l.35.14h.07l.91-.35-.07-.35h-.14c-.15 0-.32.07-.5.21-.14-.18-.21-.37-.21-.57-.19 0-.29.12-.29.36-.1 0-.14.14-.14.42l-.07.07.07.07zm.14-1.7v.14h.14l.21-.29h-.21l-.14.14zm.77 2.68v.22l.21-.07-.14-.14h-.07zm.07-.77v.21l.14.14h.07l.21-.21c-.07-.19-.14-.28-.21-.28h-.07l-.15.14zm.14-2.12v.21l.14-.14v-.07h-.14zm.07.99v.14l.29.29.21-.07v-.14l-.21-.21h-.29zm.14-1.13l.07.21h.22v-.14l-.14-.14-.08.07h-.07zm1.28 2.48c.19 0 .28.04.28.14l-.42.35h-.21l-.29-.21-.07.07.07.07v.07l-.14.14-.21-.07c-.05.37-.12.56-.22.56l.07.21h.14l.49-.35c.01.17.15.34.42.49v.14l.49-.14v-.14l-.14-.14-.28.07-.08-.43.43-.15v.07l.14.56h.07l.22-.14h.07l.29.28-.15.14v.14c0 .09.07.14.21.14l.21-.07-.07-.08v-.21l.14-.21c-.18-.11-.34-.3-.5-.57l.07-.5h-.35l-.28.21H33v-.07c.188-.21.28-.38.28-.49h-.07l-.282-.07h-.14l-.14.14zm-.85-.71v.14h.07c.19-.07.28-.14.28-.22l-.14-.14-.21.21zm.28.92h.21l.14-.14v-.36h-.07c-.19.05-.29.21-.29.5zm.14-1.2v.14h.28v-.14l-.14-.15-.14.14zm.07 6.99v.14l-.07.07.07.07.36.14.07-.07c-.09-.21-.19-.33-.28-.35h-.14zm0-8.41v.14h.14v-.14h-.14zm0 .84v.14l.14.14.21-.07c0-.08-.12-.15-.36-.21zm0 3.25v.21l.21-.21h-.21zm0 7.28v.3h.36l-.21-.21h-.14zm.07-6.92v.21h.07l.14-.14-.07-.07h-.14zm0 .42v.15h.14v-.14h-.14zm0 7.99v.07l.21-.07v-.14h-.07l-.14.14zm.07 6.79v.07c.09.19.23.28.42.28l.07-.07c-.05-.19-.21-.28-.5-.28zm.28-15.55l.21.28v.07h-.14v.07l.07.28-.07.29.14.14-.07.28.07.28h-.07l-.29-.07-.07.07v.07l.21.56c.14 0 .21-.07.21-.21l.07-.07h.07l.28.28c-.1.36-.24.64-.43.85V26c0 .1.07.15.21.15l.21-.07.07.07v.14c-.22.24-.4.36-.57.36l.07.42-.07.21h.42l.14.14v.14h-.07l-.07-.07h-.07l-.28.14-.28-.07v.21l.28.28.21-.07.07.07v.49c.28 0 .42.04.42.14l-.07.07h-.49v.2l.14.21v.07l-.64-.14-.07.07v.07l.14.36h.07l.35-.07v.07l-.5.56v.14c0 .14.14.21.42.21l.21.29c-.16 0-.28.09-.35.28l.14.428H33l.35-.28.21.07v.07l-.21.22c0 .47.1.71.288.71.14 0 .21-.14.21-.42.47-.21.71-.35.71-.42-.29-.06-.48-.2-.56-.42-.24-.06-.35-.13-.35-.21v-.43l.43-.42.07.07h.07l.14-.21-.14-.21-.43.14-.07-.07v-.14h.35c0-.14-.1-.21-.29-.21l-.07-.07v-.22c0-.09.095-.14.28-.14l.074-.07v-.14c-.19 0-.283-.05-.283-.14l.07-.49-.07-.49h.07l-.07-.07v-.15h.78l.07.49h.21v-.35h.1l.14.14.21-.14c-.19-.38-.36-.567-.5-.567l-.42.14-.21-.28c.25 0 .46-.23.64-.7l.07.07h.1l.07-.07v-.07l-.07-.07h-.14v.14l-.36-.42v-.07l.14-.21v-.14h-.14c-.18.14-.34.21-.5.21h-.07v-.07c0-.09.14-.16.42-.21l.14-.42-.21-.07v-.15c.14 0 .21-.12.21-.35l-.84-.21-.14-.21-.21.07-.21-.29v-.14c0-.09.07-.14.21-.14v-.21l.07-.49-.42-.14-.21.07zm.42 10.11v.14l.07.07v.07c-.28.06-.42.13-.42.22l-.07-.07h-.21v.21h.42l.07.07h.07l-.07.07v.14l.21.22.35-.64.28.21.21-.21-.56-.57-.35.07zm-.57-6.36v.07l.07.35c.09 0 .16-.14.21-.43h-.28zm0 2.12v.07c.04.28.11.42.21.42l.14-.15v-.07c0-.24-.04-.36-.14-.36l-.21.07zm0 8.06v.35h.21l.21-.21v-.07l-.36-.07h-.07zM32.61 20v.14h.07V20h-.07zm0 4.88v.21l.14.14.14-.14-.07-.21h-.21zm0 5.867l.14.14h.07v-.14h-.21zm0 3.39v.14l.28-.07V34h-.14l-.14.14zm0 .85v.14h.14V35h-.14zm.07-15.55l.28.42c.18-.05.28-.21.28-.5l-.07-.07h-.36l-.14.14zm.07 12.15l-.07.07v.42l.14.14h.22c0-.28.07-.42.21-.42v-.14l-.5-.07zm0 .92v.21l.21-.14-.08-.22-.14.14zm0 7.63v.14h.07v-.14h-.07zm.07.28l-.07.35V41h.07c.19-.08.29-.24.29-.49v-.07h-.28zm0-3.68v.14l.15.14c.19-.05.28-.17.28-.35h-.07l-.35.07zm0 4.946v.3l.22-.07v-.14h-.21zm.07-23.47v.07l.07.35h.07l.21-.21-.07-.21h-.28zm.1 20.1v.14h.07l.14-.14.36.07h.07v-.21l-.14-.14h-.07l-.43.28zm.07-18.306v.288h.07l.14-.14V20l-.21.07zm.21 9.83l.14.14v.282l-.14.14h-.14l-.07-.42.21-.14zm-.07 5.37l-.14.14.07.22h.14l.21-.21v-.07l-.28-.07zm-.14 2.475v.15h.14v-.14h-.14zm.07-13.5h.14v.07h-.14v-.07zm0 11.74V36l.14.14.15-.14-.14-.143-.14.14zm0 1.27v.07l.43.566.21-.07c0-.25-.14-.48-.42-.71h-.07l-.14.14zm0 4.1v.07l.14.14h.07c0-.14.1-.21.28-.21l.08-.07v-.14h-.14c-.28.02-.42.09-.42.21zm.21-15.62h.07v.21l-.14.14-.07-.07v-.15l.14-.14zm-.14 5.09h.14l.14.14v.14h-.07l-.21-.28zm0 2.97v.14l.21.28.21-.07v-.07l-.28-.28h-.14zm0 .99V35h.21v-.21h-.21zm.07 4.52v.21l.21-.07-.14-.14h-.07zm.07-20.78v.14l.14.14.07-.21-.07-.07h-.14zm0 13.64v.14h.07v-.14h-.07zm.21-5.3l.15.14v.07h-.15l-.14-.14.07-.07h.07zm-.07 7.49l-.07.07v.28h.07l.14-.14v-.07l-.14-.14zm0-9.05h.07v.14h-.07v-.14zm0 10.39l.07.21h.22v-.07l-.15-.14h-.14zm.07-16.61v.14l.15.14.07-.07v-.21h-.22zm.15 5.3l.35.07v.14c-.13 0-.27.07-.43.21l-.07-.07v-.21l.14-.14zm-.15 11.95v.07l.14.14h.07v-.21h-.21zm.35-10.18h.35v.14l-.14.14h-.28l-.14-.14.21-.14zm-.21.92l.14.14v.07h-.14v-.21zm.63 7v.21l-.49-.07h-.07v.07c.07.24.24.357.5.357.18-.19.37-.29.57-.29v-.07l-.21-.21h-.28zm-.57 6.36v.213h.07l.14-.14v-.07h-.21zm.07-21.345v.07H34v-.07h-.14zm0 16.96v.14l.07.078v.07c.19-.07.29-.14.29-.21l-.07-.07h-.28zm.31-16l-.21.28h.14l.21-.215-.07-.07h-.07zm-.21.99v.14h.14l-.14-.14zm.08-1.41v.217h.14l.14-.142v-.07H34zm0 10.678v.21l.07.356.14-.14v-.36l-.21-.07zM34 35v.07l.07.425h.28v-.284c0-.1-.117-.17-.354-.21zm.07 2.26l-.07.285.353-.144v-.14h-.283zm0 .568v.21h.21v-.216h-.21zm.14-9.687v.07l.07.36h.21v-.49h-.07l-.21.07zm0 3.96v.14l.14.15.07-.07v-.07l-.14-.14h-.07zm0 6.79v.07l.14.14v-.21h-.14zm.07 1.63v.07l.424.14h.07l.14-.14v-.28c-.424.05-.636.12-.636.21zm.07-18.23v.28l.143-.14v-.13h-.144zm.07-.56v.15l.07.07V22l.21-.07v-.07l-.14-.14h-.14zm.426 8.27l.07.07v.08l-.21.36v.15c.142 0 .212.05.212.14l.07-.07h.213v.07l-.14.15h-.27l-.21-.14-.14.14v.14l.28.28c.61-.1.92-.36.92-.77h-.34v-.14c0-.09.1-.14.28-.14v-.07l-.21-.29c0-.09.07-.14.21-.14v-.21l-.14-.14c-.08 0-.15.12-.21.35-.23.04-.35.11-.35.21zm-.28-10.46l-.07.07v.36l.5-.05c-.024-.23-.166-.35-.424-.35zm-.07 13.29v.28c.186 0 .28.07.28.22h.07l.14-.14-.283-.21v-.14h-.21zm0 6.58v.21l.14-.14-.07-.07h-.07zm.07-16.04c.093 0 .14.07.14.21l.07.07h.072l.21-.21v-.49l-.28-.14c-.095 0-.165.19-.21.56zm0 8.69v.15h.21V32l-.21.07zm.07-11.02v.29l.36-.2.14.22.212-.07v-.36l-.35.14v-.14h-.2l-.14.14zm.776 6.93h-.14c-.425 0-.64.12-.64.36l.216.43-.073.36.07.5H35l.425-.28v-.5c0-.1-.14-.19-.424-.28v-.14c0-.08.14-.15.43-.21v-.22h.29l.14.14-.07.42.14.36c.19-.09.29-.25.29-.5l-.07-.85.07-.28h-.07c-.47.28-.71.52-.71.71zm-.71-3.67h.357l.35.36.35-.07v-.14c-.29-.15-.43-.34-.43-.56l.07-.21c-.25.24-.46.36-.64.36l-.07.07v.21zm.07 8.06l.217.64h.21v-.35l-.29-.28h-.15zm0 2.69v.14h.147V35h-.15zm.146-8.55v.07h.14l.143-.14v-.14h-.07l-.21.22zm0 7.28v.14l.14.14c.19-.09.283-.23.283-.42l-.07-.07h-.14l-.21.22zm0 2.19v.21h.14l.354-.14v-.28h-.14l-.354.21zm.08-10.8v.21h.07l.145-.14-.072-.07H35zm0 15.84l.07.07h.145l.14-.14-.14-.14L35 41zm.07-3.96v.22h.07l.145-.14-.07-.07h-.143zm.07-14.56l.145.36h.354l.07-.28-.427-.28c-.096 0-.143.08-.143.22zm0 9.55v.21l.145.14.28-.14v-.14l-.21-.21h-.07l-.143.14zm.145-10.46c.094.19.21.28.354.28l.21-.07v-.21l-.14-.14-.427.14zm.14 5.3l-.14.21c.07.19.14.29.21.29h.07l.144-.14v-.28l-.287-.07zm-.14 11.38l.07.36-.07.28h.07l.354-.21v-.35l-.427-.07zm.21-15.05l-.07.07v.07l.07.21h.284l.14-.14c-.05-.14-.19-.21-.426-.21zm-.07 1.83v.42c0 .21.094.4.283.56l.28-.21-.283-.35.07-.35-.07-.07h-.29zm.213 9.19l.07.42-.07.28.07.07-.28.07.07.5h.07c.13 0 .22-.19.28-.56l.07-.07h.07l-.07-.07v-.21c.02-.14.19-.21.49-.21v-.29h-.21l-.07.07h-.07l-.07-.35c-.237.08-.355.2-.355.36zm-.14-8.13v.07c.09.33.19.5.28.5s.14-.07.14-.21c-.07-.23-.21-.35-.42-.35zm0 5.51c.07.19.14.29.21.29h.07v-.07l-.21-.22h-.07zm0 5.16l.07.07h.14l.14-.14-.07-.07h-.14l-.14.14zm.35 3.25l-.07-.07h-.28v.36h.22v-.14h.14v.14c.41-.18.625-.33.637-.42l-.216-.28h-.144c-.093 0-.19.14-.283.43zm-.35.85v.21h.15v-.21h-.15zm.07-7.77v.07l.15.15h.21l-.07-.36h-.14l-.145.14zm.08-8.97v.07H36c.104 0 .175-.11.21-.35h-.07l-.213-.14h-.07c-.14.05-.212.19-.212.43zm0 4.88v.07l.21.22H36v-.15l-.144-.14h-.21zm.07 1.98V31l.14.212.28-.144c-.07-.187-.14-.282-.212-.282h-.07l-.14.144zm.07.43c.082.19.25.28.494.28l.07-.35-.213-.07-.35.14zm.07 9.47l-.07.43c.19-.05.283-.19.283-.43h-.21zm0-10.46c.19.02.283.1.283.21.21-.09.33-.18.35-.28v-.07l-.42-.14-.22.28zM36 31.85l-.143.564.212.14c.14-.04.21-.23.21-.57l-.14-.14H36zm-.072 4.664h.426l.284-.29v-.07c0-.092-.07-.14-.21-.14-.33.12-.498.284-.498.496zm0 1.69h.143v-.14l-.14.14zM36.07 21.1v.07h.21v-.21h-.07l-.14.14zm0 1.98v.21h.35v-.07l-.14-.14h-.21zm0 1.695v.14c.15.427.27.64.35.64h.07v-.14l.07-.498-.42-.14h-.07zm.14 1.415l.07.495-.21.21v.07l.21.07c.19-.07.28-.14.28-.21v-.5l-.14-.14h-.21zm-.07-3.463v.21h.14v-.21h-.14zm0 6.79v.14l.42.424h.07l.07-.07h.073l-.213-.49h-.42zm0 3.96v.28h.14l.14-.14v-.14h-.28zm.14-12.09v.07l.21-.21h-.07l-.14.14zm0 4.38v.21l.14-.142v-.07h-.14zm0 3.04v.14h.21l-.14-.14h-.07zm.07-6.434l.07.423h.21l.142-.144v-.14l-.143-.143h-.28zm0 18.52v.14h.07v-.14h-.07zm.21-12.583l.212.356v.213c0 .14-.096.21-.283.21v.21h.36l.14-.42-.07-.36.07-.29-.21-.14h-.07c-.1 0-.14.07-.14.21zm-.07 3.536v.284l.14-.14v-.14h-.14zm.07 5.02l-.07.354.21-.07.354.07v-.14c0-.087-.166-.157-.496-.215zm0-12.512v.284h.282l-.07-.284h-.213zm0 9.402l.14.14.143-.143v-.15H36.7l-.14.142zm.07-8.624l.07.21h.072l.14-.14-.07-.07h-.212zm0 .635v.14l.143.14.21-.28v-.07l-.14-.143-.212.21zm.07-2.403v.07h.143v-.212l-.142.143zm0 3.887v.21l.072.36h.21l.144-.14c0-.28-.145-.42-.428-.42zm0 4.24v.14h.213v-.14H36.7zm.072-7.56v.14h.21v-.28h-.07l-.14.14zm0 9.4v.07h.07l.14-.14v-.07h-.07l-.14.14zm.28-3.18c0 .14-.046.21-.14.21l.07.22.143-.14v-.28h-.073zm-.14 2.12v.14h.07l.144-.14h-.215zm0 4.03l.142.14h.212l-.218-.28-.14.14zm.07-2.19v.14h.144v-.14h-.145zm0 4.38v.22h.214v-.21h-.215zm.07.57l.073.21h.07l.14-.14v-.21h-.07l-.213.14z" class="st0"/></svg>