<svg xmlns="http://www.w3.org/2000/svg" id="Layer_2" viewBox="0 0 98.4 98.1"><style><![CDATA[
	.st0{fill-rule:evenodd;clip-rule:evenodd;fill:#FFFFFF;}
]]></style><path d="M49.8 98C22.2 98.5 0 76.7 0 49 0 22.2 21.8.2 48.8 0c27-.2 49.2 21.6 49.6 48.4C98.7 75.4 77 98 49.8 98zM49 4.7C23.8 5 4.4 25 4.8 50 5 74.5 25.5 94 50 93.8c24.7-.5 44.2-21 43.7-45.8-.5-24-21-44-44.7-43.5z" class="st0"/><path d="M49 91C26 91 7 72.5 7 49.3 7 25.8 25.8 7 49.7 7c22.8 0 41.5 19 41.7 42 .2 23-19 42-42.3 42zm.2-6.2c5-2.2 11.7-8.6 11.7-12l-8.7-15.3c-1.4-.2-3.6 0-4-.6-2.5-5-4.8-10.5-7-15.7-1-2.4-1.8-5 1.3-6.7.2-.2 0-1.4-.3-2l-4.4-14C33.6 20 32.4 22 32.5 28c.3 10.7 3.6 20.6 8.8 30 4 6.8 8.2 13.3 17 16.2-.7 2.7-1.7 4-9.3 10.4zm4.6-28.6l8 15.3c4.8-3.3 4.8-4.8-.3-13.6-1.8-3.5-4-4.5-7.7-2zm-14-38c1.7 5.8 3.5 11.3 5.4 17 6.4-3.2 4-6.2 1.5-14.3-1-3.6-3.5-4.5-7-3z" class="st0"/></svg>