<svg xmlns="http://www.w3.org/2000/svg" width="64" height="64" viewBox="0 0 64 64"><path fill="#efe8de" d="M27.5 39.7c-.8 0-1.6-.3-2.3-1-6-6-6-15.5 0-21.5l12-12c3-3 6.7-4.5 10.8-4.5s8 1.6 10.8 4.5c6 6 6 15.6 0 21.6l-5.5 5.5c-1.3 1.2-3.3 1.2-4.6 0s-1.3-3.4 0-4.6l5.5-5.5c3.4-3.4 3.4-9 0-12.4-1.7-1.6-4-2.6-6.2-2.6s-4.5 1-6.2 2.6l-12 12c-3.4 3.4-3.4 9 0 12.4 1.3 1.3 1.3 3.3 0 4.6-.6.6-1.5 1-2.3 1z"/><path fill="#efe8de" d="M16 63.3c-4 0-8-1.6-10.8-4.5-6-6-6-15.6 0-21.6l5.5-5.5c1.3-1.2 3.3-1.2 4.6 0s1.3 3.4 0 4.6l-5.5 5.5c-3.4 3.4-3.4 9 0 12.4 1.7 1.6 4 2.6 6.2 2.6s4.5-1 6.2-2.6l12-12c3.4-3.4 3.4-9 0-12.4-1.3-1.3-1.3-3.3 0-4.6s3.3-1.3 4.6 0c6 6 6 15.6 0 21.6l-12 12c-3 3-6.7 4.5-10.8 4.5z"/></svg>