<svg xmlns="http://www.w3.org/2000/svg" viewBox="0 0 400 300"><style><![CDATA[
	.st0{fill:url(#SVGID_1_);stroke:#4D4949;stroke-miterlimit:10;}
	.st1{fill:#EFE8DE;stroke:#EFE8DE;stroke-miterlimit:10;}
	.st2{fill:#EFE8DE;}
	.st3{fill:none;}
	.st4{fill:none;stroke:#EFE8DE;stroke-miterlimit:10;}
]]></style><g id="Los_Angeles"><circle class="st3" cx="200" cy="154" r="130"/><path class="st1" d="M144.063 270.697l.708.338c1.22.577 1.94.363 2.85-.38.73-.616 1.33-1.417 1.81-2.24l.33.156-2.19 4.48-6.09-2.9.12-.25c.39.1.79.04 1.03-.47l6.6-13.85c.24-.5.04-.85-.28-1.09l.12-.25 2.99 1.42-.12.26c-.39-.09-.79-.03-1.03.47l-6.83 14.34zm18.987-1.344c-2.216 6.137-4.965 8.062-7.36 7.196-2.688-.97-2.897-4.68-1.024-9.87 2.215-6.14 4.964-8.06 7.36-7.2 2.686.97 2.896 4.67 1.023 9.86zm-2.183-.222c2.253-6.24 2.38-8.48.772-9.06-1.45-.52-2.57.68-4.8 6.85-2.26 6.24-2.38 8.49-.77 9.07 1.45.53 2.57-.68 4.79-6.84zm10.7 7.31c-.724 2.82-2.81 4.08-4.763 3.58-.922-.23-1.612-.58-2.24-1.18l.56-2.28.324.09c-.045.63-.014 1.07.2 1.59.267.65.59.97 1.404 1.17.976.26 1.99-.09 2.562-2.31.565-2.19.08-3.56-.986-5.83-.903-1.99-1.144-3.64-.627-5.65.6-2.3 2.5-3.4 4.29-2.94.73.19 1.38.59 1.84 1.08l-.56 2.29-.32-.08c.1-.61.1-1.16-.09-1.67-.25-.61-.59-.84-1.05-.96-.81-.21-1.76.1-2.28 2.13-.44 1.71-.11 3.27.57 4.77 1.17 2.56 1.64 4.53 1.2 6.26zm20.13 7.1l-.028.28-3.38-.33.02-.28c.56-.02.75-.2.7-.8l-.69-5.86-2.43-.24-1.8 5.62c-.17.58-.02.79.53.93l-.03.28-2.31-.23.02-.28c.4-.04.81-.28.97-.77l5.33-16.32.23.02 2.02 17.06c.06.52.42.83.8.96zm-3.436-7.62l-.6-5.01-1.54 4.8 2.15.22zm14.48 2.25l-.17-10.69c-.01-.56-.35-.78-.74-.85v-.28l2.24-.03.01.28c-.39.09-.72.32-.71.88l.28 16.78-.22.01-6-14.13.21 12.8c.01.56.35.78.74.85l.01.28-2.24.04v-.28c.39-.09.72-.32.72-.88l-.24-14.7-.26-.64c-.2-.44-.52-.77-.91-.85v-.28l2.41-.04 4.93 11.77zm11.58-2.22c-.06-.56-.41-.74-.81-.79l-.03-.28 3.29-.33.03.28c-.38.13-.69.38-.63.94l.71 6.99c-1.05.42-1.95.71-3.07.82-2.89.3-4.89-1.87-5.55-8.41-.65-6.49 1.08-9.43 4.14-9.74 1.15-.12 1.72 0 2.54.33l.27 2.34-.33.04c-.17-.6-.35-1-.73-1.41-.47-.51-.91-.69-1.72-.61-1.53.16-2.74 1.8-2.08 8.32.71 6.97 1.86 8.65 3.45 8.49 1.09-.11 1.24-.26 1.19-.79l-.62-6.16zm10.17 5.14l.83-.16c1.32-.26 1.77-.86 2.06-2 .22-.93.22-1.93.12-2.88l.36-.07.91 4.9-6.68 1.31-.05-.27c.37-.16.66-.44.55-.99l-2.96-15.06c-.11-.55-.48-.7-.88-.71l-.05-.27 6.3-1.24 1.02 4.88-.35.07c-.26-.92-.64-1.84-1.2-2.62-.7-.94-1.34-1.33-2.66-1.07l-.44.09 1.41 7.15.63-.12c.44-.08.69-.42.86-.99.12-.39.17-1 .2-1.75l.36-.07 1.07 5.44-.36.07c-.306-.68-.584-1.23-.847-1.55-.37-.47-.73-.68-1.17-.6l-.63.13 1.654 8.41zm11.23-2.68l.76-.22c1.29-.37 1.69-1.01 1.88-2.17.14-.94.05-1.94-.13-2.88l.35-.1 1.33 4.8-6.47 1.88-.08-.27c.35-.19.61-.49.46-1.03l-4.27-14.73c-.15-.53-.54-.66-.94-.63l-.08-.27 3.17-.92.08.27c-.35.19-.61.5-.45 1.04l4.42 15.25zm10.79-3.61l.79-.3c1.25-.49 1.59-1.16 1.67-2.33.05-.95-.12-1.93-.39-2.85l.34-.13 1.76 4.66-6.33 2.48-.1-.26c.34-.22.57-.55.36-1.07l-5.6-14.3c-.2-.52-.6-.61-.99-.54l-.1-.26 5.98-2.33 1.87 4.62-.34.14c-.42-.856-.96-1.7-1.64-2.364-.85-.81-1.56-1.074-2.81-.585l-.41.17 2.65 6.78.6-.23c.42-.16.6-.534.67-1.13.05-.41-.01-1.02-.11-1.76l.34-.13 2.02 5.16-.34.133c-.42-.62-.79-1.105-1.1-1.37-.45-.4-.84-.545-1.26-.38l-.6.23 3.12 7.98zm12.04-9.54c1.3 2.61.54 4.93-1.27 5.82-.85.43-1.6.61-2.47.57l-1.07-2.09.3-.15c.38.51.69.82 1.19 1.07.63.32 1.08.34 1.83-.03.9-.44 1.45-1.37.42-3.43-1.01-2.03-2.27-2.75-4.56-3.77-1.99-.92-3.25-2.01-4.17-3.87-1.06-2.13-.34-4.21 1.32-5.03.68-.34 1.43-.46 2.1-.38l1.07 2.1-.3.15c-.32-.53-.68-.94-1.16-1.21-.59-.3-1-.25-1.43-.04-.75.37-1.27 1.22-.33 3.1.79 1.58 2.05 2.55 3.55 3.24 2.55 1.18 4.2 2.36 5 3.96z"/></g><g id="Premium_Quality"><path class="st3" d="M90 147.998C90 87.248 139.248 38 200 38c60.748 0 110 49.248 110 109.998 0 60.752-49.253 110-110 110-60.752 0-110-49.248-110-110z"/><path class="st1" d="M131.132 50.784l-.525.373 4.623 6.506c.324.456.728.444 1.096.285l.162.23-2.694 1.913-.162-.22c.27-.29.415-.67.09-1.13l-8.888-12.51c-.324-.45-.728-.44-1.096-.28l-.162-.23 2.762-1.96c1.53-1.08 3.575-1.3 5.23 1.03 2.01 2.84 1.094 4.93-.436 6.02zm-1.208-4.844c-1.362-1.918-2.384-2.29-3.48-1.513l-.41.292 4.217 5.93.53-.38c1.08-.76 1.06-1.65-.85-4.34zm17.54 3.705c.49.622.87.725 1.252.602l.14.242-2.303 1.33-4.706-6.47c-.602-.82-1.088-.99-1.816-.57l-.55.32 4.11 7.1c.28.48.69.51 1.07.39l.14.24-2.86 1.65-.14-.25c.3-.27.48-.63.2-1.12l-7.7-13.27c-.28-.49-.68-.51-1.06-.39l-.14-.24 2.94-1.7c1.62-.94 3.68-.96 5.1 1.51 1.03 1.79.87 3.47-.35 4.82 1.19-.46 2.04-.28 2.95.91l3.72 4.87zm-8.07-9.6c-1.175-2.037-2.157-2.505-3.32-1.833l-.438.252 3.53 6.11.558-.322c1.14-.658 1.086-1.76-.33-4.208zm15.99-2.48c2.67 5.956 2.03 9.25-.292 10.294-2.605 1.16-5.332-1.36-7.59-6.39-2.67-5.96-2.03-9.25.295-10.3 2.605-1.17 5.33 1.35 7.588 6.39zm-1.722 1.358c-2.716-6.058-4.186-7.762-5.744-7.063-1.405.63-1.374 2.273 1.308 8.255 2.716 6.057 4.186 7.762 5.744 7.063 1.405-.63 1.373-2.275-1.308-8.255zm8.288-12.525l-.09-.266 2.206-.736.09.266c-.347.204-.63.594-.577 1.107l1.8 17.08-.21.07-8.82-14.74c-.27-.45-.73-.59-1.13-.54l-.09-.27 3.21-1.08.09.26c-.51.25-.6.52-.31 1.02l5.94 9.94L162.79 27c-.07-.567-.3-.726-.86-.63zm12.845 13.87l.82-.186c1.31-.298 1.744-.913 2-2.062.19-.934.164-1.933.036-2.88l.36-.08 1.05 4.872-6.63 1.505-.06-.272c.37-.17.64-.462.52-1.008l-3.39-14.96c-.12-.545-.5-.688-.9-.684l-.06-.273 6.25-1.42 1.16 4.848-.35.08c-.29-.91-.7-1.82-1.27-2.58-.73-.926-1.38-1.294-2.69-.996l-.44.1 1.61 7.097.63-.15c.44-.1.68-.44.83-1.02.11-.4.15-1.01.15-1.76l.36-.08 1.23 5.4-.35.08c-.33-.67-.62-1.21-.89-1.52-.39-.46-.75-.66-1.19-.57l-.63.14 1.89 8.35zm13.48-7.508l-1.318-10.615c-.07-.556-.43-.736-.83-.77l-.034-.28 2.223-.274.035.28c-.37.13-.68.4-.61.95l2.07 16.65-.22.03-7.47-13.4 1.58 12.7c.07.56.43.74.83.77l.04.28-2.22.28-.03-.27c.38-.13.69-.39.62-.95l-1.81-14.59-.33-.6c-.25-.42-.59-.71-.99-.75l-.03-.27 2.39-.3 6.16 11.17zm39.32 9.393c-3.614 2.25-5.473 2.663-7.944 2.35-1.88-.24-4.18-1.012-7.25-2.67-2.88-1.55-4.92-2.572-6.36-2.755-1.22-.155-2.12.068-3.82.756l-.16-.274c1.41-.64 2.56-1.058 3.58-1.098-3.18-.46-4.09-4.018-3.39-9.488.82-6.47 3.09-8.95 5.61-8.63 2.84.36 3.85 3.933 3.15 9.403-.69 5.498-2.55 8.14-4.59 8.616.37-.038.74-.02 1.04.02 1.34.17 3.65 1.055 6.29 2.49 3.78 2.032 5.98 2.734 7.31 2.903 2.17.274 3.71-.32 6.39-1.814l.17.19zM205.64 37.73c1.526.193 2.355-1.226 3.18-7.724.835-6.582.468-8.802-1.226-9.017-1.527-.2-2.356 1.22-3.18 7.72-.836 6.58-.47 8.8 1.225 9.01z"/><path class="st1" d="M214.553 36.082l2.15-13.52c.087-.554-.21-.827-.584-.972l.04-.276 3.26.52-.05.275c-.4.02-.77.18-.86.74l-2.14 13.44c-.24 1.49.34 2.63 1.62 2.83s2.26-.49 2.5-2.01l2.16-13.61c.08-.56-.21-.83-.59-.97l.04-.28 2.21.35-.05.27c-.4.02-.77.19-.86.74l-2.15 13.52c-.29 1.8-1.62 2.86-3.86 2.5-2.02-.32-3.18-1.78-2.89-3.58zm18.227 6.488l-.07.27-3.275-.865.07-.27c.564.06.776-.086.818-.683l.256-5.898-2.36-.622-2.67 5.26c-.26.54-.15.773.37.998l-.07.27-2.25-.593.07-.27c.4.02.85-.152 1.09-.61l7.86-15.27.21.057-.72 17.16c-.02.514.28.885.64 1.066zm-2.178-8.077l.204-5.044-2.288 4.49 2.084.55zm7.538 9.643l.736.273c1.26.46 1.96.19 2.803-.64.66-.68 1.19-1.53 1.6-2.39l.34.12-1.79 4.65-6.33-2.35.1-.26c.39.06.79-.04.98-.56l5.34-14.39c.19-.53-.04-.86-.38-1.07l.1-.26 3.09 1.15-.1.26c-.4-.06-.79.03-.99.56l-5.53 14.88zm9.77 4.492l-.12.254-2.995-1.392.118-.254c.39.09.79.027 1.025-.48l6.464-13.914c.236-.508.025-.853-.294-1.094l.118-.254 2.996 1.392-.118.254c-.39-.09-.79-.027-1.026.48l-6.464 13.914c-.236.508-.026.853.295 1.094zm18.64-9.638l-2.415 4.36-.316-.18c.39-.87.71-1.818.8-2.767.08-1.174-.13-1.938-1.08-2.478l-7.88 13.85c-.28.485-.1.847.2 1.113l-.14.243-2.87-1.63.13-.24c.38.12.78.09 1.06-.39l7.87-13.85c-.95-.54-1.71-.33-2.68.35-.8.55-1.43 1.32-1.97 2.11l-.32-.18 2.51-4.3 7.06 4.02zm8.97 6.432l.164-.228 1.893 1.346-.162.23c-.368-.16-.826-.143-1.232.187l-6.96 5.15-4.12 5.793c-.323.456-.18.833.092 1.13l-.162.228-2.692-1.914.17-.23c.37.16.77.172 1.1-.284l4.12-5.795 2.58-8.264c.16-.5.07-.91-.2-1.21l.16-.22 2.76 1.96-.16.23c-.5-.25-.8-.12-.96.38l-2.14 6.83 5.74-4.26c.49-.34.43-.65.02-1.05z"/></g><g id="EST._2005"><g id="Layer_11"><linearGradient id="SVGID_1_" gradientUnits="userSpaceOnUse" x1="9" y1="206.731" x2="391" y2="206.731"><stop offset="0" stop-color="#4D4949"/><stop offset=".5" stop-color="#332F2F"/><stop offset="1" stop-color="#4D4949"/></linearGradient><path class="st0" d="M9 183.73l30 46h322l30-46z"/><path class="st4" d="M248.333 218.73h106l16-24h-125m-94.333 0H29.333l16 24H151"/></g><path class="st2" d="M80.9 209.795l3.885-.285c.135-.135.3-.225.48-.225.465 0 .705.39.645.705-.105.645-.525.765-1.245.765l-3.975.3c-.135.136-.435.255-.84.255-.375 0-.675-.255-.585-.765.03-.24.15-.495.285-.66l.51-2.82c-.135-.164-.18-.404-.135-.69.06-.284.24-.568.375-.688l.42-2.4c-.18-.12-.24-.345-.195-.585.06-.285.18-.48.315-.585-.045-.06-.045-.15-.03-.24.06-.314.45-.54.87-.54.465 0 .675.24.615.556l3.36-.315c.165-.104.39-.225.54-.225.54 0 .75.33.675.69-.09.524-.465.885-.945.885-.195 0-.315-.046-.465-.12l-3.375.33-.45 2.505 2.715-.36c.165-.105.36-.21.525-.21.465 0 .705.39.63.78-.09.524-.435.765-.945.765-.105 0-.21-.045-.3-.105l-2.835.375-.525 2.907zm16.647-6.975c-.06.33-.27.63-.735.63-.555 0-.75-.24-.69-.524-.12-.24-.51-.42-1.08-.42-1.485 0-3.045 1.26-3.24 2.324-.09.54.12.735.48.735.39 0 .96-.12 1.725-.345.75-.21 1.38-.36 2.085-.36 1.17 0 1.965.645 1.725 1.995-.15.9-.555 1.65-1.17 2.28-1.275 1.364-3.3 2.13-4.905 2.13-1.785 0-2.175-1.396-2.085-1.89.075-.48.435-.886.915-.886.465 0 .45.61.54.96.135.4.405.61.945.61 1.08 0 2.61-.63 3.51-1.53.525-.45.75-.98.855-1.59.12-.65-.15-.86-.735-.86-.6 0-1.155.13-1.92.34-.75.24-1.395.36-1.98.36-.99 0-1.635-.48-1.395-1.82.3-1.67 2.64-3.68 5.055-3.68 1.26 0 2.22.88 2.1 1.51zm6.543 7.2c.03.075.09.21.06.376-.074.404-.374.72-1.05.72-.404 0-.584-.195-.51-.63.03-.21.09-.405.18-.525l1.216-6.93-1.68.35c-.135.08-.285.15-.45.15-.405 0-.6-.25-.525-.66.08-.43.41-.76.71-.76.23 0 .3.05.39.11l1.91-.39c.24-.25.81-.34 1.04-.19l2.16-.4c.18-.07.29-.1.45-.1.38 0 .57.26.5.71-.06.38-.36.72-.73.72-.19 0-.3-.06-.4-.12l-1.96.39-1.27 7.22zm5.643.24c.075-.45.48-1.005 1.02-1.005.39 0 .63.255.525.9-.09.495-.435 1.005-1.035 1.005-.315 0-.63-.285-.51-.9zm180.507.78h-5.01c-.164.105-.374.195-.733.195-.405 0-.57-.24-.54-.39.15-.81.69-1.546 1.14-2.13 1.35-1.74 2.774-2.355 3.66-2.896.9-.51 1.515-1.28 1.68-2.15.135-.81-.345-1.23-1.14-1.23-1.186 0-1.86.43-2.43 1.23-.06.07-.06.25-.075.36-.046.18-.436.54-.9.54-.495 0-.72-.36-.646-.77.046-.26.285-.57.495-.57 1.01-1.46 2.24-2 3.9-2 1.58 0 2.42.99 2.18 2.37-.33 1.86-1.53 2.67-2.56 3.21-1.26.67-2.56 1.51-3.42 3.01h3.89c.11-.63.24-.87.86-.87.36 0 .53.27.36 1.23-.1.6-.27.84-.69.84zm13.936-6.255c-.915 5.13-4.875 6.48-6.27 6.48-1.756 0-2.79-1.155-2.386-3.45.825-4.68 3.975-6.57 6.045-6.57 1.44 0 3.045 1.035 2.61 3.54zm-7.245 2.955c-.3 1.635.36 2.265 1.19 2.265 1.25 0 3.98-1.215 4.67-5.1.27-1.5-.3-2.4-1.5-2.4-1.51 0-3.69 1.426-4.35 5.235zm19.22-2.955c-.91 5.13-4.87 6.48-6.27 6.48-1.75 0-2.79-1.155-2.38-3.45.83-4.68 3.98-6.57 6.05-6.57 1.44 0 3.05 1.035 2.61 3.54zm-7.24 2.955c-.3 1.635.36 2.265 1.19 2.265 1.25 0 3.98-1.215 4.67-5.1.27-1.5-.3-2.4-1.5-2.4-1.51 0-3.69 1.426-4.35 5.235zm17.58-5.264l-4.05.3c-.02.21-.43 1.935-.65 2.564 1.56-1.064 2.55-1.095 3.23-1.095 1.31 0 2.78.6 2.42 2.67-.54 3.06-3.52 4.35-5.29 4.35-1.36 0-2.01-.42-2.38-1.005-.33-.09-.37-.345-.33-.614.08-.375.23-.915.92-.915.5 0 .54.36.48.69-.04.18.38.65 1.4.65 1.88 0 3.54-1.35 3.81-2.94.18-1.02-.28-1.68-1.42-1.68-2.11-.01-3.09 1.61-3.87 1.61-.33 0-.61-.21-.54-.57.05-.3.32-.73.47-1.27.32-1.15.65-2.88.69-3.13.05-.33.33-.43.63-.45l4.53-.33c.23-.13.45-.21.62-.21.467 0 .6.36.54.78-.09.53-.39.75-.81.75-.15 0-.252-.06-.343-.13z"/></g><path class="st2" d="M166.364 213.037l3.25-24.4h7.05v35h-5.05l.6-26.1-3.75 26.1h-4.2l-3.75-26.1.6 26.1h-5.05v-35h7.05l3.25 24.4zm21.65 5.5h5.65v5.1h-11.05v-35h11.05v5.1h-5.65v9.7h4.95v5h-4.95v10.1zm11-29.9h7.3c5.1 0 6.3 2.2 6.3 6.25v22.5c0 4.2-1.2 6.25-6.15 6.25h-7.45v-35zm5.4 29.9h1.75c.75 0 1.05-.35 1.05-1.1v-22.5c0-.85-.4-1.2-1.15-1.2h-1.65v24.8zm14.298-29.9h5.4v35h-5.4v-35zm14.1 0h6.95l4.1 35h-5.45l-.5-6.8h-3.25l-.5 6.8h-5.45l4.1-35zm2.35 23.2h2.25l-.35-5.15c-.3-4.2-.6-8.5-.75-12.25h-.05c-.2 3.85-.45 8.15-.75 12.25l-.35 5.15z" id="MEDIA"/></svg>