<svg xmlns="http://www.w3.org/2000/svg" id="Layer_5" viewBox="0 0 249.73 62.41"><style><![CDATA[
	.st0{fill:#EFE8DE;}
]]></style><path d="M16.13 47.44C21.9 48.72 27.6 54.6 34.8 54.6c1.4 0 3-.23 4.6-.9-.6 5.32-2.5 8.7-6.15 8.7-7.1 0-14.68-12.58-24.33-12.58-.44 0-.83 0-1.27.06l8.26-38.4c-4.8 2-7.7 6.14-7.7 12.02 0 2.6.6 3.32.8 3.82-3.6 0-5.9-1.38-5.9-5.1 0-7.8 10.2-14.68 19.4-14.68.9 0 1.6.05 2.3.1l-8.5 39.8z" class="st0"/><path d="M47.66 29.04c2.77-.27 5.77-3.43 8.87-8.8l8.2-1.12c.67 14.36 1.22 16.52 1.22 20.18 0 7.2-5.2 9.58-9.75 9.58-6.6 0-7.7-4-7.7-7.37 0-3.2 2.04-5.2 3.98-5.2 1.9 0 2.88.7 2.88 2.3 0 1.4-1.2 2.5-2.66 2.5-.55 0-1.2-.1-1.5-.7 0 2.6 1.12 4.2 3.22 4.2 2.44 0 3.5-1.2 3.5-5.1 0-3.1-.62-4.8-1.23-15-2.7 4.1-5.8 6.6-9.2 7.6-.9 10.5-6.5 17-13.3 17-5.2 0-8.9-2.4-8.9-8.7 0-6.4 3.7-19.6 15.2-19.6 4.6 0 6.9 2.8 7.1 8.5zm-4.76 3.33c-1-.28-1.5-1.1-1.5-2.55 0-1.55.72-2.55 1.72-2.94-.1-2.22-.72-3-2.1-3-3.94 0-7.38 9.87-7.38 15.3 0 3.66.72 4.5 2.83 4.5 2.7 0 5.54-4.83 6.43-11.3zm57.36 16.18l4.26-20.12c-2.82-1.27-4.98-1.77-7.42-2-4.16 9.04-7.2 19.5-7.2 25.1 0 2.12.44 2.84.77 3.34-3 0-7.43-.1-7.43-5.88 0-5 3.33-14.1 8.15-22.6-3.5.2-5.8 1-6.5 2.9.2 0 .7.9.7 1.7 0 1.3-1.4 2.1-3.1 2.1-1.9 0-3.5-1.1-3.5-3.3C79 26 83.8 23 90.2 23c.8 0 1.8.03 3 .14 5.6-8.8 12.8-16.3 19.4-16.3 1.1 0 2.9.23 4.2.8l-8.7 40.8h-7.98zm7.98-37.63c-3.33 1.77-6.88 6.93-9.98 13.13 2.27.45 4.6 1.06 6.76 1.94l3.22-15.1zm21.33 14.74c-2 0-3.5 2.33-4.32 5.1l-3.77 17.8h-7.98l5.88-27.72h7.98l-.6 2.88c2.32-2.66 4.75-3.1 6.47-3.1 3.55 0 6.15 1.83 6.15 6.26 0 4.5-2.66 11.2-2.66 14.3 0 1.4.56 2.33 2.22 2.33 2.44 0 3.44-2 4.66-4.8h2.32c-3.1 9.1-7.37 10.3-10.3 10.3-4.83 0-6.54-3.1-6.54-6.2 0-3.7 2.5-10.6 2.5-14.1 0-1.8-.67-2.8-2-2.8z" class="st0"/><path d="M170.2 20.84l-5.5 25.7c3.4-1.2 5.45-3.1 7-7.9h2.32c-2.16 7.3-6.37 9.4-9.8 10.35l-.84 3.9c-1.66 7.9-6.32 9.4-9.97 9.4-3.3 0-6.2-1.8-6.2-5.4 0-4.7 4.9-7 9.1-8.3l1.1-4.7c-1.6 2-3.8 3.7-7 3.7-3.7 0-7.3-2.3-7.3-8.9 0-7.1 4.6-18.3 14.3-18.3 1.83 0 4.16.3 4.54 2.9l.58-2.6h8zm-18.07 37.24c1.17 0 2.5-1.66 3.22-4.93l.33-1.6c-2.83 1.05-5.43 2.5-5.43 4.7 0 .78.66 1.83 1.88 1.83zm-1.05-20c0 4.26 1.77 4.32 2.77 4.32 1.6 0 4.1-1.6 4.82-4.88l2.44-11.47c0-.67-.5-2.05-2.2-2.05-4.7 0-7.7 9.2-7.7 14.08z" class="st0"/><path d="M183.17 44.23c4.38 0 7.04-2.44 9.8-5.6h1.9c-3.17 5.1-7.88 10.25-15.25 10.25-5.2 0-8.64-2.55-8.64-8.8 0-6.33 3.6-19.52 14.96-19.52 4.93 0 6.1 2.55 6.1 5.32 0 6.26-6.1 11.1-12.75 11.47-.1.78-.2 1.56-.2 2.22 0 3.77 1.3 4.66 4 4.66zm3.2-20.73c-2.76 0-5.47 5.76-6.64 11.2 4.32-.28 8.04-4.44 8.04-8.93 0-1.38-.34-2.27-1.4-2.27z" class="st0"/><path d="M207.1 9.76l-6.36 29.92c-.17.72-.22 1.28-.22 1.78 0 1.55.7 2.05 2.27 2.05 2.1 0 4.1-2.1 4.9-4.8h2.3c-3.2 9.1-8.7 10.3-11.7 10.3-3.3 0-6-2-6-6.6 0-1 .1-2.2.4-3.6l6-27.8 8.2-1.1z" class="st0"/><path d="M219.25 44.23c4.37 0 7.03-2.44 9.8-5.6h1.9c-3.17 5.1-7.88 10.25-15.25 10.25-5.2 0-8.64-2.55-8.64-8.8 0-6.33 3.6-19.52 14.96-19.52 4.93 0 6.1 2.55 6.1 5.32 0 6.26-6.1 11.1-12.75 11.47-.06.78-.1 1.56-.1 2.22 0 3.77 1.32 4.66 3.98 4.66zm3.2-20.73c-2.76 0-5.48 5.76-6.64 11.2 4.4-.28 8.1-4.44 8.1-8.93 0-1.38-.3-2.27-1.4-2.27z" class="st0"/><path d="M245.24 19.12c.67 14.36 1.22 16.52 1.22 20.17 0 7.2-6.54 9.5-11.1 9.5-5.64 0-8.08-3.7-8.08-7.1 0-2.6 1.4-4.4 2.94-5.2 3.1-5.5 5.1-11 6.82-16.4l8.2-1.1zm-13.52 22.22c-.56 0-1.22-.16-1.5-.72 0 2.6.94 3.88 3.38 3.88s4.82-1.27 4.82-5.15c0-2.88-.5-4.6-1.05-13.13-1.1 3.6-2.66 6.92-4.5 10.47.73.3 1.28 1 1.28 1.9 0 1.3-1 2.7-2.43 2.7zm-92.5-35.7h-.02l-3 7.4h-.83l-3-7.4h-.02l.13 3.75V12l1.03.17v.8h-3.3v-.8l1.1-.17V4.7l-1-.16v-.8h2.7l3 7.5h.1l2.97-7.5h2.65v.8l-1.04.17V12l1 .17v.8h-3.34v-.8l1.07-.15v-2.7l.18-3.75zm2.98 6.6l.67-.1 3.23-8.34h1.07l3.18 8.35.68.1v.8h-2.66v-.8l.7-.13-.6-1.7h-3.7l-.64 1.7.7.12v.8h-2.64v-.8zm2.95-2.87h2.93l-1.43-3.96h-.04l-1.4 4zm10.53-5.57c1.2 0 2.18.37 2.9 1.1.74.76 1.1 1.72 1.1 2.9v1.25c0 1.2-.35 2.14-1.1 2.88-.72.74-1.7 1.1-2.9 1.1h-3.87v-.8l1.1-.17V4.78l-1-.17v-.8h3.9zm-1.6.98v7.28h1.6c.85 0 1.53-.28 2.02-.84.5-.56.74-1.28.74-2.16V7.78c0-.87-.25-1.6-.74-2.15-.5-.56-1.17-.85-2.02-.85h-1.6zm6.74 8.26v-.8l1.03-.18V4.78l-1.03-.17v-.8h7.1v2.3h-1.08l-.1-1.2h-3.64v3h3.54v1h-3.54v3.3h3.7l.12-1.2h1.06v2.2h-7.16zm11.5-8.44v-.8h3.33v.8l-1.03.18v7.28l1.03.18v.8h-3.32v-.8l1.03-.17v-7.3l-1.03-.16zm13.28-.8v.8l-1.04.18v8.26h-1.26l-4.44-7.13-.04.1v6.2l1.04.2v.8h-3.32v-.8l1.03-.1V4.8l-1.03-.17v-.8h2.28l4.45 7.14h.03v-6.2l-1.03-.16v-.8h3.32z" class="st0"/></svg>